<mxfile host="app.diagrams.net" modified="2024-05-28T15:29:08.017Z" agent="Mozilla/5.0 (Windows NT 10.0; Win64; x64) AppleWebKit/537.36 (KHTML, like Gecko) Chrome/125.0.0.0 Safari/537.36" etag="i0u2Yla3X8Y6K4HYTKak" version="24.4.9" type="device">
  <diagram name="Page-1" id="BKNTjJrU-tkPEFfxzlNl">
    <mxGraphModel dx="3794" dy="2416" grid="1" gridSize="10" guides="1" tooltips="1" connect="1" arrows="1" fold="1" page="1" pageScale="1" pageWidth="827" pageHeight="1169" math="0" shadow="0">
      <root>
        <mxCell id="0" />
        <mxCell id="1" parent="0" />
        <mxCell id="JH1jl1z9PuXV7L6DOCS8-3" value="Gestão de favoritos" style="rounded=0;whiteSpace=wrap;html=1;" vertex="1" parent="1">
          <mxGeometry x="130" y="390" width="120" height="40" as="geometry" />
        </mxCell>
        <mxCell id="JH1jl1z9PuXV7L6DOCS8-5" value="Catálogo de Produtos" style="rounded=0;whiteSpace=wrap;html=1;" vertex="1" parent="1">
          <mxGeometry x="510" y="385" width="100" height="40" as="geometry" />
        </mxCell>
        <mxCell id="JH1jl1z9PuXV7L6DOCS8-10" value="Destaques De Produtos" style="rounded=0;whiteSpace=wrap;html=1;" vertex="1" parent="1">
          <mxGeometry x="-60" y="670" width="120" height="40" as="geometry" />
        </mxCell>
        <mxCell id="JH1jl1z9PuXV7L6DOCS8-11" value="Noticias" style="rounded=0;whiteSpace=wrap;html=1;" vertex="1" parent="1">
          <mxGeometry x="-200" y="385" width="80" height="40" as="geometry" />
        </mxCell>
        <mxCell id="JH1jl1z9PuXV7L6DOCS8-13" style="edgeStyle=orthogonalEdgeStyle;rounded=0;orthogonalLoop=1;jettySize=auto;html=1;exitX=0.75;exitY=1;exitDx=0;exitDy=0;entryX=0.25;entryY=1;entryDx=0;entryDy=0;" edge="1" parent="1" source="JH1jl1z9PuXV7L6DOCS8-14" target="JH1jl1z9PuXV7L6DOCS8-16">
          <mxGeometry relative="1" as="geometry" />
        </mxCell>
        <mxCell id="JH1jl1z9PuXV7L6DOCS8-14" value="BE orchestractor" style="rounded=0;whiteSpace=wrap;html=1;" vertex="1" parent="1">
          <mxGeometry x="-1470" y="-190" width="151" height="80" as="geometry" />
        </mxCell>
        <mxCell id="JH1jl1z9PuXV7L6DOCS8-16" value="gestão de autenticação" style="rounded=0;whiteSpace=wrap;html=1;" vertex="1" parent="1">
          <mxGeometry x="-1180" y="390" width="176" height="40" as="geometry" />
        </mxCell>
        <mxCell id="JH1jl1z9PuXV7L6DOCS8-17" value="Feedback" style="rounded=0;whiteSpace=wrap;html=1;" vertex="1" parent="1">
          <mxGeometry x="-1482.5" y="640" width="176" height="40" as="geometry" />
        </mxCell>
        <mxCell id="JH1jl1z9PuXV7L6DOCS8-18" value="2" style="ellipse;whiteSpace=wrap;html=1;aspect=fixed;" vertex="1" parent="1">
          <mxGeometry x="-1530" y="650" width="30" height="30" as="geometry" />
        </mxCell>
        <mxCell id="JH1jl1z9PuXV7L6DOCS8-19" value="1" style="ellipse;whiteSpace=wrap;html=1;aspect=fixed;" vertex="1" parent="1">
          <mxGeometry x="-1230" y="395" width="30" height="30" as="geometry" />
        </mxCell>
        <mxCell id="JH1jl1z9PuXV7L6DOCS8-20" style="edgeStyle=orthogonalEdgeStyle;rounded=0;orthogonalLoop=1;jettySize=auto;html=1;exitX=1;exitY=0.5;exitDx=0;exitDy=0;entryX=0;entryY=0.5;entryDx=0;entryDy=0;" edge="1" parent="1" source="JH1jl1z9PuXV7L6DOCS8-21" target="JH1jl1z9PuXV7L6DOCS8-14">
          <mxGeometry relative="1" as="geometry" />
        </mxCell>
        <mxCell id="JH1jl1z9PuXV7L6DOCS8-21" value="&lt;font style=&quot;font-size: 18px;&quot;&gt;1-&amp;gt;2&lt;/font&gt;" style="rounded=0;whiteSpace=wrap;html=1;" vertex="1" parent="1">
          <mxGeometry x="-1654" y="11" width="100" height="30" as="geometry" />
        </mxCell>
        <mxCell id="JH1jl1z9PuXV7L6DOCS8-25" value="" style="endArrow=classic;html=1;rounded=0;exitX=0.5;exitY=1;exitDx=0;exitDy=0;entryX=0.5;entryY=0;entryDx=0;entryDy=0;" edge="1" parent="1" source="JH1jl1z9PuXV7L6DOCS8-14" target="JH1jl1z9PuXV7L6DOCS8-17">
          <mxGeometry width="50" height="50" relative="1" as="geometry">
            <mxPoint x="-490" y="700" as="sourcePoint" />
            <mxPoint x="-440" y="650" as="targetPoint" />
          </mxGeometry>
        </mxCell>
        <mxCell id="JH1jl1z9PuXV7L6DOCS8-26" value="" style="endArrow=classic;html=1;rounded=0;exitX=0.5;exitY=1;exitDx=0;exitDy=0;entryX=0.5;entryY=0;entryDx=0;entryDy=0;" edge="1" parent="1" source="JH1jl1z9PuXV7L6DOCS8-34" target="JH1jl1z9PuXV7L6DOCS8-52">
          <mxGeometry width="50" height="50" relative="1" as="geometry">
            <mxPoint x="-490" y="920" as="sourcePoint" />
            <mxPoint x="-596" y="1050" as="targetPoint" />
          </mxGeometry>
        </mxCell>
        <mxCell id="JH1jl1z9PuXV7L6DOCS8-28" value="" style="shape=image;imageAspect=0;aspect=fixed;verticalLabelPosition=bottom;verticalAlign=top;image=data:image/png,iVBORw0KGgoAAAANSUhEUgAAAi4AAALFCAYAAADkyWieAAAAAXNSR0IArs4c6QAAAARnQU1BAACxjwv8YQUAAAAJcEhZcwAADsMAAA7DAcdvqGQAAJOVSURBVHhe7f3/rxRVvuj/1/38DrLx/dM5xkvEHy7Rk5noHjWT8QdIZI/ciXEiiqMTMwlGLmJMdK4iDIYYRA+jgwlBRaIJMTMwfgvm5KCDJpwEJhBBCSYab3Jl4iUcfuKo6B/Ah+eiX+2irOrdvXf33l17Px9Jp6tX15dV1V3Vr1pVvV7/rSiK8xcekiRJQ+f8+UvDlBS4lAtV7b/9t//2ow0oqb/czyQFjgdHjhxpvbro/9d6liRJGnoGLpIkqTGmJXD59NNPi/fee6/1St34+9//XvzXf/1X65WkQXFfk4Zb14ELO/KDDz5Y/OxnPyt++ctfpufxgg+mIUjJUfbKK68UN954Y6vk4jWsqfDHP/4xHZQGgfW8++6707rwYBvFurPMKM/fpz7lch5lzOfmm29uveqvqNtEt8s//vGPgW1TqYr7mjS7dR24PPnkk8XIyEhx7Nix4m9/+1vxxhtvFL/97W/TzlTniy++KNauXdt6ddHll19evPTSS+l5ojgI/fWvf229mn4EY3fccUdx8uTJYt++felB2eLFi9NzWL16dXHo0KH02LJlS7F8+fI0TDnivTICvRUrVkxqmw3K22+/PbADvVTmvua+JnUVuHBAePnll4vNmze3SoriqquuKv7jP/6juOyyy9L7nAGVW2IeeeSR4ujRo6kcBBsMx6PKH/7whzQPHgwHhlkGj3PnzqVnzo7yFqA468rF/Bj/+PHjrdKLdYlp8+VMxIcffpgOpE899VSxbNmy9CC4+7d/+7fWGD82Z86ctA1/8YtfFAsWLEhlDPMoo6733XdfGo5tR905e6MVDHE2F++D9Zo/f34qZ/3jwM64V199dSrfvn17KkP5jDCfV2xr3mda6kQAGYEp5aA8lsn4nQJbqVfua+5rEvg7dEcXzkzOj42NtV792IWznvN79uxJwxcOKu1xy9NdOJNpDZ0/f+HMJ72PqEN5fMaJ+eblCxcuTM+UxTxYbpQH6lVePuOfPXs2jcszWA7jjqduW104o7vkPZYZjxMnTqRl8n7+YJpQnj5HvUZGRlqvLs6burO+vMd0PMcy1q9fn5bJdov3YtuwnmCYbcH6Mz7jMX3Mg2fEOoBpYn2YT9SpXPfR0dE0b8bbsWNHe15St/LvU5n7mvuaZhe+80eOHLnk0VWLy6JFi1LLSRkRP1H+P//zPxfvvvtuOtOgObPOhR0yjcPZSdXZweHDh4slS5a0XhXp7OjUqVOtV0U64+Gs5Omnn06v9+/f3z5r4ozqwkEjDYfPPvvskvldd9116ZlLWF9//XVx7733pvl98MEHadyJuvLKK9NztDSxTOpD/b7//vtUhgsHHo466fH444+3Sjt7/fXX0zbLcRbG/DnbRF73W2+9tfjJT37S3m6Mw7hME9uc7cS2oDmc8bvBNKwX8+ZSH9uvCmfCjPvTn/60eO6551qlUn+4r/3AfU2zVVeBCzsdOzTNlYEdc8OGDWn42WefLR566KEUyFw4U0hlZTR/fvLJJ2kcLjnNmzev9c4Prr322ksu53z11VfpQEWzK+OzE9MsHAeXC2cc7ctD1IfAKFeeXwwTiN1www1pXjx27dpV/PznP0/vTcQtt9ySlr1x48Z0QGVe1Id7glhWYH1oGuZRdVmrjPXmXqJVq1a1Si768ssv0/zj4M16lsUBnmUxLtNwUAV1ZVtQvnv37lSW+/zzz9O882A1pqHe0Syei6ZxDuwvvPBCceEMM73Om8elyXJfc1+TcOGkZHw0ddJsSfMkzZg80zQKnqPZkubMaPJEjA+eeTAfxo2mTZpQGS8f5sFwiPnE48KZRmoijXKeeV0W82OcfJk078a8KGd+4+m0rVg282EcHsw36hPNwvmD90Nd8zV1vHAQa726iOko48E0sY1iGXlzMe/RzEw5deMzBJ8X5Tz4LPLpmD+veY7thtjWvMey4xIe5VEX0GQdy6S86jOROonvUh33Nfc1zR58v8uXirjLq/Xe8OJMhstI0eRLyw83BZfPjgaNm+Cmc1stXPn/WkPNcvK1/94aksY33fsZ3Nek4cDx4EKw0np1USMCF5pG16xZU3z77bfpNc2wmzZtmvK/LA7DATX+ecAlLmkmGob9DO5r0vRrbOAyLKb7gOpZoGaDYQhc3Nek4WDgMknDciYozWTuZ5JCVeDSdc+5kiRJ083AZYrxt8j4O6MkSepNXwIXbmKjy2meo4vqyYib4urww99N3wzTKdahvC4rVqxIKQv6iX9d5X3s9KKbbVm3LmV0EEi/E5IkDUrfWlzoCIm77z/66KPUMR0tC4NSlbyxCdgmCxcubHdONQwmsi1Zj6rPt5zPSpKkfhvopSJaAejlljN1zuppiYmWGR5xyYT3ojxvOWA4f81NOignb8yn5zlaEFheLGuqWwJ+97vfXfIM0iHcfvvtaZh1Yd3KdeZ1pDZA3TaLcrZv3iMn49ACA55jPkwX88jHKW9LtlOMEy1n5XUh0d369evTsCRJU41/FU1K3vMjPTjSoyPopZJeJEFPkrwXPUrSGyQ9SYJpozdJen+MHiSZnkeIujJujAOGY3p6wGU5yMtZXix7oia7rVjPqAPzip4u6V0zthN1ju1Xt814TY+ZUc74sZ3ydc63Ez17xjgxX5S3JeXRi3DUo1sxT2ky+nFMkjQzcDygt9z80fdLReTpyHu0zRMbcv9LdBp3xRVXtC83fPzxx+1kiSQW61VdskVyG73//vupZeLgwYNT3mFdLlqF8jrEupKcLTrXwzXXXJOe67YZ5eRaivIYvxPyREU+Jqbjc6pC3qbnn38+1bUXjP/AAw+0XkmSNBhT9q8iEqDxYxmXOk6fPt2+12M0S5YYz6Bb/7iRNaarkk8f95GASy7cc3Hs2LGUYTUuj0yHV155pfjVr37VenVRBG4kWatKOlm3zcrlJGoLzOe7775Lw/GM66+/PqVNANMREJWxDQn0CPjYZuvWrWu9cynqHXUPBK07d+5svZIkaTCmLHDhLP/pp59u3z/BmT3d9uPVV18t7r///lT+5ptvpjKQCZaMrZRv3bo1BSigdYUfX8qRT8+/dt55551Uzj0ZlMV4efbYqUYgEKnxA/e8UDcy3VYFCXXbrFyeB3v33Xdf8fDDD6d7X/IU/I8++mhx4MCBNP69996bpke+LaMFKOa7evXq9Lqs6h4X6hQtXZIkDYo95/agnz16zsTeQWfiOmnq+T2SFDge2HOuBoYWsfgnkiRJg2DgMk1m4hkl97lM5+U4SdLM56WiHtiELQ2e+5mk4KUiSZLUaAYukiSpMQxcJElSYxi4TJHI4MxjIh3h5dPQx0r+XCfyGUmSNFMYuAwBOpCjw7hObr755tbQj9GBXN4JXaDDOlIxSJI0Uxi4TJF/+qd/SrmCeDBMoEGLCWkJ6PX3mWeeSeORnZlWEt6LPlEiszVlTFfO1kwqgMWLF6dhSZJmMv8O3YN+/k2TS0YEMXS5z/CVV15ZzJ07t3j99dfbAQv5hD766KPUnf5Elk2gQ96hyAklNYF/h5YU/Dv0ECFoocWEFpfjx4+nvEzkFiJTNgEHDxJDkgl6IqKVxqBFkjST2OLSg36eCRJY3HXXXe3EhuAGXLIzk9EatLzccMMNKfjotGzuceFyUT4vcMmJJJUGL2oSW1wkBVtchsi//Mu/tDNa8+ByEZeNEGUHDx5sBx1kYyYQqboJt+4eFy4xnTlzpvVKkqTms8WlB/08EyQwIbdPmD9/fro01E8sY8OGDe2ASGoCW1wkBVtchgj3t0TLCn+F5ibafrv++uuL3bt3t15JktR8trj0oIlngtw3Y4uLmsQWF0nBFpdZyKBFkjSTGLhIkqTGMHCRJEmNYeAyjbgxN3+uyzk0UZHQMeZfh380lesy3jQTNZn5dko0Sb849DScjyNJmnkMXIYIveSuXbu29ao7BCeRImA8dYERndzlf80eVp0STdJp3wMPPNB6JUmaqQxcplE5WeIjjzxSHD16tN2KQEDCcDwCrQv8hZrHuXPn0nM+bnT3Hwkde0nGWK4TgVEsiw7wYt60bPA6lk1AFMkh847yCJaiXqQ34DXKLUEMR2sJy4h5vfLKK+0yUMa8y/WUJM0e/B1aXRj0tjp06ND5sbGx1qvz51esWNEaOn9+9erV6X3k4yxcuDA9Uxbv79mz5/zZs2fTcDfy+ZVt2bLlknqMjo6eP3HiRFoWy47l5Ms/efJku17r169P8wDjRnl5XWP6ffv2XVLO8pgfxtv+LCfqoObymCQpcDw4cuTIJQ9bXIbYhR/51KJBa8M//vGPVulFtF7Q+vD000+n13RgR54jWipIFUB3//1y3XXXtYaK4s477yy+//77NMw9JbGc/fv3t/96TZqCC8FGGv7kk09Syw8Yl2k6IdHkkiVLWq+K4tixY+ZakiS1GbgMKS6H8KPPZRju35g3b14q51ILwwQq3JdCYAMCGcbjh57UAVU3qU705t+vvvqqNVQUb731VjFnzpzWqx+Mjo62502QRdAFeu/9/PPP0zDL//LLL9Mw84jLRojha6+9tjhw4EAaBoFYOWjrhjfpStLMZOAyRGix4AeclpTI9MwwQUmg1YLWDMrjwQ8793rEayxatCg957q5x6UKgVDc47J06dIfZaHGq6++2k4auWLFiuKdd95J5Y8++mixd+/eVL5mzZpiZGQklTMP1oV5sn4R6CxbtiwFO3GPC8vrJtFk2W233WbwIkkzkF3+92AYuiLnx/jw4cPF448/nl5z8+xll11WrFq1Kr2eCAKEun8VMX/E8oYZdeWyFEEbQdKLL77Y10tmmhp2+S8p2OX/DMCP8vHjx1OwwYPLOMuXL2+9OzFcvokApam4pBaXmPin1TPPPGPQIkkzkC0uPZipZ4JxSaXJeY24fMRNwwR2BizNZouLpFDV4mLg0gMPqNLguZ9JClWBi5eKJElSYxi4SJKkxjBwkSRJjWHgMo34V1D+3ETc2Ms/knh06jelvK6MG1mpedCj7nj9s9BfTV1ndPyraCr/GcV1V7Aeg/78YhtPRKdtFqj/ZJYhSVPJwEV9RwCS94pbJ7JS83jssceKZ599tvVOtbfffjs9qtBBXhP6mplqnbaZJDWRgcs0Kmc4rsrwHK0ZIT/Tj15no5dZxuMHPG+9oJxxopxxYpq8R16Wx7iUx/JiGUxL3RiOs3eeeU32aTp9i0zUIAAp/1h2k805es+l7syb+rBsgiDKdu7cmR7UtVy3fDtVTc80jBd4n/JYL8aNbZ7LPxMe3eJzoj5Mw/zLn0fMi2XyPo98+VEv6r979+5W6Q+tI+A55hM9LseD98rbjHGYX4wTdeIzic9RkpqAv0OrC4PeVnmG5cjwTMbjyK6MqAPjkWk5sjOTRZnMymDamIZ57tixIw3zPuMFpgfZl8niHKK8vAzmG+MxT15PFPMeGRlJ9aNOPPJ1IQM18mXm26Jct/y9qulZx8g6zbRk22bafB6UxTYMdRm6888hz2YdeD/qwDxjPvnnUZ6W+VNf6sO2iXoxfv55Rh3y6VnHGCfWC/l2YXzqwftsj/K6DguPSZICx4PICh0PW1yGSK8ZnvPszDzPnTs3DV9xxRXpOVxzzTXpmffzeUamZlIGkP+Is/FotQj5Mnj/jTfeSMPkJrrlllvS8ETFpSISQ174oS0+/PDDVP7xxx8Xa9euTa0Cf/rTn1KyySp53XJV00e+I1qKaMG45557ii+++CLlYbr33nvTuB988EHKTp2jXqw3LRbj3StSFjmdyL/07bffpmHE50HqhjwT9oIFC4pTp06lerFtYt1i/E7KWbgjmWWODgZvv/32lA6BfFLxfZGkJjFwGSJcQihneCaooAt70NQ/CFzWue6669LliZUrV7ZKq/GDF5c3qoIGcAmi17red999xbvvvpuGx8bGir/85S8pqCFQ6nR5qUrd9Dy/9tprafvyI04vu/l9Nrt27brkcgnrUZWhu1sR6Lz33nuV05IJm/QNgfQNV155ZaoXgUdsw8iuDebz3XffpeF4BokpCYTAdBGU5liPeCbwfPrpp9PrXFyGkqRhZeAyRPhhjfsPwA8YrRr8+FK2devWYnR0NL3XTyzjrbfeai8jMjhXIbAhDxAtFnWq7nEZz4033phaPLBly5Z2KwjBXLQgkZMp7tfopG56Wk5efvnllMUaBF75Nt++fXv7Ph3UZejG+lam6sjoXVUntgHTbty4sVi3bl2r9Ae0xNCiw3x4sN2pI/UiqIh6xb0oIMB7+OGH03h56xBZuMnVxPisewQl+TbjcyY4ZBxapKoCQrNqSxp2dvnfA7siv9iKsHTp0spLEfpBE78rBGDDkFXb/UxS4Hhgl/+aMC4xcKlo27ZtrRLNJGbVltQEtrj0wDNBafDczyQFW1wkSVKjGbhIkqTGMHCRJEmNYeAiSZIaw8BlGtGfRv48U3S7XvSNMl6fLJIk5QxcNHD0/VLVXT6dwdEjrSRJ3TJwmUZ5V/QgTxA9otJSQW+p9JtCj6q8jpYJOgmLcWI8MEwLBu8xTXTvzvgxbl5O76i8zueFuvnzHHXhfcYD9YpxY97l9SIHET3NSpLUD/Tjoi4MeluRxTeyCEeG38gQHJmL6zL8kiU4sg7zHtmFkWcHBvNkOuaTzz+yDtfNvy5jc8wPsfxuMa1U5jFJUuB4kGeG5mGLy5Ah2SHqMhd3yvAbWYTp+ZTkgSB/TZ44kOR7Z86caQ+Xe0mtm39dxmYSEz7//POpNaYXjP/AAw+0XkmS1B0DlyFVl7k4LsfwXM7we/r06fTMZZyjR4+mYbIG59mFyTGUJxIsq5t/VcZlLh+9//77xUsvvZQyLlclEkTVPS7Mh+R/kiT1wsBlSNESQnAQ949E5uJOGX4PHjzYvj+FYAJkDd67d28qo5WDQOSqq65K71Wpm39VxuU8ezKP1atXp9dlVfe4sH4nT55svZIkqTvmKurBMOdQIXDYsGFDutTTFOakURW/F5KCuYo0VEZHR9uXpiRJ6oYtLj3wTLC/uBeH+3LikpME9zNJoarFxcClBx5QpcFzP5MUqgIXLxVJkqTGMHCRJEmNYeAyROiGn27/eTAMbl7lb8w8+KtzeO+991IHcpTniQqryqvmWyXSA3jDrCRpWBm4DDn+4kxnbXTwNn/+/BSY4Le//W3qTZdyerEdr7yMzuMi31Cgt17kAZIkScPEwGWI0MEcvePyiN5t6em23C0/QQe96kZHckuWLEnpAOrKq+b77LPPFm+//XYaliSpKQxchggBBx3I8Sj3bktQQivKsmXLiu+//75VehEBCerKq+bL5aBVq1al4Vx5uZIkDRMDlwbgcg/d73PJCHPmzEnP4fDhw+m5rrwbBEZ073/PPfe0SiRJGj4GLkOOlpHXX389JTiMS0Z02EYSxUhcSAboa6+9tra8SvkeF6bdtm1bsXv37laJJEnDx8BliBFc/OY3vym+/fbbdoLD+MfPn//852Lp0qXp30NkgOYSUqfysqp7XObOnfujLM6SJA0Te87twUzv0ZO/SpM9Oi5JSdPBnnMlBXvOVUf844jLR536epEkaTrZ4tKD2XAmGJeK/HeRpostLpJCVYuLgUsPPKBKg+d+JilUBS5eKpIkSY1h4CJJkhrDwEWSJDWGgcuQi4zO9OFSpa68H+gzhuV3ws28ed8vZKaeKNYlMlnXKW+Pum3z4IMPdvx3VLne42Hccibufhsve3cn3axPN9tXkoadgYtqkSX68ccfb72qRid2eUd2JIXsl3Lvvr146aWXUm6mOuV6j4dx77zzzmLz5s2tkuHS6/pIUlMZuAy5yOhMHiHwQ86ZMw9aFfIfdloDaBXgvehhlx//GJ9AJMbPx33llVdSGWfjlDFetLbE2Tl3djPM+IzDfHns3LkzPaIlgvGQ15Pxoz75MuL9wDpGJmtU9e5b3h51mC/Loh75surqHahnbBceTF83fqwLn0M+PtgOjBvj88y4PPJ5RDl1PH78eKv0h+2I/HOgLlE/pqGVpVy/qnVGeftKUlPxd2h1YRi21fr1689v2bIlDZ89e/b8woUL0/C+ffvOr1ixIg2Dct5n3Bj/0KFD50+cOJHGHRsbS2UYHR09f/LkyfR+TId8WtadaZEvKx8HsY3K5cy3ahnUg7KJYtp8XULMlwd1ZXksn7qjXD/E9oy67dmz5/zq1avTcNX45XXhs9mxY0cazrdXuY7Mk3mXPwfqybjIv2v5svmsYhymr6pf3To3xTDsZ5KGA8eDI0eOXPKwxaVhPvnkk/YZM0kX456Szz77rPj444/bZ9lff/118cUXXxQrV64sLrvssnSWvn379pRBmnGXLFmSpsOxY8faHc4xv0jmWEYiRpD/iPxJnZDgMT+zZ75nzpxpD9cto9+4XHT77bcXa9asKS78mKd8THXYXnndrrjiinHvG8nHv/XWW4tz586lYcT2Ikt3vr0XLFhQnDp16kefw3XXXdcaqsdnHJfA+By4JFbWyzpLUtMYuDQMiRM///zzNMwlgbinhCCBHynyDPHgB43LAlu3bi1uuummFJwsXrw4XXohYzSBRSCoGe8HGjHOe++9V8ybNy8N18nrCepJfXrBJY649DJRcYmK51dffTXlYqqzaNGiVM9Y5unTp8ftQTi/p+f9999PQWIZ2zu/DPTVV18VV1555Y/K8+GRkZF2PfJgaHR0NF2iAp8Dl6nKulnnmIckNY2BS8M8+uijxd69e1OrCmfU/MAhzsKjxeXgwYPpR/euu+4q1q5dm8qYbmxsLJ2pE1jEvRJkk+6mi3+CHsbfuHFjsW7dulS2fPnyyntF8nqyHH48e00jUHWPS5WjR4+m5cQjd8sttxTvvvtuKmc7xL0xVfWm5YR6xnx27dpVbNq0qfVuNbZ/3ONCaxjzLWN7L1y4MG0HHkzDPSh5ebneTzzxRHHjjTem8XIEIo888kgaf9u2bcWqVatSeb4+deucu+222wxeJDWSXf73gBsmZ+u2ms3rXocf/iZm06Ylh6D3xRdfnLJLdr3wuyYpcDywy39pluPS0zPPPDOUQYskjccWlx54JigNnvuZpGCLiyRJajQDF0mS1BgGLpIkqTEMXCRJUmMYuAw5ctTwt9tyPx+TxV9iI4fNROSdw1G/yKfTqW8QpqHPksksV5I0uxm4zFJ0b0/nZBPFtMyjTlWvt/v3708ZlqMrfEmSemXgMuTK2ZAJBmh9iUe0cERrBmV5qwatIJEpmPLIMkzvq9HjLPKsyHlvsvwVjdcxPd3+My7TMg+GI+Nw1BXd9norSVIv7MelB8PQvwRBBPlwHn/88RTE0C08+XIILDZs2JC6/ie4oBt/yglUyIET+WtiHfJeX2M+H330UeqUjC7sf/WrX6Uu6Rn/xIkTqZUkgh6WnS+vW0xPjp5yN/ZSbhj2M0nDgeOB/bg0XDk7dCT54zJMBBHkBDp58mQaxnhZh7nkQzbpe++9NwUkH3zwQcpcHPpxaYfAiVw65NGRJGmiDFwahuSIhw8fTsO0lFx99dVpmKzBcXmIFheS93WLrMg33HBDO7M0yQUjOJqo8j0utLKQvfrDDz9slUiS1DsDl4Yh6/KBAwdSywgtJFzuAVmD77///lROgPDOO++k8jq0zsT9MrTccA8Nwzy2b9/evlelzsMPP5ymiUtQZVX3uHCJ69SpU61XkiT1zntceuC198nJ75GR6rifSQre46Jpde2116bWIi5lSZI0Eba49MAzwcnj3pcrrrgiXZ6SqrifSQpVLS4GLj3wgCoNnvuZpFAVuHipSJIkNYaBi4Ze/M1bkiQDlwbiL8uR2LCfmF/Mk785T3T+eaJFeuHtlHhxPPxl+4477kjD0WdNv7Ad8+c6bAvSHUiSpp+BiyrRYdxE/7Z88803t4aK4qWXXuopLUAZHdY99thjaTh6CR4UgqSq1h065HvhhRdaryRJ08nApYHo+C0SG4IWgeg8Lm894KYmWk0oyxMv8pqWEIITyqs6kSu3vkQCRqYLefLFGDcSNFLO8niOFpd8PjyiZ13qWU7kGAgaIk0A44HpInEkj1ivuvkzTL155v333nsvlUfiyng+ffp0sXjx4jQsSRpe/KtIXRjWbbVixYrW0Pnzq1evPn/o0KE0TH1PnDiRhvft29ceb2xs7PyOHTvS8NmzZ8+PjIyk4S1btqRHPhzv84z169ef37Nnz/mTJ0+m4bBw4cLW0KXbiWVRH6ZnnJgP86CuyOuZ14FlMH2I+TI/1oV5MQ7r1mn++foybT7PbjA+y9HUGNb9TNLU43hw5MiRSx62uMwA5CWiBYJWi3LnbpEgkUzP3377bRrGNddck57pT4U8RXVIwMj70e/K5s2b07Lovp9Ejgx3cy8M8+EelZgPfbnkda1K5MhlomgNyXHp6fbbby/WrFmT0hvMnTt33PnH+vYqWpBIXClJmn4GLg3HZRIyRnOZhKBi3rx5rXcuih9vLo/k73FZBFxOOXr0aBquQgJG3o/LLvyQsyzyEJF1muGVK1em9zphPtyjEvNh+eMFA88991xlNmmWGc/kaCJf00TmX8a05Xtc2KaUlwNCSdL0MHBpuGipiPs4yggweG/jxo3FunXrWqVFcfDgwfZ9ItxAi+XLlxc7d+5sBwagBYP3GY8HrSwEEzzeeuutVLZ169ZiZGSkNUVRrF+/Pt1LkgcBzIcAI+bDvSubNm1qvftjTLt06dJ2C0qOZb/77rtpPmvXrk2tMr3Ov0rdPS7M+8yZM61XkqTpZM+5PWhaj5519eWHfcOGDZP6t890mK7t39Tt1VRN288kDQ7HA3vOVSPRgrN69erWq6l1/fXXF7t37269kiRNJ1tceuCZ4OzFX7ptcZka7meSgi0u0gQZtEjScDBwkSRJjWHgIkmSGsPARZIkNYaBywxAz7XcPMrfdnuV5ySaCtSRunZaJh2+MV7en4wkSTBw0bSiR9pyr7R03w86yJMkKWfgMgOQJZps0ZHXh5YKWix4RK4dMBzZk1955ZVWaVEcP348lfFe3hKSjx+tH7xPQMGD3ECMwyOmjy738zrwCNQxz2xNPiJ62pUkqVv046IuNGVbRUZmkCWZjMlkUM6zIo+OjqaMx2RizrNLxzrm2aQRmZfz8XnN+JGROc9MnU+bl3eDcSOzs2Yfj0mSAseDPDM0D1tcZiByC73//vupBYScROTa+eyzz4olS5a0xiiKY8eOtZMQkiyxjPE//vjjdovJ119/3b6EE+NHHqF4XrBgQXpGp4zVnZCjiFaZe+65p1UiSdIPDFxmIJItktWY4ISAg5thr7322uLAgQOtMS52od8poOBSzooVK4q//e1v6UEwxCWeboyXsTpXvseFpJHbtm2zi31JUiUDlxmIFov83pJFixYVy5YtSzl34p4VMi9Hi0uV6Ck25kPLTafxc+NlrM5V3eMyd+7cnlppJEmzh7mKemAOlalBC9HTTz+dWno0+7ifSQrmKlIjcEmKfycRwEiSlLPFpQeeCU6duFTU7eUpzRzuZ5JCVYuLgUsPPKBKg+d+JilUBS5eKpIkSY1h4DLLeN+IJKnJDFxmmcOHD7eGJElqHgOXGYo+VPIszOQmouxf//VfU98qkVOoW9GfSwznz5IkTRUDl1ni1VdfTf2iPPHEE8XIyEjq+K1bcXmprl+Vcu+3kiQNioHLDFXOwvzNN9+0AxC64SePELhjOzI8g+dyRuhHHnmkOHr0aLuFJbJQx7MZniVJU8W/Q/egyX/TJH/Qs88+W3zwwQcpaNm0aVNKjsg6nThxInXT/9577xWvv/56O2C5+uqri48++iglV7QnW00V/w4tKfh36FmMwISAhEtFZHF+8sknW+/8kFuoU0ZoSZKGgYHLLMAlovxGWjJFE5SUTTQjtPe4SJKmioHLLECm58gMvXPnzmLbtm3FunXrWu/+YKIZob3HRZI0VbzHpQcz4do7f49+/PHHW6+k4eM9LpKC97io/S8jSZKayMBllonLQZIkNZGBiyRJagwDF0mS1BgGLtOAPEGz/e/DdIjXVHx2veZ6kiT1h4FLH0QyQx7RrT6iW/3oTj9s3bo1daE/0xCMdPODTg+9JH3sRWzfYUBfN+fOnUv1oXdh/jrOc/lz7lXe106v8u9d1bYi2Bpv/uV5lPv/kaRhYOAyIPyIX3fddWn4k08+Sc8hut2fadauXdtVT7v//u//Xqxatar1qlkIABYuXNju3+aBBx5InfV9+eWXxcmTJ9vpEqbazTff3BqqRn3HS9kw3jwkaRgYuPRBJDPkwTBnqrQoHDhwoH3mGz9ovEdHcKAsEho++OCDqQyR6JBHfhbP/9mZX5zhswwCIIZj/rxPGY/y9J3my2vmy3txGSuv33jjMy6tSCRkZJiWF+rAODzi0hDlx44da6cgiPfz+TMcy81bZo4fP57KeC9vUcjHr9oO0RqS1zlahvI68AgxLo+YJ95+++3i9ttvb72qFstmWtabR9SP59gWeXm+Pgznr9neoWrbUIZYXpW89YRxGOZBPdkW5XnEdzkSaUrSMKEDOnWhl221Y8eO84cOHUqPPXv2tErPn1+9enUqO3v27PmRkZH0jPXr16fxeG9sbCyVgfFjepZ/4sSJNMz4PHDhTL89zZYtW86vWLEiDWN0dDRN0+18mZ4H9Vq4cGG7foy/b9++NFw1Ppg/ywHP1IPpqV9MyzKrxqeccRkvryf1Z3qmydcrPgvGz8ujzvn4vGb8fF1iufm0eTnzYbngswzUJ+bDMhiP+vLM9FGezzdfT+bJuGBeUc72jPVmeh4hX9eqbYMYB+XpwXKq5k95fJb5PKbTsNRD0vTjeHDkyJFLHra4DABn6M8991xx+PDhlFWZrvOjFYPWBvpS4ZLKDTfckDI0Y/Pmzensl2mWLFmSykBCxFOnTrVe/ZAQ8bLLLksPlLvlj0tUuPPOO4vvv/++6/kG6kc+o3vvvTedhXN5iySMoTx+GetIy8SaNWvSPSFz585N5e+++26xfPnyNEwupPfffz+1ILCN2BYsI68n2yvWL1+v0CkxZIwf2zieWfdwIYhI250Wh/iMsGvXruL5559PdQvRQhLzQX6piPUJeV3379/f7j+HdbkQbKRh6h3l421PdNo2vVi5cmX67rAu27dvL+bMmdN6R5KGn4HLAPBDeOFsOHWtzw/Npk2b0g8MAc3SpUvTOIsWLUqXVuKSBT+cvE8CRC6JhK+++qq48sorW6+6wzThrbfeSj9Mvc6X+hFYRcJFfsh76XU3Lq/w/Oqrr6YAjsCAH+34seXyGAEbP8AEHFzOoJ5cYgv8uOYBRRl1IjCKenabGBIEItx/RB2px7x589rlBFTMi7pFXicuzfzqV79Kw73gu8A8wboQLCEvj2cQVHDzL+L7gV63TR1uDr/pppvSui1evDhd/pKkpjBwGZD58+enZ35o4gyd1gbOdkEZP4zRUsAP+i233FIsW7Ys/bDxo8RjZGQkBUK9IAhgGqYnUOJsvtf5Uj/ub4j6cWY+XkDw8MMPp2kIBFgX1pdpuWmXcpIx/v73v2+NXVwyfxAsUc9ICEk59e/UqhAtFjGfbhNDIlo5mC6/xygv57F69er0mh966tcrArf7778/zYsg65133vlR+ZtvvpnKwLZ74403UjlBBgEOOm0bklxSHgEQyTQZh0fcvxLuuuuu9Jnw3t69e4uxsbFUXp6HJA0jkyz2gJskh31bxU2dJlJUUzVhP5M0NTgemGRRkiQ1li0uPfBMUBo89zNJwRYXSZLUaAYukiSpMQxcJElSYxi4SJKkxjBwmQHopyPvh0SSpJnKfxX1YJj/7eA/MTRT+F2WFPxXkSRJajQDlxmCLvwlSZrpDFxmiCeeeCLlmZEkaSbzHpceDPO196uvvrr46KOP2gkdpabyHhdJwXtcZjCySxu0SJJmOgMXSZLUGAYuM8Bf//rXYmxsrPVKkqSZy8BlBli0aFHxl7/8pfVKkqSZy5tze+BNg9LguZ9JCt6cK0mSGs3ARZIkNYaBS8N8+umnqaM5niVJmm0MXBrmJz/5SXHnnXcW+/fvb5VIkjR7GLhIkqTGMHBpoMsuu6w1JEnS7GLg0kDLly8vdu7cmTqekyRpNjFwaaAPP/ywWLFiRXH33Xe3SiRJmh0MXBro1KlTXi6SJM1KBi6SJKkxDFwa5h//+Edx4MCB4uc//3mrRJKk2cNcRT0Yhhwq//Vf/1WcPn069ecizUTmKpIUqnIVGbj0wAOqNHjuZ5JCVeDipSJJktQYBi6SJKkxDFwkSVJjGLgMuT/84Q/Fgw8+2HolSdLs5s25PZiumwa9WVGzid93ScGbcyVJUqMZuDTAyMhIa0iSpNnNwKUBnnjiieJnP/tZ65UkSbOX97j0YLquvV999dXFRx99VFx++eWtEmnm8h4XScF7XBrq5MmTBi2SJF1g4CJJkhrDwGXI/fWvfy3GxsZaryRJmt0MXIbcokWLir/85S+tV5IkzW7enNsDbxqUBs/9TFLw5lxJktRoBi6SJKkxDFyGCDfi/vKXvyz+67/+q1UiSZJyBi5D5O67707PX3zxRXqWJEmXMnCRJEmNYeAyZObNm9cakiRJZQYuQ+ahhx4qfve73xWffvppq0SSJAUDlyGze/fuYtu2bcVPfvKTVokkSQoGLkPmH//4RzF37tzWK0mSlDNwkSRJjWHgMkT+/ve/pz5cyE8kSZJ+zFxFPRh0DhUuE+Gqq65Kz9JsZK4iSaEqV5GBSw88oEqD534mKVQFLl4qkiRJjWHgIkmSGsPARZIkNYaByzT62c9+ljJCS5Kk7hi4TKMXXnih2LVrV+uVJEkaj4GLJElqDAOXaTRnzpzWkCRJ6oaByzSKRIp/+MMf0rMkSerMwGUa0VMuXfxv3ry5VSJJkjoxcJlGZ86cKS6//PLWK0mSNB4DF0mS1BgGLtNo9+7dxZIlS1qvJEnSeEyy2IN+J3/7+9//XvziF79ovZIEkyxKCiZZHDIGLZIk9cbARZIkNYaBiyRJagwDF0mS1BgGLlOELNC//OUvU4dzkiRpYgxcpsjdd9+dnr/44ov0LEmSemfgIkmSGsPAZQrNmzevNSRJkibCwGUKPfTQQ8Xvfve74tNPP22VSJKkXhi4TCG6+N+2bVvxk5/8pFUiSZJ6YeAyhf7xj38Uc+fObb2SJEm9MnCRJEmNYeAyRUioSB8uixYtapVIkqRemR26B5PJWstlIlx11VXpWVI1s0NLClXZoQ1ceuABVRo89zNJoSpw8VKRJElqDAMXSZLUGAYuA/Kzn/0sJVaUJEn9Y+AyIC+88EKxa9eu1itJktQPBi6SJKkxDFwGZM6cOa0hSZLULwYuAxL5iP7whz+kZ0mSNHkGLgNCh3P0lLt58+ZWiSRJmiwDlwE5c+ZMcfnll7deSZKkfjBwkSRJjWHgMiC7d+8ulixZ0nolSZL6wVxFPeglhwrZoH/xi1+0XknqlrmKJAVzFU0hgxZJkvrPwEWSJDWGgYskSWoMA5eG4J4Z+oVpupmyHvj000/TQzOL+9rwcV9TzsClT9ip7r777nQjEY9f/vKX7R2NA0iU5+//8Y9//FE5jzLmc/PNN7de9VfUjeeJoKO9bqfN14Pp5s+fn7bDIMS2nahu1uvZZ59Nj7J8m0Y93nvvvda7miz3tfG5r2kmM3DpA85q7rjjjuLkyZPFvn370oOyxYsXX3LGs3r16uLQoUPpsWXLlmL58uVpmHLEe2WvvPJKsWLFiqHs0O7tt9/u+kCfrwfTffPNN8Xf/va31rvDpZv1+utf/5oenTz++OPF6OhosW3btlaJJsN9zX2tjvva7GHg0gcffvhhOpA+9dRTxbJly9KDg8S//du/tcb4MZIwXnXVVenfRwsWLEhlDFf9G4kd9r777kvDnDXx+NnPfpbOLh588MFUHmce8T7Ik8SZFuWcocaBnXGvvvrqVL59+/ZUhvzsBfm8OIOLZTItdeIMZ+3atel9ykF5LJPxOZsK+XqUMT7rwrQ8OPAizqKoB8OsQ5xtM16eC4ppYvoDBw60Sn98RsgwZaBOsS2oL+tZtV5V8u1Tt01hD8r9477mvua+JgOXPjh16lR65iAKdrB77723ePrpp4vTp0+nMrz88svpzIIHZxndiGbPmDe+/PLL4o033khnm8wzbxq9/vrr0xkmB4lnnnmm+POf/5wO9B9//HHx5JNPpnF+97vfpTOTs2fPFgsXLkxl4+Esl4PCiRMniqVLl6YDH2c4LAvR78af/vSn9D7j3X///Sn1Acrrce7cuVSH3Ndff1383//7f9NZ8f/6X//rkjNo6sxZM+vwwQcfpHXix4p1ZF05aDPNE088kebRDab5zW9+k85MqS9ojq5ar/F02qbz5s27ZF00ce5r7mvuazJw6YMrr7wyPccBgx5zOcPbv39/8f3336cysIOyc/Jgh+3G66+/ns56cpxtMP84MH322WfpGbfeemvKTJ0f4BmXaeKMjAPRddddlw6OjN8NpmG9mPdLL72UDnxVOBNm3J/+9KfFc8891yq9dD04y+IgyME2V67TF198kZ7BtKwH63DDDTe0z6DBusZB++c//3maRze9Fsc0sc2OHTuWDswT0WmbPvTQQ+nHLM4YNXHuaz9wX3Nfm60MXPrglltuSZH/xo0b0wGVHZqdfmRkpFi0aFFrrKL46quvUjMnD5pJx8OZA2d7q1atapVcxFkg84+D97XXXpuec3GAZ1mMyzQcgEBdjx8/nspJTVD2+eefp3kfPXq0VfLDNNQ7msVzcZbDgf2FF15IZ0OgKbe8HpzNcea1d+/e9Dowf8Z9//330+t82wXWIdY/mtlZ13/6p39Kw4cPH07vvfXWW+l1jvGjWRz5NKwXB7vyD1e3Z2+dtimveT/OLDVx7mvua+5rwoWTEnWj07Y6ceLE+QsHiDQOj7GxsVSGQ4cOtcvz98OFnSyVle3Zs+f8hZ2w9eoipqOMB9OsX78+lccyeA68d+GAnsqp24UDXCrft29fKuexevXqS6Zj/rzmeXR0tF1P1oXXvMeyqVuUR12wY8eO9jIp5/2q9SivM8PMP+oV8y+PxzrEdma8WH/EuCwrxsGFM7R2HRmfZ8ZF1I0ylh+fWXm9qrBtYvuMt01jPI2v0zYHn437mvsaD/e1mY/P98iRI5c8uBuq9Z7Gw81g072togl0WP8h0K24KS+2J9v2wgGu62b9Jpkpn9lUGYb9DO5rzeO+NvPwfTVXkYYCTfzI/6kwrLgWz8E/f9BM3Q2m5f6Lbu4DkAbBfU0zjS0uPRiWM8GZIu494Ga9mYqDLjeNzuR17Df3s/5zX1NTVbW4GLj0wAOqNHjuZ5JCVeDipSJJktQYBi6SJKkxDFwGiH4Jur2xbNg0ue6SpJnLwKUP6Gwp7oCPjpqwdevWSzqW6pf4y99E5PXrJK87XY4P4h8Jsd0mgqBqvMCKHkyrxOfEDYuRMwWxXcfbvoPaHhqcbj/bpvE7q9nIwGWAyPNR7h1yuo2XhTXkdSdHy+bNm9PwsCD/zHg5aOj1sxP+fXDnnXemv1BWqQuOhnF7SPA7q9nAwKUP6M6avhJ4RNfWnNFzNg/O8AkCeFAWZz4xDuX0QcDlGc6ceFBOGfJyzpyia2ymz8+0GKYMTMs8YhrEcimjlYEHwzyoQz7fqHsZd3izPkzDOHlrBcvhGSyL93nkZ3pRL5aXd9fNdFH3fL3ydY9xWObOnTvTo9NZJHUNUR+WS3fhVUjelj+TiXj9+vVpWM1W/mxjn+Q7xfcp31/iO8V3L8aJ8cAw33XeY5qq/TQvj/0pnxfq5s9z1IX3Y7+kXjFuzNvvrGYr/g6tLvSyreiKOrqhpstrusUO0d0179PVdXQPznjRPTZ4jy606To7yhmXcjB93r01w5QxDt1hx3yZPrr1ztchXx7TRRfced0RywPTx3h0vR3rxbLpghzlejE/ll+uF+PH8qPuyKevW/e87nViXalnXh/qHMvK69CtfHuo/6bimMRnHt/d+F7F95LvK98ZviOMQzn7IWXIv+u8x3ca5e8k82Q65pPPP77rdfPPu8Nnv2EfQMwPsfxu+Z1VU3E8iK7+42GLy4CQ/TQyqoJspoHLE5HJlvswyHKKAwcOtHu5BO+RVfWTTz5plzNu3b0bgUyvZHWN+dJEzJlb2cqVK4vLLrssnd2RoG3OnDmpPK877z3wwANpOEQHT2TD/fbbb9MwrrnmmvRMIrW898oFCxakrLLlesX4nZTXfbzLP1VIRpfXJ/8sSEJHy02cwY6nanuomeJ7wPeSDMz33ntvas3gMinfGfaB22+/vVizZk1KVDh37tw0PuK7y3eS7zTq9t8Yju99qJs/2Y3pop+6/OlPf0r7AHbt2lU8//zz6TvYC7+zmmkMXAaAH8GlS5e2Xl1EttpANtUIEnLXX399yhYb+JHm0lNeTrNx/Hgzj2hGRgyT6ZUba/Mm5qofZm7Avemmm1Kgsnjx4nTPSLnu5Pzghz0X19DJajtv3rw0nCODbn45hnUnqyz1ou5Rr3xdmc93332XhuMZrDuBEJhuvKCtSrk++TBN6/xoVAV2VfcLVG0PNRvfS4IPPlseBAgEILHP8Pzqq68WTz/9dHqN06dPp2e+k3ETe93+W6du/mNjY8Vf/vKXVBcyPXMZiMtHZHJ+6aWX0v66bt26NG6Z31nNBgYuA/Duu++m1owcZ3T8OHL2Q2BQ1S31o48+mtLPc6bFeBzISC2fl3N2NjIyksZnHpzFMS7X3BcuXJjKKeMAx/g8Tp48Wdxyyy3pPa5/Mz4Hwrvuuqt9Zsf8OWCW6868mD5HgMM0GzdurDyA0hJDXVgOD+rLujMv1inqFdf0cd999xUPP/xwGo+z3cC6cybL+JwRx8E9Wko63eMS8vownxwtQbQ6Vam6X6Bqe6jZ+EwJDuJ7SesjAQf7DPsDZewncR8JDh48mL6rvMe+hrr9t07d/Lds2dJu/WG/vuKKK9rHC8p4rF69Or0u8zur2cAu/3sw0a7I4y+/Tc3Gmq/3RLfBsJrIZzPTtsGwGfbtS+CwYcOGSy4FDzu/s2oqvrt2+a+ejY6Otpu1hxHBR/nRDZrUy/cldGPYt4dU5ndWM4ktLj2YrWctXMfnmn7V5a0mm+h6zdTtMSxsHeg/v7NqqqoWFwOXHnhAlQbP/UxSqApcvFQkSZIaw8BFkiQ1hoHLFKHb77hxNLq270U+Df9qyJ/rcDMef8uUdKmq/TH2Fx55vz70V0T/QZTnf7+vKu92P+eeE/Zfb5iVemfgMgTozyQ/UFbplByRg2DeJ0qgI60XXnih9UpSJ/zFmc7a6OBt/vz5KTDBb3/729SbLuX0YjteeRn7Jvtojt56Md5+L+nHDFymSDkRIwczzrjoYOr+++8vnnnmmTQeZ26cweVnY3E2RxnTRUdV8cy/Bej5VlJ3yvsj6OmWztpy7G/0qhsdyZE6gg4S68qr5vvss8+Om8lcUvf8V1EP+vlvB5qSObjRiRXDdIlPrpLXX3+9HbDQDP3RRx+lg+lElk2gQ6+enXrvlIbNdP+riKCEkwlaUrjcQw+4tMSA16SgYN+tKu+2I0PGJzt69LorqZr/KhoiHPhoMaHFhdw5dP/NGRsJ1gg4eJAmIJqUexWtNAYtUve43EP3+xGQlHOKRd6suvJuRKvpPffc0yqR1AsDl2lCwrR33nknnXHRwkKrCsEMCf84aPLgvWhu7qTqHhcyQlNeTrgmqRr7IS2eJDiMS0Z02EYSxdiP6GmZpJ115VXYN/N7XJh227ZtqcVFUu8MXKbJv/zLv6Tm6Ghd4XJR5D6JMhK5RYtJnhyxrO4eFw6+kVZfUj32q9/85jfFt99+205wGJds//znP6fEqOx/ZIAmaWen8rKqe1y4LOxJhTQx3uPSg35ee+fAGM3R4F8MXBrqJ5bRtGRw0nTf4zIVyvfOSKrmPS5DhGvc0bLCXyIHcZMeZ4E2R0vDh0vAXD4igJHUG1tcetDEM0EOjLa4qElmQ4sL4lKRN9BL9apaXAxcejBbDqjSdHI/kxSqAhcvFUmSpMYwcJEkSY1h4CJJkhrDwGUa8Y+i/LmqI7nJiAy1Mf86/BW7XJfxppmoycw3/wdGuZ70FEyKBP+loYkab38Z1D4B+oxh+Z1wM2/e9wvf94liXVjXTsssbw+G41hB3zU86hJL5sod8FXJ1z/q1q3x1qMfJvPZV60/n2M382ScTuPFusdnNVsYuAwRuvenu/Fe8IWNjrLGUxcYkSyuCf1JdMqQTU/BDzzwQOuV1Cx0iTBeniM6scs7siMpZL90E1wgjhXkcXrjjTeKhx9+eNwfTI5p46Uu6Wb9m6pq/fkn2XjH3Niu9vXzYwYu06ic5fmRRx5J3YhHhE1AEhF3HnXTusCOzuPcuXPpOR838hRFhtqYfzdZpMt1IjCKZXGGFfNmp+J1LJsDH69ZPs8RIHEwjHqRlykOjkxPWWA4dlSWEfN65ZVX2mWgjHmX6ylNVnl/qfvuIv+OxokD38sYn/0ixq/6Ppf3nzhrBv+iYJjxY1/isXPnzvSIfYHxkNeT8aM++TLi/cA6sq6sM6p69y1vjzJ+fB977LF2X1HUMdYz1p+6cEzj2Bb1ov5R11jnfP1zVfME84p1q+qrinnxHg/Gi21W3u512y4v7/a4FXWKaaKsvP7I5xN15TXTx3Yo/x7E94hHrE98hvFZzSb8HVpdGPS2OnTo0PmxsbHWq/PnV6xY0Ro6f3716tXpfeTjLFy4MD1TFu/v2bPn/NmzZ9NwN/L5lW3ZsuWSeoyOjp4/ceJEWhbLjuXkyz958mS7XuvXr0/zAONGeXldY/p9+/ZdUs7ymB/G2/4sJ+qg5hqWY1Ldd5fvaL5PxH7AuDE+30P2k7rvM+/n+08+LevPtMiXlY+D2E7lcuZbtYx8H50Ips3XBXlZHBvAMYjth3y51CvKEds0X4d8/Kp5sj4jIyPt9dqxY8cl6w9ed3PcypeL2Ha9HrfKdWJ66ot8fUI+n3Jd43PNxykvl9+DmP9Mx/Y4cuTIJQ9bXIbYhZ0lReJE1+W8JkT0ROJ0Gw563iVxI9E4OY4iSVw/XHfdda2horjzzjuL77//Pg1zjT2Ws3///nZHd5yJXdj50/Ann3zSPqtj3PGuy5Mhe8mSJa1XRWqStoMuTYe6725dFveVK1cWl112WdoHt2/fnjJId/o+5/tPGYkYQf4j8id1QoLHqCeYb+Qo67SMfvj888/b68M24bII2+RPf/pT2n5lbB+ODRzXqlpYyqrmybbmklWs1zXXXJOey7o5btVtu16PW+U6cemadexWXtcqZB/Pv0cLFiwoTp061Xo1+xi4DCmaSNl5aF5kJ5g3b14qp8mSYQIVrn3GzkEgw3gcGDmQRvNljmmZb6+++uqr1lBRvPXWWz9K6Y8LZzTteRNkEXSBtAMc3MDy47o884jmV8QwGXY5mAR+BMpBWzeq1l/qRd13lx+0C2fIaf/jEVnct27dWtx0001pH+SSLJdeJvp9jnG4+TX2/Tp5PUE9e71swL6b74/doI7PPfdccc8996TXY2NjKbM224T7X6ouMbFN+JHmuEagN56qeS5atCitY9Q3X/dcN8etum3X63GLOnFZJ15zsplfGposvkfHjx9vvbq4bldeeWXr1UUseyLH9yYycBkitFjw5ePsIs64GI7rpSCi54yF8nhwAGGHjtdgRyrr5h6XKgRCBEgcdMmGG3XLvfrqq+1s1xzU33nnnVT+6KOPFnv37k3la9asKUZGRlI582BdmCfrF4EOZ5gcNChnGpYXZ3TrO2TILrvtttsMXjQpdd/duizud911V7t1gOn40e30fe6EH3jG37hxY7Fu3bpUtnz58kvucQl5PVkOrbDdLCNXdY9LlbjnguWwn2/btq29PbZs2dLOrM0+fcUVV6RybuDl+MQP+S233JKCCMYh0Ittmovx2c+r5slxg3WkjEfd8aCb41bdtuv1uEUZAWzUiWM064p8/SeK7xHLYrk8qE+5RYfj+09/+tPWq5nNLv97MAxdkfNjTLNh3IFPcyvNr6tWrUqvJ4IdjTOaKtGc24Q7/qkrZ8MEbRxsXnzxxXRAUbPM9i7/Z/v690OTjlv9wgksJ3f9bOkZBuwPdvnfcPwo02QYkT1NhpyJTQbNoN1cbx5m7KzRJM8/rZ555hmDFkmzBvfwcLI2G9ji0oOZeiYUl1SanEWa5mJ2XAI7A5Zms8VBUqhqcTFw6YEHVGnw3M8kharAxUtFkiSpMQxcJElSYxi4SNIF3KDO/V7c9N5Pk+1fg2mjfxDqRz2jrnWYhr/NTma50rAycJlGcYDs94FyKnV7IC2vK+NGplke9Ew53kGWv/tFx1xl/KuIOswkrGtsL4b5IYqOrfK+faZS1GciOn0/ZjJ6VaV/l4mqStKXywObQE/W9BZb1XeJ1HQGLuq7qgNplcg0y4NkbXSC1QkdZNV1kkVnTDOtzwY6wor+dVhvfoiiK3E6u2qaTtm9hwF9ANFrKp2FITqDjEcEXtGaQVneqkHgzGcT5RFIVyVPjenzzuS4CZHXMT3BKuPmSfqoH/WMuqLbzuOkmYR/FakL/d5WkSQrfyaRFg+SdIEEXJHsC1EHkm6ROIxkWzwzTSTrWrhwYTsxGeWME+WME9PwHFge41Iey4tlMC11Y5gEZOA5XjMej3iP8Ul8liuvazlpGOPHOlN35s37zIvEZZRRfx6MV65bvp2qpmeaWDZ4n/JYL8aN5ed4n/fiUZa/H9NH3di+8V4kX6tbHsNRHtsutlHVuteta3wGgfEo58F45TrG9svnwzOvQb0p4xHfG0TdAsOUIV/H+I6xXL67lMW86wzLMYk6x3ZmO7D9ka8r2zvKY1uHfF+NbRXzie8D24dEimD82DbMK5adL69bTMvnIDUd+0UkV4zHhTIDl24NelvlBygOOhzc8gMYog6Mlx8A+aGIAyDT5ge9+CHk/fjhQRxwOfjGDxqivLwM5hvjMc/JHBiZ98jISKofdeKRr0scwPNl5tuiXLf8varpWcf48WBafjCYNp9H/iMS8h8i3mfaXNVnVq4by2d71S2PR9QN1J/6Mp8oL697vq6xfObDPHOMl69DbJtyHfP1yH+MqXssK+qPvG6I6RmHzzXmy/TxPel2/xmWY1K+TXLl+sXr/DNCvq/GtmI4vvc82J4xTT7ffF519ajD9s4/W6nJ2C/KgYuXioZIrxme8yynPM+dOzcNR46QENlTeT+fZ2Q87ZSxNV8G75PoDOQmilwcExWXikhKd+FAW3z44YepvJsss8jrlquaPnK30Py+e/fulBiO+wbIZxK5UD744IOUzTdHvVhvmvCr7q+p+8zyut16662pN9+65U0mIzbrGh0Hks+k6hLSVGb3nmyW3GFCjiHSa4DLRrHuF4K/9uUhvhN8R7pFB4n5JdJdu3a1t+9ElS/Nsr0vBKvt/UmaaQxchgg3XJYzPBNU8KOHbu4bmQiuj3ebsZUDIj/i/FDHj1NZt/e45O67777i3XffTcMXzjDHzTLbSd30PL/22mtp+/IjPd6PCOtRlaE7V/WZIbLJgsCGz7FueZPJiM2PaCyTTMJVN+1OZXZv1nGQWXKnEon2+FwIMgk2ScCHuoSidfiusT0Yn32G7yHDPLZv3z5uJufxkvRV3ePC9+3UqVOtV9LMYuAyRPIDGvgRoFWDH1/KyKbKD0y/dZOxNRDYkAcoUtlXmcjNgjfeeGNqgcCWmiyzddlxy+qm50z05ZdfTj86GO9HJP6REfOpUvWZgW3INJQT/FD3uuVNNIMw+BHlxk2mI1NvVbLNbrLk9iu7N2V1WXLX95DdexiwLhFk8oiWI9adQJUynmN7cnN4foP4xVbui2J8MJ+YJ8FIfNb5+Pm8+H4QMMbyy5jHZJKsSk1jl/89sCvyi2fj/PjlLQq6FC0gnJ3HD9V0ikt/TfrHlfvZ5NH6RiBLENltECwNI7v816RwZsfZOAdEScOLVhpaHrlkJM00trj0wDNBafDczyQFW1wkSVKjGbhIkqTGMHCRJCVN+ceXZjcDlz7gXyT89bNX/OMj/vXB9PF3WDq64i+m0RcG849xo88OSYPH/hj7Xz/l+z43vU90/vnxgGPGZI4PHG/uuOOONDxeR4O9iuPjeMdJtgXHQakTA5ch8sILL6S/0PJX4wULFqS+SCTNbPTPMtG/q+eJK/nrc/R+PBH0tEuyUwy6uwOCpKrWHTpl5DgodWLg0ifsiNHhGA9el3sN5SwmWlHGw4GMHkjpN6UqI6ykwaPDwNj/wP4c+3jeesA/H2g1oSzvZI/XHBeiA8D8eBDKrS/R8sp0gWNJzDvGjY4YKWd5PEeLSz4fHnHcoZ75vPIemgkaorNAxgPTUfeYT6xX3fwZjuMg79OfDNiO+fPp06eLxYsXp2GpVwYuffLNN98UmzZtSi0m9IJKz7H0MkuuHLDD03EbvXF2i+7hz5w5kzqQ4kyKh51JSVOHH+3Y/0Baiuj1lvL80gypJih/6qmnUu/RgZ51+aHnvTwYKePHn/dj/vRSzHQRXFBGD7z0Hg1STYDyvDdk5rNhw4b2fAgWnnzyyda7RXHXXXelcvJWRQ/XsYzy8YXcUyCFBi06//mf/znu/KkL5bScRJ9P0etvPDMOPTpX8eRM4zFw6RNaUyIoiaR6HAToCp2g5ZVXXunYTX4VWlzciaXh0SnpZgQPdP727bffpmFEklOOD5yM1KlLUNkpCWoV5pMfj0h5kdc1D3ICl4miNSRHwHb77bendA90Pkmi1vHmH+vbq2hB8uRM4zFw6ROuCUdzaSTVA8kDCVo4U+rl+jMHKA5i5Z2YZURzraSpw37XKelm/HhzeSR/j8siYN/lZKROXYLKXpKggvnkxyOWP14w8Nxzz1Vme2eZ8Uw+K1JZTGT+ZVXHMbYp5eWAUCozcOkTmnVpLuXabiTVA2dfJA+kWXY8kSyPsxky+tI8W8ZB4qc//WnrlaSpEi0VcR9HGQEG723cuLFYt25dq7QoDh48mFpLeI/LLYiEoREYgBaMqgSVnZKgViWuZD4EGDEf7l3hMnYdpq27jM2yuTzGfNauXZtaZXqdf5W6e1yYN5fHpU7s8r8HE+2KnECE4KUfTaCcjXCwyg940kwy0f1sOtXVmR927gfppbV1GEzXZ9DU7aXB4btol/9TiDMZzoYeeOCBvl23/f7774sXX3yx9UqS+otj1urVq1uvphZ/bNi9e3frlVTNFpceNPFMUGoa97PZjX9q2eKiYIuLJGmoGbRoPAYukiSpMQxcJElSYxi4SJKkxjBwmUb89S9/Hkb8/bofHULRoR433Y23rvPnzx/q7aHZrdvvcRWm7abn236hjtS10zLp8I3x7F5BTWLgoo7oVCvymfRbnucl0FsweU4k9VfVSUjkIoocQlITGLhMo8gNEs+cGXEA4UFfCpG7A3lG1ziDivEpp88YzpoYjkfg72SMSxmd4ZGCgOkYjjOtOPOKB/PjQe+ePKIuPFMHxolpCUAoY56U5fWI6SKzdZ4P5bbbbkvLkJqi/D2u+q4j30/Y38Lx48dTWb4fo2q/yo8H7KuMwyOmjy738zrwCNQxz2xNPiI6r5RmAvpxURcGva22bNlyfsWKFa1X58+Pjo6eP3HixPmTJ0+ev3DAaZWeP79w4cL0XB4/H169evX5Q4cOpWHqzXzAfGJezHdsbCwNU7Zjx440TDnLBsvggX379l2yDOpx9uzZtJwYBvOMZe/Zs6dd3o2oj2avJh2Tqr7r7Cf595h9iX2qvL/GetbtV/n4vGb82Jfy/btuv+8G4zKNNKz43h85cuSShy0uQ4ZkaoH8RvSU2yk7bD5+N5lrmVckgMx78yW/EknUOGMjD8vHH3/ceucHn332WSqPMzvS0kdTM2eEkeuEfCskmuSskDwtVTlQpJmg6rvOfrJkyZLWGEVKsBr7Wr6/hk77VYwf+1A8L1iwID2j037fCa2dtMr0mrVemm4GLkOG5IqBxGpz5szpKjssB6FOmWvHw4H2qaeeSveX8Lhwttd65wc0OV84u2uPw0GbpugyAh/qwAGbg3DVvSyoK5eaouq7fu211xYHDhxojXGxC/1OAUW3+1WVXvb78j0unMxs27bNLvbVOAYuQ4aDH2dPHOzI2MrBpVN22DBe5trxEBC9/vrr7bO+aJWJLLaczUWPljEOZ5hVOZg4i4txQBr8Kt7joqar+q6TEZ6cO+zDlLMfd8pV1u1+VaWX/b7qHpe5c+f21EojDQNzFfVg0DlU4jLQ448/np5nIw7AnHVq9jJX0dShhejpp592n9PQMleRht6XX375o/t4JA0Gl6T4d5KXbdUktrj0wDPBwYsDqInWZi/3s6kVl4q6vTwlTaWqFhcDlx54QJUGz/1MUqgKXLxUJEkD4OUXaTAMXCRpAA4fPtwaGj6z/d98TV5/Lu1Fr8mzlYHLkOEvjfz1WFIz8E84WlfipnK6+KfsX//1X9P+3OuPDNPyiOH8uUosm0feykO3CigfT957771L0hDMFOV+aupMZP3Zrp0+g6lEnz/nzp1Lnzcdf1KvSAkxGZNZv/x71813drIMXIbMyy+/nDqSktRM9EDN34ufeOKJ1OcS/ad0K34A6v6e3O2Pc44O6nL//u//Xqxatar1auboNiFsk9efz56ekuNG6gceeCB9V/g3Jr2rR56rqXbzzTe3hqaGgYskTUI5meE333zTDkA4CYmWD24y5Kw4zox5jk7q4gfnkUceKY4ePdo+W2Xe+XNVJ3KxbB4M8+PG2ThpBKIVKJ5p/aGXXzquY5mx/LzzurycR7QYUX/mQxln+FXJWnmfsuhEM28FiPUtl8d2Yb68F4FZXo/xxufST54QljpTB8bhEZeG8vWnLN5n3FhPpo/l5i0z5XmGfPzYDnz+lLFd473YNmyvqE9eh1gXxPrl8wSB2e233956VS2WzbKYlmVEHXjOl53XLTCcv2Z7h6ptQxkoY57l7+yg8K8idWEqthUJ1qTZrOnHJBKakvhwZGQkJTCMxIisVyQ77ZSwtB+JRlkOSRqRJ1EkESTlLIv6Rd1IshpJIqMuoCymz+vP+DyQJ2tl3vl6RaLY8noxT+aNfL5MH/XL68H4bDNUjV8eZnnUg+mpX0wb64/y+MyzLkEm7+f1YRzKOn2O+fjMp64OsS55OdOyXETyWzCfmCfjMh514Tk+p7q6gnnyHphXlFOHWG/mG/VA7I912wYxziAw70iuGA9bXIYIkSxNf5KaK1ozuFREMsQnn3yy9c4PXfR3Sqw4WZxxr127NuU944yfs/hoAXr33XdTGg+WdcMNN7STNkbLEOW0CET5FVdc0W4FQNS/LlkrqhLFcqNynniS7XLq1KnWqx/mG6gH2+Tee+9N2+eDDz5I2yyUxy+jHyhaJtasWZPuCSG1AWL9QZoT1oHj7vbt21NeuE4JMvPtEjp9jvn4PEcd2KbhyiuvLJ599tn0OZHqIezatat4/vnnU91CtJDkdcgvFZHjKuTL3r9/f7tfLNblQrCRhql3lI+3PdFp20w1A5chwheQpk5JzUSAwA9YIOEiP2ZlE02sSBCRBxJV+DHiB4b7OMj8/PDDD6cypuNHix8bcipxSSq/PEKwRTk/glF++vTpnn+cqhLFsh2OHz/eKr04Dj/adagHgVVsH37I41JcN+LyCs/cc0Rag3z9Qd63m266Kf0AL168OF2GmcoEmSBgoY5MF8EDAQoZxymjbuvWrUvlXJr51a9+lYZ7MTo62r48xLosXLgwDefl8QyCOW7+RXwP0Ou2GSQDlyFChBzRsKTmIUCIBIuchJB9OX54cnGmG2fq3SZWrLrHpQqBAT+EtHTEmT7T/v73v0/DHGv4YYzlc9whmSvl/MhHOQHDpk2b0jTdqkoUS+JJfjAp48FNy4xTh3pwj0TUgxaR8QKCPCEs60LrCtPS+sS88vXHXXfdld5jnL179xZjY2NTmiATtMqxLLZFtEBFABPzXL16dXpNEEP9ekXgdv/996d5EWS98847Pyp/8803UxnYdm+88UYqJ7gjwEGnbcN3kvI8ABoke87tATcpDXpbTcUypGE2U/YBbnCcbQlT46bO2ZwoVv3F8cCec4cc0W00c0pqrl4ubUjqni0uPZiKM0GuKXJduZubpaSZyFZHSaGqxcXApQceUKXBcz+TFKoCFy8VSZKkxjBwkSRJjWHgIkmSGsPAZcjx98Jyp1ZTheVG3oroebNKuY78Kyr+FlkW40znekkTRR8heV4fSVPPwEU9oYOhvDfFKnSmZD8OmonoGp8M7pKmj4HLkIuMr5Fpk5YKAgNaKuipMG/Z4GywXB7j8yB/BePk40UQQitJ9IjI+2C5LD/qAPJqlFPHV9Uxlk+gE/PN61qeRpKkbvh36B4Mw980+fEn50d0Uhd1ImfEa6+9ls4IQZBCzpF8fIKU/+//+/+Ks2fPpi61afImlwl5QW688cbio48+apeTE2Mi3UsjAhRaXQhaXnjhhdQ1NkEMXWyT00OqM+x/h54/f35l/iFJ/effoWeIPPtqIDEW+UZoWclbNhDjE5Tkz2RoxXiZWCej1wyk0rCL/DKSpoeBywzB5RsCFFpWSNfei14ysXZzj0uuLgNpjtai6coyKvWKRH62GkrTx8BlhiCjJynkaTEhoyfZV7vVSybWqntcOqnLQJoja6v/1FBT0LIZrZaSpp73uPRg2K+9N9V7772XLk35TyRh2PczjwPS1PEeFw2luXPnGrSoEbgUOzY21nolaTrY4tIDz7SkwRvm/Yz7tK644govFUlTpKrFxcClBwYu0uC5n0kKVYGLl4okSVJjGLhIkqTGMHAZcnQm120CwxDjxnMd3o9EihOR9+lSlzAx5h/rITUF3286mqvrf0jS9DBwaZiJJDAkuBjEwZfu++l1V5qJ6On5zjvvLPbv398qkTQMDFyGXKcEhrRw0HEbz5wZ0h8KYtx4Pn36dLF48eI0nON95h295HITFPOO+UWwwzNlUU4vt7T8HD16tHjkkUfSMAiQIgEkD8T8Yz0kSZoMA5chR56fq666KgUEVTgrpPtxEhlu27YtlcW48cw4VUnheJ95Ry4h0EcF83vqqadSL7ngjHPLli2p/Pe//33qOZdpSRPAcmM533zzTfHiiy+2u0Pn0lDMP9ZDahJygEkaLgYuDXfNNde0hvojEiGSGfrbb79Nw1deeWUKYmjdOXjwYCqrQkZq+7fQTLJ8+fKUmyhaFSVNPwOXWaCXe1wi2SGXnebNm5eGCVg4cL/00kuTyvA8qHttpEEhj9aKFSvarYqSpp+ByyxQd49LFS4DcX/Kxo0bi3Xr1qWySOPPwfvUqVOpDA8//HC6T6bbs1Hq8dOf/rT1Shp+fN+9XCQNF3vO7cFM79Fz0OtHa8769ettdldHw7SfxY3w5tKSpoc952paff/99+nmXakJCLQPHDjQ/tedpOFgi0sPZnqLizQMhmU/454sLm9O5r4uSZNT1eJi4NIDAxdp8NzPJIWqwMVLRZIkqTEMXCRJUmMYuEiSpMYwcBlykVU5cv8MCn9Rjr9+TkTUr9ts0HZGp2Hzhz/8IXW2KGm4GbgooXO5QfVVQYBCoJIjqzTZpaVhsXnz5uLll19uvZI0rAxchlxVdmiCDFo4CAhoKaFXW15zxhiinHE5i4zWFMaLlpC8JSdaSUBZZJ0G841lROdxBCK8jnEjMKnKBk2eI3rkzZFVmuzSsQzuHGc5PMotTAxHnevWV5I0Oxi4DLm67NBkYL7iiiuKDRs2pGEeZGcmxxBBRJTzQz+RfiiYhumZ38mTJ4tjx46l18yX+W/durVYsmRJKtu0aVNaNqqyQVOHVatWpeFAVmmySzN9uOuuu9JZb518vXjE+kr9MjIy0hqSNKwMXBrouuuuS89cbvn666+Le++9N7VAfPDBB8Vnn32WyvNMzRPJIB3TML+PP/44zZ8Hy2P+n3zySbtHUZbD8iZrvACrbn2lfom8XJKGl4FLgy1atKjdasFj165dKZig/Msvv2yNVRSff/55a6hIGZ+/++67NBzPnTA/suPGMsgQzSWg66+/vj1fWkLy5ZVV3ePSyZw5cy4ZP4br1pf3vdFX/bBz58703ZI0vAxcGoyWDu59idaQ7du3p6CC8qeffrp9L0j+o37fffelrM5ceuqmtYJLPohlHDx4MF0CevTRR4u9e/emsjVr1nRsYq+6x4X5EnAwfRktL6wD9ef+mYULF6byuvU167T6hcuifM8kDS+7/O9BU7si58bWw4cPz9gMt2adnlmmcz8z3YA0XOzyXzOSWafVDwS+Y2NjrVeShpUtLj3wbEwavOnaz7ikyj/1vFQkDY+qFhcDlx4YuEiD534mKVQFLl4qkiRJjWHgIkmSGsPARZIkNYaBy5CLLMtV/Z2MJ88/NBWoI3XttMzou8W/Lms68f3je5h3dCipGQxcNDBVPebSbT/KuZekqRTfv/g+SmoOA5chF1mWIzt0nCnyyLMj5xmcX3nllVZpURw/fjyV8V7eEpKPH60fvM8BnQe5hxiHR0wfQUheBx6BOlLXyGFU1WOuJEmTxd+h1YVh2FZjY2PnDx06lIb37Nlz/uzZs+f37duXysPo6Oj5kydPnt+yZcv5FStWtEp/qD/j5+ULFy5M88nH5zXj84zVq1e3l5tPm5d3g3GZRqozVfsZ3+NevruSph7HgyNHjlzysMWlYUhy+P7776cWEPIG0VkWOYeWLFnSGqMojh07lvIJITJJ5+oyPiPGj0644nnBggXpGeQOolWG1hi62+8Wl45olbnnnntaJdL0eeihh9L30QSdUrMYuDQMSQc3b96cghMCDm6Gvfbaa4sDBw60xihSUNMpoKjL+NwNDvKffPJJulxEPcg2Xad8jwvJE7dt21bs3r27VSJNH76HfB/5XrK/9BKES5o+Bi4Nk2dHxqJFi4ply5YV119/ffuelaVLl7ZbXKrUZXzuBgd5MB1BVCdV97jMnTvXHwgNBb6HfB/x4Ycfjvt9ljQc7PK/B3ZFPnm0ED399NOppUeqMlX7GcH3hg0bUiD/3nvvpUuoMzWDutRUdvmvacclKS4fEcBI04XvH99DWixBy4tBi9QMtrj0wBaX/ohLRd1entLsMhX7md9BqRmqWlwMXHpg4CINnvuZpFAVuHipSJIkNYaBiyRJagwDlwbi3xB5MsOqnECTEfPm0ekmWuqRP9O3S55WoAr3Fgzy79Dd1l2zW6fvCSkz4jsN/nFECgy6G6DTxbJ8/G6/f+yvTBPpNiR1z8BlBli7du3Ak8V1ExzRm+54/8ygX5de8hexTPrXsHdTTQWC6r1797ZeXfTb3/62+OCDD1Knj3S+SCATqsYvq9p3TDYqTZyBSwPlyQw5Yzt69GjxyCOPpOG811yeec2ZH88EAJzl8YgDaUxDWZxNxrwjwSOqOpOjHvlznGmCG6ryBI3UhQP4zp070yOWxXMsP84+qRsH9Kjvr371q9TxXVVdY90Yn/er6i6V1X1P1q9fX2zZsqX16mLQccMNN7T/fURqDfp7CeXxq+ZrslGp//hXkbowrNuqnHjxwsE0De/YsSO95r1IpAje5z1e5+UkPyQB40SRpJEH2FYnTpxIw3l5PlyX7JH6xjiRlLGuruV1U/NN137G9ym+d5G0lO9XnsA0/25Wjd+t+F5L6ozjQSRXjIctLjMMLQ9vvPFGGn711VeLW265JQ1zjT4SJt56663FuXPnUnM1+Y7uvffe1IpBc3h+NjlZkR6gTl2yRzoFo1WGFhd62V21alXHuubrJk0ErXwbN24sVq5c2Sq5aM6cOa2hiw4fPpye68bvBq04tFKabFSaGAOXGYgEinEJJn7Qv/zyy/QMsktfdtllKUCgGTySLe7atSs1cVepuk4/WSyrKtnjRx99VDz22GPpNeUEQL3UVerVa6+9VnzzzTftwJjLr+xDfPcYjsuvJDMlqWnd+FXK+w7zNNmoNHEGLjPAww8/nM7g4h4RzgKfeeaZS87oRkZG2veMcIPh8uXLU1DDdJTx2L59+yXX+3P9uk7PcuMel7pkj//jf/yP4rnnnmuX04rUS12lXnFTOcF9BMYEyWQ/x5///OeUuJQTAZKZktS00/hlJhuV+uu/XXi0LiNpPE3p0ZMDIgfaaGXhBtYmJTbkBl9aU/LAZsuWLeNeetLMMBt6zm3aPilNF3vOnQVodeHyC03RTTU2NpYO6tHawlmuQYtmEloLuXzUqa8XSdVscenBbDgTlKbbbNnP4lKRiR6lelUtLgYuPTBwkQbP/UxSqApcvFQkSZIaw8BFkiQ1hoGLJElqDAOXIUd/J/S/ImmwIqMz/2arUlfeD/wbMPJ81eFm3rzvF3qMnijWhXXttMzy9mB4/vz56XXkDJtMp5Qx/4noV4eY5W0aSKTJOkbfWIOQr383n4d+YOAy5OjU6uWXX269kjQT8bf/XjOr571hT1a3gUD0Xk2m7F//+tfFk08+2XpnavUrI355mwa6k3jhhRfS56LhY+AiSRdERufIds4POWfCPGj1zH/YI6UG78VZOT/+MT4/eDF+Pu4rr7ySyji7pozxorUlzrb5FwXDjM84zJdHObM64yGvZ95KkC8j3g+sI+saaTOqevctb49OqAv14lFXH8S2oE7Hjx9vlf6wLsi3BevN+MyLaWgdYX55RvzQaX0ZL+bDgzpWbVOU55/XgWdeg9fRYsJzLI+6Rx0YP9YFdetf/jw0Pv4OrS5M17YaGRlpDUkz37Ack8iiHtmfIzs56rKaM26MT/ZnsqMzbp45enR09PzJkyd/lNU8n5b1j8zq+bLycRDbqVzOfKuWQT0omyim5VjEfFgPnlkO8jrX1ae8LVivqE/+mefTs5wYh+kjo3bVuvC6an3js4tyMubHfMp1Dfn882HWg3khL+eZ12B++fcj1q3T+qse2y+yQsfDFpcGeOKJJ1KULmnqkNMrzoDJlRX3lNRlNSdHGMlL2VfJpUVmacZdsmRJmg5cYokO5zplNY+eosmL9O2336bhOiR+zM/Ume+ZM2faw3XLmIj8UhHPeed5Uee6+pS3xXXXXdcaqsd2jtQfbAsSr3ZStb58Nnn5FVdcUXlfS539+/e368D6Xghe0nAnVes2kfVXNQOXBqApM3KaRNOkpMEi1cTnn3+ehrm0EPeU8KN84Ww57ZM8Iqv51q1bi5tuuin9qC9evDhdeiGTND/kgaCmmx/NGIebROfNm5eG6+T1BPWkPr3g8kdc2pqsuvqwLfLLI/kwSWBj+efOnUvPGB0dbR/z2BYT+aMCmeWpQ8z/9OnTPfVWTB3i8hCfy8KFC9Mwn8t3332XhuO5k07rr94YuDQAEX6cLdx2220GL9IUePTRR4u9e/emVpU1a9akH1fUZTW/66670k2jlDHd2NhYaiXgh5yAhXKSn3bzo0nQw/gbN24s1q1bl8ryzOq5vJ4shzxfvfwwo1/Z31FXH7YFP/qxLXK0Kt94443p3o/cq6++mu41YXxumF21alUqL2fE74RjZ+Q+47Fr165i06ZN6b26bZqjDvfff3+aloD1nXfeSeX33Xdfqgd1pjVlPJ3WX72xy/8ecAPZdGyrWC5nDBxAX3zxxb42/0rDZLr2s2Ex29d/ui1c+f9aQ1Pj5Gv/vTWkKuwP5S7/DVx6MB0HFM4oOEOgSTqaj3s9m5KaxMDFwEUKBi6TNB0HFK6tcjOZLSyaLfzh1nSyxWW4GLhMkgdUafDczySFqsDFm3MlSVJjGLhIkqTGMHAZcnQXnXcnXTbIv9VxY3DeXXUVbhjO+6Wgo6eJYl1Y107LLG8Phoc98RtNnYFh6siDbZWva6xTPGtw+G5P9rsiaXoYuKgW/ROY+K173SZ+i47LPvroo9QJ1XjBofov+gvpR6I+SVPLwGXI0UtnnuiMH/I4YzfxW2fUhXrxqKsPYltQp7w3y7ylJN8WrDfjMy+mocWJ+VUlfuuEf4rRuRjbD7FO3aybJM1m/KtIXRiGbWXit0sx7TAnfkM+n3w4VJXNZlO1PfLPWtJw4nhAYsX8YYtLw5j47ceGPfFbJ7TeXAiiWq80lR566KHUusVnIKk5DFwaxsRvEzNsid/AvLkc9sADD7RKNJV2796d8t9EcCupGQxcGsbEbxMzTInfmI4H86aFZ7wboDUYBOJz585tvZLUFPac2wNu1pyt22o2r7um1lR91wgeN2zY0A76JQ0fjgf2nCtp1uNSH5fqFi1a1CqR1BS2uPTAVgdp8KZiP4v7tXq9fClpalW1uBi49MDARRo89zNJoSpw8VKRJElqDAMXSZLUGAYukiSpMQxchgj9f/AXzX51uibpIvrp6TaHlKThZuAyRKKjMzPWSv31wgsvFLt27Wq9ktRkBi6SJKkxDFyGzHg5gCT1juSikmYGA5chY8Zaqf8ikWI5p5ak5jFwGTJmrJX6j55yuel98+bNrRJJTWXgMmTMWCv135kzZ4rLL7+89UpSkxm4SJKkxjBwGSJmrJUGg0uwS5Ysab2S1GQmWezBoJO/mbFWGsx+xknBL37xi9YrSU1RlWTRwKUHZq2VBs/9TFKoCly8VCRJkhrDwEWSJDWGgYskSWoMA5dpRCbo+fPnt15JkqTxGLhMo7/97W/FDTfc0HolSZLGY+AiSZIaw8BFkiQ1hoGLJElqDAOXIULvnpIkqZ6ByxC57bbbDF4kSerAwGVIkFxx6dKlJliUJKkDA5dp9Mc//rH48ssv0/C5c+eKZ555prj88svTa0mS9GMmWexBv5O/xWUhs9ZKPzDJoqRQlWTRwKUHHlClwXM/kxSqAhcvFUmSpMYwcJEkSY1h4DJF/vrXv6akivx7SJIkTYyByxS5++670/MXX3yRniVJUu8MXCRJUmMYuEyhefPmtYYkSdJEGLhMoYceeqj43e9+V3z66aetEkmS1AsDlym0e/fuYtu2bcVPfvKTVokkSeqFgcsU+sc//lHMnTu39UqSJPXKwEWSJDWGgcsUIS8RfbiY/VmSpIkzV1EPJpNDhctEuOqqq9KzpGrmKpIUqnIVGbj0wAOqNHjuZ5JCVeDipSJJktQYBi6SJKkxDFwkSVJjGLgMyM9+9rOUEVqSJPWPgcuAvPDCC8WuXbtaryRJUj8YuEiSpMYwcBmQOXPmtIYkSVK/GLgMSCRS/MMf/pCeJUnS5Bm4DAg95dLF/+bNm1slkiRpsgxcBuTMmTPF5Zdf3nolSZL6wcBFkiQ1hoHLgOzevbtYsmRJ65UkSeoHkyz2oJfkb3//+9+LX/ziF61XkrplkkVJwSSLU8igRZKk/jNwkSRJjWHgIkmSGsPApaE+/fTT1FeMpMFyX5OGi4FLH3AjLjcQxePqq6++JDP0e++9l7JFx/sPPvhg6pwOPPM63mM8DpR//OMf22X5IyxevLj4P//n/7Re9RfLYfkTwfqwPWL9pH5yX/uB+5pmKwOXPlq9enVx6NChYunSpcVvfvObdJbGgeV//s//WSxcuDC9t2fPnnSg/eUvf5mm+fDDD4uXX345lfM+OFAuX748vWaeYDjejwP1smXL0vMw+eKLL4qbb745PUuD4r7mvqbZy8CljxYsWJD+TXTPPfek1/SeS38uePHFF9N7d999d/HSSy8VH3/8cTrbmzt3bnr/3XffLb777rvi2LFjxddff11cddVVaXzmCYbjn0qMGwdZztbmz5/fPpPkIB3N2rzmrJL3wUGYM9QoZ/lgfKajnPrl8jPCODMFZ3mMy2vmT04mfjg4kIJnXrOMWCbPnBFLk+W+5r6m2cvApY+++uqrdACJA+g//dM/pQPV2NjYJd3/X3HFFen5+++/T2dynAGePHkynS1yYIqDVxUOYm+88UZx1113tUqK4ptvvkkHcOZx9OjR4rXXXmu9U6Tl/tu//VuqB2emK1asKM6ePZvOSu+44440zvPPP198+eWXafr77rsvlY3nySefLD744IPixIkTxbPPPls888wzKSN2nKnyzMH/zTffbL/etm1b+sGQJst9zX1Ns5eBSx/RDM3ZD2dbHCA5k+Oxf//+dBAMp0+fTs8cfDjIcXDl7I+DGU3fa9euTeVV3n777XQgjOzTgQMXy7rhhhuKTz75pFVapN57eY8zUtx6663pAHvdddel5YFlcYbG9N02iTMNy6Ieq1atSh2GlesEDvqjo6Npu/z2t78tzp0713pHmjj3Nfc1zV4GLn20ZcuWdFCh+TmagaMpe82aNekMkQMtTc0cYDj4cN09DsAc8KKpuc6rr75aPPbYY61XP2DeHOA4C7z++utbpT/gjBSHDx9OB/bjx4+ngzI4iHIWyPSvvPJKKsvF2e1bb73VKvlhGpqnqTvN09Ecjjjb4/r77bffnrYLPxTr1q1L5dJkuK+5r2l2u/A9VzfqttWhQ4fSexcOpq2SS+3bt+/8hYNnGofH6tWrz589eza9xzOvR0ZG0nsXDnDnL5xBpvfAPGO5F87a0jDPId4fGxtrP8e8eZ3Xifkyf8qpz4kTJ1I584vy9evXXzJdzJ/3V6xYkYbBMuI1dWe6KI+6sF14xLwZL183qUp8x6q4r7mvaXbh+3zkyJFLHuYq6gFnOsO2rRau/H+toeY4+dp/bw1JPzaM+xnc16Spx/GgnKvIwKUHw3hA5eZCrtP7GWqmGNbAxX1NmnoGLpM0jAdUzwI10wxr4OK+Jk09A5dJGtYDqjSTuJ9JClWBi/8qkiRJjWHgMkD8FZK/PUqSpP4wcOkD+l3gxj0eDIetW7emvh76LXKvTERevyqxDuMtg34k8q7MpWFRtz82Xbfr5b6pmc7AZYDoprucj2S60QFXr6oOkvRQeuedd1b24ClparhvajYycOkDesr8+c9/nh7RayYHFM56wBkSAQwPykiShhiHcnrE5NISLR08KKcMeTk9gfIaTJ+3jDAcBzKmZR4xDWK5lHE2xoNhHtSB+cY6/O53v0vj4rbbbvPsTY1RtT9ygx/ffx75/hT7Athnoqy8j7IPxXux/+X7WF7OcIzP+5HssGr+YDjmE/t81b5ZtV7um5qt+FeRutDLtqKHTnqyBD1i0vNliJ40o6fL6H2T8fLeN3mPnjbpKTPKGZdyMD09ZwaGKWMces6M+TJ99KKZr0O+PKaL3j27wXT2zKlBGMQxiXnG95v9YceOHWmY/Yv9EbH/gO82+095H41pYz+McsZnnwfzifnn+2jV/OnpNz82xDzdN6WL2HfpLTd/2OIyICRyI+FaINFaoBmXbLUg4Vpksz1w4EA6mwq8R04VErlFOeNS3gk5S0jKFvPdvHlzOmsrW7lyZXHZZZels73t27enRHTd4Kxw586dxS233NIqkYZfXDphfyIPEa0ZtIx8/PHHqfyll14q3n///bQ/HDx4sL3/5PsoiRNJXsg+lpeTvDG/Ef+aa65pDf2gav6fffZZWn60rpB7iXm7b0r1DFwGgIMHSc5yJE8LJFCrOhCRsO3zzz9vvSpSYjWahPNymowpB/OI5mnE8KJFi9JNwfGapuhogs5x8/BNN92UgqzFixenbLhV4vJTIAi6cJaYktZJTUMW56eeeqr429/+lh5btmxJ5QQxBPnsDwQQ8b2P/Q0EHgQU7GOUxz5GFmqSIXZSNX9OSNiXoi4EN+zz7ptSPQOXAXj33XfTGVMusthyBkVQU3Xj3KOPPlrs3bs3nXkx3tNPP50Ohnk5mW9HRkbS+MyDszbG5aC4sJWBljIOgHEWd/LkyfYZ2Pr169P4XBcnDT5dmDMO8x8bG0vjlFVdR+fgferUqdYrqTnYN19//fX2/sF3GdzXFWUgOAH7W9yzQmvN8uXL0z7G/hnj79q1q9i0aVMav07V/KNVNsppiWGfd9+U6tlzbg8m2qMnN+fi8ccfT88zwUxcJw2HYeo5lxYNAhRaQ5rCfVMziT3nqm+uvfbadE+OHexJw8V9UzOdLS49GKYzwWFAEzU3JcYNilI/uJ9NnvumZoqqFhcDlx54QJUGz/1MUqgKXLxUJEmSGsPARZIkNYaBiyRJagwDlwGJvhriuV+46S46veKvmvz1kUe5I6oc00TfLdJsVN4f2YcY5sG+EfmEEGXlfYZp6M8l/m6M8nzr0AEk85M0eQYuDUOnVHQJXicPbILZYqVLvfbaa8Wvf/3r1D/LG2+8UWzcuDGVv/LKK6kDOHqsfeGFF4r7778/lbNfEZxE54912PeqThDooI75SZo8A5cBiezK8cxZGj3nRu+5Vdlh83IOgIzLwZIHB0PO2ujK/5FHHknDVdlin3322druwaXZqrw/0jnbqlWr0nDuP/7jP4p77rknDdOrbeQxIugnmCFXUa48X7r+p4t+SYNj4DIgBB35cyDg4AD4wQcfpGCESzx0I04Zj2+++SaNE60qf/nLX1L3/f/5n/+Z5kXyRM7cGObMkIMrj8iTwrRVB+Qrr7yyNSTNPnX7I0iDQe4ifPvtt+k51HW1H8rzJcAhvUeVOLmQNDkGLlOoKkP04cOHU9K3sGDBgpRnhGDk9ttvT7mJSJo2d+7c1hi9IZAxW6z0Y9GqyX62bNmyVDZv3rz0HLjMOlnRihonF5Imx8BlClVliKZ77uPHj7dKL45D6wgBB3gmBT/5UrpRvseFA7PZYqVLsY/ce++9xX333XdJKwyXeXbv3p2GaQ0dHR1Nw92quseFjNCU2wW/1B8GLlOoKkM0Z3pkdY57XLj5j3FoISHLNPe3cENuXEN/+OGH03AENmVV97iYLVa6FC2ZX375ZbFt27b2fWTgMisBBvsi95Jx0tCLuntc6Hr/zJkzrVeSJsMu/3swma7IpzNj63QuW+rVTOzyn8Bow4YN6RKwpO7Z5f8sZbZYaXpdf/317UtQkibHFpceNPlMkOvuZotVE8zEFhdwz4wtLlJvqlpcDFx6MFMPqNIwcT+TFKoCFy8VSZKkxjBwkSRJjWHgMkWqEiKW+1yZjKr5V+F9/urJ36m7nWaiJjNfbiT2ZuIfbwf+nRKfG9+f/K+86t543/1B7RPg8+zmM8uXz/5KnSYiljXeMnk/tku85ljB89VXX13bBUM38vn2qqpvnF7Urfd426NskN+JQSF5aBzv67Be+WfeaR1jm/W67frNwGUajZcwsYydN+8sazx1gVGkDBhm9EUzTDmXet32/dJpO9APEEkC1Sz0oNvN53bzzTe3hi52JNmv7gx6CQQ4VlDXjz76KP2dezpOJjhGcqxU7+inqAnH+14ZuEyRckJEIuA8YSIHE75cRLJEyJFmnwMMZaTTJ1PtM888c8m4PBhnIgkXy9MQabNslhXzjsCHG6Toujy6L69KDIkop355j8BMH/IIn7ozPstiGg6MlJGmgEc+bzAfpmV8zgLJ5st0+Rlh3bZkurw86gCWUy6v2vZgOVHnqF++7eK9WB51Y14or29s31gOz7xPnau2A50PxuemiavaX+q+u1WfN+I7wyO+e+XPN37oeR2fL98VnhHfER5MF/OPZ8ZjnowX38u8Pjw6fYfQbSLIbr9bUeeoW119opxx87+CM06c1efbguliHvk4HCM5VsZ4gWXHuCwntnX+GcQ2Qz5/tlPUE/HZ8158lohy1iH/TgTGjXnGZ5Z/VsiPfflyOHahbr3L5awXqpaZbwvqyrSMl//G8F7Vdq/Cd4dtFBimrPxdmk78q0hd6Pe2GhsbO3/o0KE0vG/fvvN79uxJwydPnkzvYcuWLe1xGGYcXq9YseL82bNn07hM2618fmWUL1y4MM0X69evP79jx440zLqfOHEiDTNe1A+rV69O9aIeeTl1jGXl24468MDo6Gh7HKZnXsjHyeX1oH48kG+zTtuSOoWoE+PEfMA2AONH3RhmnmybfBtRX5ZX3nasV3wuTBfrQnnUn/JYLnWMbZ1vX6aLaevk23wm6Pd+1o26727d5w3K+e4gPru673Onzzf/Tubfj6p9plwfvkPjLWOimJ768MwyY955nevqw+uRkZF2OdPG95j5xTbK68m+EOPEfFG3Loyb70sxbf4Z8P548+dzyj+DWJ+670QuXxfqwHQsI5aD+BzL86Oeceypqhflsc0Zj/Ex3jJ5L7ZLPm4+zHPUJZ82Hyf/XGPZ04Htd+TIkUsetrgMiX/+539OXfwTLeetJJz9EN0S8RLxkwqgXwkYq9A6EH29kML/3LlzaRhcmkBdYsjPPvvskvI8qWSdjz/+uN23BekPyIQ9nqgHqQx4IE9gV7ctUVUn5nHhwJDGz8+UqrY9zdakbiDPDWcsZPlmvZFvO57jc6H/nMD60uzNtH/6059SZvBwzTXXtIY01eq+u50+7127dhXPP/98OoMOnb7PdZ9vVfLVOtQn/57x3cov3/T7OxSXikiPkGedz7dPVX0oJ5N9lHdTL/aFaO1hOpbZCTndaFVm/zx48GCr9NLPII4VKM+feoPPk2n4fHnweVP/bo5nfL7vv/9++g5Qh1jfKuX5HTt2LB236tabclJOUCfWkTqiapkrV65MxzHKtm/fnvLgTdZjjz2Wjp+01vC9HCYGLkOCHfChhx5KX5ILUW+rtEhf0HfeeSd9WXmPLynP4LlTAkaaD/Pm0G7kBwuWHYFBri4xZLk8HyYHU9QlD4YuRPLt5sty8+RE1W3LOuycHJQYnwNAqNr2ixYtSgdkDuY8+PGKg043qM9f/vKXNO0bb7zR1yZXfjDyHzF1r+67W/d5s2/x/eC7wQ/QunXr0vgT+T5XJV+tQ33YR2Nf4rJPr1mnmTYuO0xWXX3K5Z9//nl6Bhm4v/vuuzQcz6B3YU6KwHQRWNRh27Jf8hnkAQqfQaxfvp7MP+rB/ONYx+fJCWB8xsyPS2adjmeBOpBEk+8AAQ+fPcfMOMbF+iN6MA8EGeyvdetNkPPUU0+167Vly5ZUXrXMrVu3FjfddFMq4zJg1S0Cddu9zvLly4vnnnsunQQyPEwMXKZRnjCRLLVci+SsP0+l/y//8i/p/oo4G6BFoC4BY9l497hUIcBgx2DeRPxVX9i6xJB5OdPnnnjiieLGG29M4+UIvFhvxudGsjirY7lV97h0o25b1mF78oNBHTgAsD6o2vYEL2zvKOPsJu6R6AYHnzh7ZzvnrTFVetkOZABnnupd3Xe37vOOH8ooX716dXpd933uhB8fvqssO5KvYv369aks//GlPpyoxHIJpDZt2tR6tzt197hMRF19yuX5OrB/cuxjnaP1Co8++mj6YWd89pE4IaP1hB90ynMcU9g+zCdPIstnEPvtm2++2Sq9OP+9e/emclqrYz+P1hnKedCKQfDV6XgW8u8GCNg4nnBSQhnHEwIpMD+ClJgfnzXLqVtvTqJef/319vzjJLJqmXfddVe7JZd1rDphq9vucYzhdyh+k/i8+Ayp47fffttzcDxo3DXUuoyk8XCT1VRvK76IRNth/vz56UA3Ufz4coYRO2uOyJ2dJl/ebNbvbT8oUU/O8DkgNT2Z5nTsZ9MlLk2aALV5Fq78f62h2ePka/+9NTR1OB6Ue841cOnBdBxQiYI5iwFNfdzbQsQ8URwoaZq+5557fhS8GLhcqt/bvt9oZqZFjbM1PjM+v6qAtGkMXKTpFy060/17YOAySTPhgMqP3ZkzZ1Jz97A1/6k3NJ9zEyH3ROTX+JtuNgUuai5bXKaGgcskeUCVBs/9TFKoCly8OVeSJDWGgYskSWoMAxdJktQYBi5ThH988A8CHgw3VdxpHs9V6taVvxNHfo4qddsm5jdTddqWnXBzbt4/RjefzWxF3xn8S0xS8xm4aFLKP551+NHgr8T0xKj+4B9FZs3tDl3Xx1/bJTWbgcsUiayrPBjmB58fcs6OecSPP3dQh2i1AOPQKyrT0CU05bzmTDJ6S6VlIl5H74yMF9PEMniO5TJedBMfy+CZnlrzM1Smp870qoh4ruqFs7yuoKff//2//3fqiTEPdCJbKnXMu9Rm2VGeZ5bNMW2sQ7lFJrZFvo1DzDvWE7yO7cA0sU2pK69zTMf7lDNdbKfY1rzPdPlyeLD9wHtRnteb4fx1fBeYLubBI1ql6KE1z5pb/mwkaabi79DqQj+3FRk4yTZK9k0yf0bG2XwZ5aydkSmUcfNsnWTxBPNkOM/oGfPNs6fyXJVVNV9Gno2UcSMD7UTk86I+Ma9yttTIvkr9R2oyywbmSfbUENsglLcFy4l55+XUhXqwjFh3xo36UsY2yuXbKeoK6sg6oLwc5hHrzbypC/LstUyfr2d8F+qyxzKPfPvNFIM4JuXbWVJzcDwgI3T+sMVlmtDDaa8ZniPDKuOSRyLkycgYjvd4rspQXJdVFbEMOqe78AOZWge4L4WedieK3l2/+eab1DJA/hZaImhFqMu+2k1m2bqMzrl8WwTmTbf95Wy/5Bchxwnd5v/6179OLUMMU8Z7ZVEn5k9dw3hZc1GXvbZOr1lz9WOxnbvJ+SRpuBm4TJO4vMAzP46RWIvEX3FJIc+i3E8ELCy3nFW1jKRcBC1kHK3rSp66Etx0QgKvjz76KHUdzYOEdCQE7JSRty6zbKjL6Dwe5l2V7Td6ESapGYEKScsYJngrBz/gEhmoI5drysrrkGfxHa3JXluXVbbXrLlgvvk8ZjuCRrYHWXUlNZuByzThx7Eqw3NdFuV+qsuqWkY2U1ok7rzzzlbJj42XaZb7Mfihzn/8CQoIGDpl5CWQo4xHVWDE9qvK6Dwe5s22jnnn2Z3JKEtrCAEGAR3DtIpVoaUq7mchACwrrwPrG1l867LXsk5VWWV7zZoLWtRee+211iuR5qIqAJXUPHb534PZ2BU5Z/cEL+Y1+gGBwoYNG4Y6oSGXRG699dahrmOdQexnBNAmEJWaxy7/1TVaOWgJeeCBBwxaGqipQcug8M+0/H4qSc1li0sPZmOLizTVBtXiYiAnNY8tLpJmJYMWaeYwcJEkSY1h4CJJkhrDwEWSJDWGgcsU4ebAyEUTuWaGQbmjMm6E4u++PPhXUVUfKp1U9SmS4/3YFnWib5LopE/qBd8bvj92wCfNTAYusxyd39E9fS56laWTNHrOHaSqHl6jPoPshE8zV3xvyt9rSTODgcsUqcqYTOsGHYXxiFaGeERLR15OV/20goBWC8oCw9GSwxln9EYbuVmYT/T0yoP5Mx7d1ZNluK51Y8GCBemZ8WOeeUtMuX4RhDBO5ObhOepNr7WxLUAPr3TfL0lSt+jHRV3o97ZifpGlmQzAkXE4z6acl3fKDMxwp+zHvFeVjTqmC9SJMh5kPY765eMxfdSjLnMx2ZAje3NVhuVOWE5kUtbs04/9LDKNS2o2jgd5ZmgetrhMs0hySAZgcthEywV5cqI8z0Q8XoK9uuzH9GPRbTbquFREHe64445Utn///nZfGPSkS2ZmlDMXR/1o3SHvDuoyLFehJYdWmclko5Yeeuih9D2KlkFJM4eBy5CgO/KnnnqqHTRs2bIllZMZOM9ETMZhzJkzp31ZBjFcl/04LgXxnGej7oRsxeBST57RmNckRwT1i+zNef1AgMSlKi4T1SW4Y575ehDIbdu2LXXRLk0U3x++R52yn0tqJrv870G/uyLP58ePN60h3377bXr961//uli1alUqp/UE8+bNSy0dx44dS69pUeF9AgNaWTjLpFWE4ISABUzzzDPPpCAknz9no7SKvPfee8XDDz+cAhleU6exsbE0DkHIY489lupBgMHNugQgLJPghx+FTvWLAOfQoUO1PZeyTLJLs4zAvTomxJu9+rGfsW8MeyJMSePjeFDu8t/ApQf9DlwmggNyU37QCVyWLl16SStMNwxcZjcDF0mhKnDxUpEGglYfLhXRXN8r/nVES078S0rqBd8bvj9cNpU089ji0oNhaHGZLWitATcCa3aZ7H7md0eaOapaXAxcemDgIg2e+5mkUBW4eKlIkiQ1hoGLJElqDAOXacQ/H/LnsrryfqCTu/FufuVegbhfgOeJ1ofldJNgMt6P5TA8f/789Jq/fPPMTZcTNZntWe5vJoy3DXP5ug0C869LXtnrcmP8mOd4n50kTRUDl1nqpZdeGvevouQQijxC3OjYz78n1wUCZdGZHn3D0LfNk08+2XpnalUlo8TNN9/cGpIkTQUDl2lEJ3D5Mz/m0bKQnznzA09ZPBgPPEcZHblFIBC91VIe2Z2ZH+PE9DzHGTQ3P/E+ZUzH+zx27tyZHswvby3I68P40Ssv4/A6lhPjVyWYrEquGO/H9qiTL4dl19UnL88TQObrAoZjWzAt84hpoqwqGWUksGTc2GYxLc+8LqMOzJdxeESd8uXGfHPMK6ZhvGgJi+nYFnlvw3lduvku1W2rqs9OkqYb/ypSFwa9rUisGInhSG5IYkPUJWAkuWEkOGQ6piF5YkwHxmUaxiPxXMiTJrJekUyR6WO88vxjvnk5SKzIMhiH4UjwmC9jIpiWRI/Mh/XguWo5dfWpSwCZrwuinozD8mK+TB/JIevWJf9O5OOw/FheKNc7PteoW5RHYswc6xGfEXXidbm+zCvWt9fvUt22mg4ekyQFjgckVswftrgMEZIaxuWbPMdKXQLGlStXpq78ObPevn17yl9EQkXyHgUusUR/Ftddd116rhLLW7ZsWTstQJ0DBw6kM/BAYsUzZ860h+vyEk1EfqmI51iXfDl19alLAFmHS0EsL+a7efPm1JLRrbpElLm83rfeemtx7ty52sSYuSuvvDK1UvH5Hzx4MJWV6xvJONHrd6nXbSVJ08XAZYhcOPttN93nlxnqEjBu3bq1uOmmm9KPOvl+uPRy7bXXph/ykF9W6CTGIXcROYc6yRMrgi79e72MwPrF5YjJqqtPXQLITgkquSQUr7lkk18aGk/++bE9F7YSUeaoQ8z//fffT4FnXWLMHEEGdeHepAhEmC6fX74Nev0udUqWGSjP5yVJ08HAZYhwJkwiQ86G33zzzVbpxZaV119/PZXziKzNd911V7pplLK9e/em5Ii0mPAjFPc3kCuomx5ECXoYf+PGjcW6detS2fLly9v3uOQeffTRtDzGZznkFepmGbmqe1wmqq4+eTkJJkdGRtL4/PDTqsC4BAQRYFBGYMD4PGgxueWWW9J7JKLk3ptyILN+/fo0H37Q88+PdAfvvPNOa6wfUAduMGYcWjnYxiyXecdyaT0rB4JPPPFEWg4tQKdOnUplTMe6xnR5UNHrd6luW+XIUv7Tn/609UqSpoc95/ZgpvboaU+l6gatSARqvbRCTYTfR0nBnnMlTdj3339fvPjii61XkjQ9bHHpgWeC0uC5n0kKtrhIkqRGM3CRJEmNYeAiSZIaw8BFkiQ1hoHLNKLPjPx5UPj7ap6vpldRP/L5MB8ekdunCn+b7abTO0mSemXgMgvQadnjjz/eetVfdHoWPbcGOpbrV+dykiTlDFymUTk7NC0ZBBm0cBAQ0FJCb6m8znuvjXLGpefXaE1hvGgJyTMgRysJ+GsZ84r58RzLiI7FCER4zYP5R2BSlSm43AMu9c6zSiNfZl4vMBx1rltfSZKCgcs0igR+8RzIIXPFFVcUGzZsaOeU+eabb1IeIYKIKOeHPk+g1y1SBZBAkPnRrX0kMGS+zJ8cSOS0oWzTpk1p2aAbfRL38Ygu/qnDqlWr0jCozwMPPJAeLCPEMuvk65WvryRJOQOXIRMZnOsyBlOeZxjOMwJ3K4Id5kd2YObPg+Ux/0FkCh4vwOomQ7IkSQYuQ6ouY3BkBA55RmCyOn/33XdpOJ47YX4kA4xlkGCwU1blKlX3uHTSKTNz1fryfp48UJI0uxm4DKm6jMGRETjuBcl/1O+7776UxZhLT920VnDJB7GMgwcPdsyqXKUqy3NdVml0ysxctb5mJJYk5cxV1INhzKHCja2HDx8e2L+GpttUZSTW8DBXkaRgriI1jhmJJUk5W1x64JmgNHjuZ5KCLS6SJKnRDFwkSVJjGLhIkqTGMHCZRvztN3/ul8n2fZL3zcK/liJlQHTNX4Vp+Iuzfa5IkgbJwGUGohfatWvXtl71jmmZR52qAGb//v3FnXfeOaEUBJIkdcvAZRqVkyxGqwUtMHQiRx8m5fK8VYPXdOIW5ZHb55FHHimOHj3absmpS17I3dq8julZHuMyLfNguCqx4m233WbLiiRp2vB3aHVh0NtqdHT0/KFDh9Lwvn37zq9evToNj42NtctPnjx5fuHChWmY8h07dqRh3ud1efjs2bNpfJ7BPJk3WJ8TJ06k4S1btqQH8uV1i2n37NnTeiVNnMckSYHjwZEjRy552OIyREh4GN3wL1u2LOUOApdhopwu+cnoHMZLsjhe8sJ+XNqhZYYu/m+55ZZWiSRJg2HgMkRGR0fb949w2YfLQKA8Ls1wOSfy+3SjLnnhZJTvceGyFskaP/zww1aJJEmDYeAyRF599dV0bwktI9u2bStWrVrVLr///vtTOQHCO++8k8rr0DrDv4IYvy55YSckamSauvxAVfe4XHbZZcWpU6daryRJGgy7/O+BXZHX4+/SmKnJHjV13M8kBbv818Bce+21xYEDB9r/hJIkaRBscemBZ4KdcfnoiiuuSJenpIlyP5MUqlpcDFx64AFVGjz3M0mhKnDxUpEkSWoMAxdJktQYBi6aVqYOkCT1wsBliHSbiXkiYr6gY7uJzL+cdXqi8wnM74477kjDV199dXruF/qsyZ/rsA55/iZJ0nAzcJmFSCUQKQR6Uc46PdH5BHrafeyxx9Lwl19+mZ4HpRx0hZdffrnYvHlz65UkadgZuAyRqkzM9F4bvd7mrQfcaU0LCmVVGaPphp/yqt5vGSdaSng/MkdHigHkWaOjpaacdbpuPjwIFEA9yxmoA+kHIr8R44HpqHvMJ9arbv4MU2+eeT8yZJczb58+fbpYvHhxGpYkNRt/h1YXpmNbrVixojV0MbNzZG2mLpHZmWzPMV6eMZqM0CMjI2m4KvtzvB+Zo9evX58yPJOBmuEQ2ajzrNPI55NnoGYekdk6r2deB5aRzyu2LfNjXZgX47Buneafr2+5ft2IddPw8JgkKXA8iKzQ8bDFZciRUJEWCFotyr3SRmZnMkl/++23aRiRMZqO4EiwWIdLP7wfHcZxyYRlkXeIDNQMR2tLJ8yHe1RiPnRCl9e1KgM1l4miNSTHpafbb7+9WLNmTcrLNHfu3HHnP16G7Dq00DzwwAOtV5KkJjBwGWJcJvnkk0/SZRKCinnz5rXeuSh+vLk8kr/HZRFwOYVLO3XIHM37cdmF4Ihlvf3228V1112XhleuXJne64T5cI9KzIflX3XVVWm4znPPPde+TJRjmfFMcsmnn356QvMvY9ryPS5ky965c2frlSSpCQxchli0VMR9HGUEGLy3cePGYt26da3Sojh48GD7PhFuoMXy5cvTj3QEBqAFg/cZjwetLAQTPN56661UtnXr1mJkZCSNn2edzjEfAoyYD/eubNq0qfXujxFALF26tN2CkmPZ7777bpoPNwLTKtPr/KtU3ePCfFlnSVJz2OV/D4apK/K6uvDDvmHDhkn922c6TNe2HabPVBf5mUgKHA/s8l9Dh3tNVq9e3Xo1tUZHRy9phZIkDTdbXHrgmeDMw6UvLiNV3UCs6eF+JilUtbgYuPTAA6o0eO5nkkJV4OKlIkmS1BgGLpIkqTEMXCRJUmMYuAw5eq4lHxB/c+4V03bT822/UEfq2mmZ0Q+M/+SRJE2EgYsGho7morfbQPf9oIM8SZJ6ZeAy5CJTdOT1oaWCFgsedNEfGI7sya+88kqrtCiOHz+eyngvbwnJx4/WD94noOBBbiDG4RHTRxCS14FHoI6R4RrPPvts6t1XkqR+4u/Q6sIwbKvIyAyyJJMxmQzKeVbk0dHRlFmZTMx5dumof55NGpF5OR+f14wfGZnzzNT5tHl5Nxg3MjtLVTwmSQocDyIrdDxscWkYcgu9//77qQWEnETk2/nss8+KJUuWtMYoimPHjrWTEJIssYzxP/7443aLyddff92+hBPjRx6heF6wYEF6RqeM1Z1w6YhWmXvuuadVIklSbwxcGoZki2SKJjgh4OBm2GuvvbY4cOBAa4yLXeh3Cii4lLNixYqUHZkHwRCXeLoxXsbqXPkeF3qn3bZtW7F79+5WiSRJvTFwaRhaLPJ7SxYtWlQsW7asuP7669v3rJB5OVpcqkQCxpgPLTedxs+Nl7E6V3WPy9y5c3tqpZEkKWeX/z2wK/LJo4Xo6aefTi09UhX3M0nBLv817bgkxeUjAhhJknpli0sPPBPsj7hU1O3lKc0u7meSQlWLi4FLDzygSoPnfiYpVAUuXiqSJEmNYeAyg3jfiCRppjNwmUEOHz7cGpIkaWYycGkg+lDJszCTm4iyf/3Xf019q5QTG44n+nOJ4fxZkqRhYuAyA7z66qupX5QnnniiGBkZKT788MPWO+OLy0t1/arwDyA7jJMkDQsDlwYqZ2H+5ptv2gEI3fCTRwjcjR0ZnmmFiZYVHnTHj0ceeaQ4evRou4UlslDHM0HQ+vXr07AkSdPNv0P3YFj/pkkQQvf6H3zwQQpaNm3alJIjUt8TJ06kbvoJXq688spi1apVqQWFXEXkOyLgsSdbDRP/Di0pVP0d2sClB8N+QI17Xr766quUODGvLy0qtLpEtuf9+/en9wxcNGwMXCSFqsDFS0UNR+ARl3lApmiyRpctWbKkeOqpp1KAwmPLli2tdzrzHhdJ0jAxcGk4Mj1HZuidO3cW27ZtK9atW9d69wcrV64sXn/99fY9Lpdddlnrnc68x0WSNEy8VNSDJlwqevzxx1uvpGbyUpGk4KWiGS7+ZSRJ0kxl4DKDcNlIkqSZzMBFkiQ1hoGLJElqDAOXaUB/KrP9L8bRc28T8dn1mg9KktQfBi59QF8q/KOHR3S9j+h6n15rc1u3bk3d7M80BCPd/KC/9957KTFkL2L7DgN6HT537lyqz9VXX53+Xs5z+XPuVd4fT6/y713MZzLzk6RhZeAyIPyIX3fddWn4k08+Sc8huuafadauXVt88cUXrVf1/v3f/z2lHmgiWlsWLlxYXHXVVen1Aw88kDr0+/LLL4uTJ08Wf/3rX1P5VLv55ptbQ5I0sxm49EEkPOTBMGe/tCgcOHCg3UoQP2i8R2dxoIxhzowffPDBVAbO3CnnkZ/F83925hdn+CyDAIjhmD/vU8ajPH2n+fKa+fJeXMbK6zfe+IxLKxJJGxmm5YU6MA6PuDREOTmSyJ/EePF+Pn+GY7l5y8zx48dTGe/lrS/5+FXbIVpD8jpHy1BeBx4hxuUR88Tbb79d3H777a1X1WLZTMt684j68RzbIi/P14fh/DXbO1RtG8oQyysnypSkmYYO6NSFXrbVjh07zh86dCg99uzZ0yo9f3716tWp7OzZs+dHRkbSM9avX5/G472xsbFUBsaP6Vn+iRMn0jDj88CFM/32NFu2bDm/YsWKNIzR0dE0TbfzZXoe1GvhwoXt+jH+vn370nDV+GD+LAc8Uw+mp34xLcusGp9yxmW8vJ7Un+mZJl+v+CwYPy+POufj85rx83WJ5ebT5uXMh+WCzzJQn5gPy2A86ssz00d5Pt98PZkn44J5RTnbM9ab6XmEfF2rtg1inJlgJq2LpMnheHDkyJFLHra4DABn6M8991xx+PDhlMDw4MGD7VYMWhvob4VLKjfccEM76eHmzZvTWTrTkFcoLFiwoDh16lTrVZFaKkCX/dFtf1y2CHGJCnfeeWfx/fffdz3fQP3IeXTvvfemM3kub3322Wetd388fhnrSMvEmjVr0j0hc+fOTeXvvvtusXz58jRMIsj3338/tSCwjdgWLCOvJ9sr1i9fr8D4H3/8caojD+ocl6ti/NjG8cy6hwtBRNrutFrEZ4Rdu3YVzz//fKpbiBaSmA/yS0WsT8jrSkLL6GOHdbkQbKRh6h3l421PdNo2kjRbGLgMAD+EF86GU/f7/NBs2rQp/cAQ0CxdujSNs2jRonRpJS5Z8MPJ+yRJ5JJIINPzlVde2XrVHaYJb731VjFnzpye50v9CKwiKSM/5L30zBuXV3h+9dVXUwBHYMCPdvzYcnmMgI0fYAIOLqNRTy6xBQKFPKAoo04ERlFPggcu13WDQIT7j6gj9Zg3b167nICKeVG3yP3EpZlf/epXabgXfBeYJ1gXgiXk5fEMAlJu/kV+s3Ov20aSZiIDlwGZP39+euaHJs7QaW0g2SEo44cxWgr4Qb/llluKZcuWpR82fpR4jIyMpECoFwQBTMP0BEqczfc6X+rHPRJRv+3bt48bEDz88MNpGgIB1oX1ZVpu2qWchI2///3vW2NfvAcj5g+CJeoZSSMpp/6dWhWixSLmQ8tNt60Q0crBdPk9Rnk5j9WrV6fXBDHUr1cEbvfff3+aF0HWO++886PyN998M5WBbffGG2+kcv6BRoCDTtuGRJiU5wGQJM1EJlnsATdJDvu2ips6TbaopmrCfiZpanA8MMmiJElqrNTicnFQkiRpuFza4lIU/3+hOa6CeKu2DAAAAABJRU5ErkJggg==;clipPath=inset(40.33% 48.31% 24.67% 12.71%);" vertex="1" parent="1">
          <mxGeometry x="-1850" y="1425" width="455.6190476190476" height="520" as="geometry" />
        </mxCell>
        <mxCell id="JH1jl1z9PuXV7L6DOCS8-29" value="" style="shape=image;imageAspect=0;aspect=fixed;verticalLabelPosition=bottom;verticalAlign=top;image=data:image/png,iVBORw0KGgoAAAANSUhEUgAAAQQAAAFBCAYAAACRndHVAAAAAXNSR0IArs4c6QAAAARnQU1BAACxjwv8YQUAAAAJcEhZcwAADsMAAA7DAcdvqGQAAFihSURBVHhe7d0JnGVFdT/wq6jRuJAoEFHExI0YQRSFsAiKyD4M+zYM6ABigAkCzkCEATcERUAdkHUYBIdtkJF1QBYXBpFF0BDcQCWKxjWaoCEomP/fb9nneX281/1e9+ue97rP7/O5n9d9l6pTp8751am6VXWf9P/+gCqRSCT+gCcP/SYSicToCeF3v/td9fDDD1e///3vh85MXTz++OPVb3/72+p//ud/Uh+JgUbLLsP//d//VU7HpSc96UnVk5/85PILrv/yl7+s/uM//qN62cteVj396U8vjuD+FVZY4c/u7RXk6Yi0/S3P8coPpN9JHr/+9a8LOT766KPVC17wguov/uIvGsTg2bq8/o70xgOPPfZYSdsRMkSe44F6uZ7ylKcMne0MUacQemoGm1KmSDvKpHye8XzdVqOeWqVVh/sROURaiT/Uw3v/gKG/Cxj1d7/73eqee+6p7r777upb3/pW9cgjj1RPfepTq2c961nlHtfvuuuu6qtf/Wr1ile8otzzmc98prriiiuKYp/znOdUz3zmM8u9vcK//du/VXfeeWeJTJ7xjGdU9957b3XeeecVueT1l3/5l0N39g5f+cpXqnPPPbcYozzalYlc7hUlrLLKKtU3v/nNasmSJdV9991XdME46ZO83/jGN0p67mOIvYT8FyxYUP3Xf/1X9dznPrf67Gc/W/Sk/lZbbbWhu3qH//3f/62+853vlLr/3ve+V6211lpDVzoD2ehFGi984Qurpz3taUNX/oQf//jH1fz584vtKZ+8vvzlLxedKuMDDzxQ7FQ6999/f5FJOsPZHyJA4ueff355DlZeeeWuCW0y4gkWiXG1dj/5yU+qhx56qPrhD39YogGVEUAIogNK5JBf+9rXqttuu62Qg3OtKnas+O///u9iHH5VKJk43n/+53/+mWy9xK9+9aviwL/4xS8KEbUDg+YQjFp0gCA///nPV8973vOKYdLl5z73uaJb5/7qr/5qxBZsNJC+uvnpT39a5P3Rj35U6pCOxgNaa46l7D/4wQ+GznYOZPk3f/M35WjnjBxcPasLpI9Ib7nllurrX/96I392oZzK6z72oPw/+9nPynURRh2ue0Y9sae//uu/7jk5DyqeoAWGysm1wtEqcnAKE2apBAYgkvjHf/zHUmGY/sEHH6w22GCD6kUvelGJEjgRR8HariGQcFwOzWil4zojVnnSCqjY73//+9W3v/3tct/Pf/7zkmeEhkAWFSptaahgzqdFDFk953mySAvB/eY3vynXOZDnXYuDYTOiCCcD7vWcfMjGyJyTl7L6/9WvfnVpycgT+uD88l+2bFkhyyBNumDEyi9f90uXzBAGTWbXpaFs5IpwF3G7ppX893//93J/s/FLB3lKX17uI2/okfwcqV4XQSjQqq7IYbykGdIkk/vJEnm0A0dcffXVq7/7u78rNkd25KUelUldkJ2e4fnPf361ySablDp0sFVEgijqtsr+1NW//uu/lnKLmOqge3ahjFEn8k9U1RNomTJVlErCxpROaZTOWClaRSEM1z/96U+XcJ7i9T723HPPUnEM9dprry3K9/xLXvKSavfddy+/Kshzuh2Mk9O88Y1vrDbaaKPqH/7hH4ocHOjmm28uRqgFIcdKK61UveY1rynXQdrCdQcnZojbbrtt9aY3val61ateVWS9+uqrq1tvvbUYsP9f97rXlXte+9rXFgO84447qoULFw6lWFWrrrpqtdNOO5Xn60BGynnqqadWu+22WyFDemK4jFJ00AocWh5aNPlzJvK5f9GiRSUCQSKMmVxvectbqmc/+9nlvuuvv76EyHEd4cyaNav8z/FEZmeddVYph/Re/vKXF33WQSfq4otf/GL5231veMMbqj322KPITb6rrrqqODxC0mqvv/761fTp04uzIsx6Xa244orVuuuuW+pLfnWQQwiugeBg++2337DRojpG+upffupI668+lJEN6hbQfSuQ33U2xebYLlszpkV/ixcvrl75yldWG264YTmfGBlPGEPgeCpRxXNAiqR0BqliGDb2FwlwLsbLqDnk3Llzi5FwkhtuuKHadNNNC6MzQo4tTS0SI7j99turNddcs9pqq62KoXNakC7jZBhk2WWXXYoBMjZOgM0RhFZN3/Fv//Zvq9e//vWlNVb5+peIS5paMy2O+zmaAVBl0DIjFg7uEP1sscUWJR3lRCKMzL3ykKe0lAFReFaart94443FMOXNgIGjIshdd921kAanopM3v/nNRR8c4JJLLindB8ZKdjqXHv0o02WXXVbK6Jpn1AMdiD7krR6WLl1arbHGGtXGG29cZOJEnN/zL33pS0u9qCsDnTvssEMhQWQsSlAmLWR0C9WVvNTnNddcU0iBU3PuL3zhC2V8YJtttin5cHqtv3SVTUgvuqM740pk9bzf4UJxuieffOhPN4vuyIlw/v7v/748T+9sQJk0AghKuelFF61uq/St8UIK5NPAsCmyBcgqX2VHeuww8Uc8obZUAOUhARGAg8IZrBaOMVC8CuEIfrGzimBUntM/E64xGpXN0Bmh1oghMyAOo3JVKDjnOoP3t7xUFiPUosqHsSKJQLTMDEje7uU0WjJhpopHDlqOMBDn5S0UZmhaTeTBuJAGQ1bmkEt6nJlMnJVTczhGR35G7W8OpryiFS0tY1Z2hmpAj844FUIRXSEScspHmchKHumR0SCl0Nl18nNeev3Sl75UnBpBIStOjMxEV/IkSx3qErlxMOQbcgqZ6ViZHGQlIx0rr9YamcrH/XTkeeVXBvUcoEs6FdGwH3JwRHJ3A2UXfW699dbV5ptvXuoCCajngDTZAtlFLeoVsaoz8otw2CrSFQnRuWsBZUWAojZlYLuJP6HjkRRGIQpghBSpolqBsXIIfb8rr7yyjNJjdAajxRPKOfythTvjjDOqc845pxh7hNT+VqHC9wBSUrF1QogQkdH7269nyOc+zsThRR8XXHBB+UU4ATIiqxe/+MXlXk4hwjnyyCMbXReOiAT9ijAYkHsRDeOSHidETM5deumlpZXWkrYLlxGJ58jjfuUXUWnROSFdIwutpTc3rvule895Xl24F9lwAiSD8Jrz5Cx156UfBIHowC8HUUfy0MIHkIIIADGrD+CcuhtISJ0gAPKoX10AepO+MnQLdkOnbEt5RDzqvE4s6mi99dYrNnLhhReWvFtB/uoDudZlUR6N1UUXXVT0Nh5vXwYZHb9n4awqwcEhwkCaoUUUOq+zzjrVYYcdVgwQSWj9I9JgzNLTqmFwLYy3FIyXgzNExs+ZA4wfidT79iqcg+hKSMNzuiPkk4fQlzPMnDmzOL00hL8xIi70ZoRk03KSTQRz8sknV7Nnzy73MMwtt9yy5KEroy+ubIiEYTFeMgPD1W/mWJx95513Li1uMxg6wnDdWAR5hbDKh1w4GfKRtnEXREeHQaT0JCJDAMqvLuQtCiNXHZ5RJwH3eB0qXxGJfLX+oiNyaXUROXAYeSmzkB0QyMc//vFSryI3DkdHMa5w0003lbqVHrnrBD4SOL86RC4IVlmQlXoOyF+3UH3SnwihFURcdMXm1AEZQXmU/YADDiikKwKi68Qf8YQxhHagXC0fx6PQOrMa/NMf43gqSGUwCvcySEarNVaJ0dpIT4WrFH8zeGkKB1WiZxiDPBmww/0cN8YQhOecCetzauG0e9Zee+2SDuNn8PIgE5Igp7+Fvp4lp5ZYCK2FFqa7zsC1Vq4pL5LjrK6H8+lG6PtqFTko4+dEIgpjJMY/OBmSYsTIT3/WOa0WZyIfklVWuqMjzkAG95Arriub6w4y0C+DpiNORGf0oIVGJsqDVCOaIBMS4CC6WEGo7pMW0qNXpGiQT9dImeRBh551TR5RV3RPJ4jXM/RJZvcrh4gCwbWCfBEyZ6VD+lBG4xbIV5nUl/LFGAK9iJiUcbvttivptyIddicCRTDqOaIkeqNXxKKLwtYQYuKP6LjLQIHRWqroOhgoY1fxWlnOowIZsVZUn5RRcgQtC6fwTIRvKkbox+G0ZireQI/7RQqckrFIF5kwAg7IIP0iG4bKwPQ75U1Wjsz4GRXnRTrul740kIuIg8Ewes8zuO23377I6F79Ya0Ko5Ge8nEc5eHAxi8QVEBaHM09ZAZGx+BFEq5LVz+Zvsil/IyfYbvHr7CYjjif66FDjihfZdcKKxOHJD/ZEa6WVmhN18pKF/SDqOhYOXR9tIzqkoNwdk5IZjokM10rP31yVM/TEb0pj+sIUL1EWoiWvkRhulmhg1aI8RX6Ux8GdQ1Uqy/ySoNs8pMX+J8eEBhdtiIDYK9IkG0g9jrCTpEFnSX+hI5XO6pYhq4CsGy9IlS8axGWxb0Oyce9jDRaCxXmvsjeeekyDFDhng+DkobDdfc6Lw3nIg3nXHc473/p+PW/5+JeBgHykE4g8iBL5BH/e9b/kY5DmTzjCJx44omlf3vdddeVsD7yiHTqsrkWiPJH+VxzT8D5uA7uoXuI8jkX+UTZo8x+3ecauf3vnsgj0pUvZ4syh5yRTl2OKId06TT+d6//63pphvvc7x7pQegKnHdIi7zkEVEgU8d73vOecl8rSJduyOg5RwBJiDiNIyCh/ffff+hKIpc/jwOEtIxtzpw5xeDqEcRUgZZXSy9K1KLXIUoRGUT3qVPohhj0PP3008sbj3e84x1DV7oDeXT5jIWIwnR1yRKkNJXRcZch0TmMK+ha1Vu7qQitsihBF6d+iD4433DRQyvQpVZft2Qscwfkj6QNDiMm3aFsF/+IjBDGAQxMKyQ0ZXjR/02MDcZlDIIaIDR2gVzGAgO66kp3pPn15lRFEsI4gEpFB47ozyfGjoi4YvwixjxGi+YxjG4jlsmIJIREItFAjiEkEokGkhASiUQDXXUZvEK64IILqmnTppX+nPn3++yzT5kAM1rox5k4YpKSV1Am7YC59c6ZFGOCiokvJsmMBNOVzewzwSem4yYSic7QVYRgZpf3wGaAOcwgbJ4FBqaumtVmBp2JJMPBKK+RYwtjzJYLmDXnefkgBOkgDyPNiKLdDDNrFcymM7I/1kGnRGKqoSuPMVrudY/XNA7Tgp1DFDEnn3Obdmpte8xVRxqiizjc55wog4Obvqxlt8BJOkZ+zXo0gUU+Xi/5Nb055rabq94K8hT0WHjj+UQi0Tk6XtwEHFgrbR67UJyTWgtgMYqdfWzqaZWfefWuW9PunbHrH/nIR8q+gg6RhZAeoYgKTjnllMbcde/uze6TlznxZpAhhOiWWCQkmhBZtFqUYsqw58xkSyQS3aErQhAN6OObxMHhOZ7DZh5IwOw8/XwRgwU5m222WVk9hxDMMLNoBplouW1QYXGL54X/IgVLgo1PmE4qfZN6XBf+W2xjhplnrQ+w2i2WHddhtyPPyTuRSHSHrroMWmqOqGV3WOXGSRGALgAH5bjCfdGDiR6IAjnoz3uGcwvp7RhkPjmHt+sPErBs2S43prtyatNKpRcEhAwQjnsQSx26Jtbtux9hJBKJ7tGzUTd9+k9+8pMl/LeUd8cddyzOaVBQv96Ygt2R7LG/ePHisqy3edFLJ0AmcdRhefDRRx9dSMNy2UQi0T266jI0g1OKDji8Pv/b3/72sjehroGtyEQENujQ4osC7GZsZ+HYp8COSaIK91iOarxAt6EddDuseEMk8q7PZReViBpsmmIaqjwSiUR3GHOEwPnML/d2wGAhx7apid2LRA2c3Oo/O+mIHGwI4k2D3XiMR3BkIT4HN9ZgbkO7ffJ0S7yKNKgonzpEI0jAWES7NxCJRGJ4jJkQOLLXhHbu8YbB9uneNtjrP7bWsmuPtwfmMLjuNSMysOeeEB852OnH/AL3tFsy7A2HfIw91PdbBAOe0kIajkQi0T3GtLiJ4xoLEBlo1W09xjG9QtSKe4vguwO6D94kyMphgNGgo66ECMM53QDdDv8bQGy18gzxyAcxuC92aKrDVuzGED72sY8NnUkkEp1iTITAgU0yssmqcN8+fRyZ83Neu/Dq13tLMFGYNWtWIQq76Xgj4S1IIpHoDGPqMmjpdQki5EcCSEJ/njNqqWNtwkTBK0l5636QJ5FIdI5Jtx+CrodxBjMZzW3QLUkkEp1h0hGCCMUYg2LpLuQuOIlE55h0hJBIJEaPns1UTCQSg48khEQi0UASQiKRaKBnYwhmIloGHSP7JhBZDSn5mHlofoAJReMJ06bNWPQalDxWZ5o+PRzIap8G8ydMo7Yfg6nRZLV1mzSdVx6wkMpMSYOXXq169TrWbwQ0w5sSKzhDj3aQ8r9Zn17ljsfbE5vbWCsC8rTeJDFxYH9sykA4XzHJT52zY/ZskNw9bNoyAHuJeL3uwzXN31sdLca0uKkOuxh96EMfKs6IHKxZMEPR4idrCwhuBuJoDNl8AopwUFYcreAzX5RIgVZemi1JDsTkDYTf5q3VrLM44ogjyvZrYCGWvSPtzmRi1Uc/+tFSQbHk2n6P119/fSEGFWFJd6tZk2OBCjfF2/Rv8l977bWFtOSHEHpNQOBT8KaWq0uEMNFzSMYL6h2xhv1wtH6ERsaaIPaIjM3mtX0Av1Lf7NpCQvagnhYuXFjs1O5g0ViNFePeZVAg05itc1CgbsGBkQoF+F4iJ/R/N8C6Fj1xcGTVDASBQHbbbbcyw3Gk2Y1kUVlIxOpME7ES/QuOZrHdxRdfXAi2X6HF5ys2D0IKw8EU/YMPPrh8BdyaoF6hZ/E7RvMpby2YKIHDIADhdrS8HM9MQiG81si0Z5GDLoUwSAts1qNJRa4LYbG5XZcQg7SF59ZKWDEZBCM9rCmcFsKLCjCqLdZMm7ZsGvNedtllJQ97NdSh1XC/50y/Bmk5pxy+I+i8vR3IpQVVCYjBZ9u1QMhGN8MzIgabu9gxGrkI/z1jerdWSqQkL98WtDWc8iNO7E8n9q1Eeu6tVzZSs3ktw0FyoIy6NfL0TKwy1SI6fKbfzE35+N/z9BegU/dEuesgs0jPNS0QmQPWr0iLrOQnm0Ne6ky92mxXfdG5soK6lG59Q12E6mvObIhs9tXwmX1dNnXMHkRt0okIlK41DqBc7MZyevIggMiDrulfV0hdyctzYZMgX9eUkyPa0EddSzeW3LMxEZO69j9dW7pvqz51FJsFswnPqXcHmehYOc4+++xSD3QiDfcpk42B6BARsC82xFesA6r7lXykySaVU1r00cuIp2ddBoi+O8UpCEERgsqjMLsgKYRugxWR9lCkeBWoj6yQDI+yVJgK1V2wgMozDJ/x2pD19ttvLxXNCCnWdaTCuVUspTunIinYfTZxdb55L0aVHuF4XJMOeTmBCuDgZBHGczoVaFzBMxxZZSqPlZbIh9HShWe///3vF5k5PcPgLFZsMiiOTH5bv3EyTsTZ6YVcdMJoOAojp1N50Jn8EBGdSodB0pu06Ua+DFx3hix0zGAZnbTl4aAbDhWb5IJ8pSNfTkRWdRqQz5IlS4pjmB3K0UN+/8tX/p4ns3EZQIr2rJAXGckkH/XKeV07/PDDSx3SgzSsgHUt9KWVd86vfDg4nSB/tidPe28iRuWkJ+WKhoCcltl7Rn2Eg9u9S3rW5tCRsiBl6bNB9YqklBVpSJ8zs3vntO7sXd2rY7LTI70pq3IpE6cmD12wKTZJR2Rm82yL7bFdelB/xubcpy7YJDnokN0aQ+jVLmE9IwROx+gIrdJUnr8VTmVqwffYY49yD+VRsrDnrW99a1kEdckll5Q0hOAch5HaR2HGjBnlGUpWAVrdRYsWFQUedthhZQ9GbKoiRQeMQr7IgLOqEH+rbN9p4PDN4w+tCIH8nqF4ylYRKtZ1/XlRw/vf//5SNo6hck444YTS0pEnHEHeCNEn4g899NBq7733Lq0oAnGf9BnJBz/4wVJ23RByOscYXQ9CYJAMUNdGy8RoPvzhD5f0EBZiIg8D2WWXXUqrzLAZvRb3iiuuKIapxZk9e3ZpdTmLFnmLLbYo14IQtP6cRH42vaGLOpQJQXHkHXbYodQhvSNLzi+cJSO9agxij0uEhISOPfbYck6rJ9pjM3TMNozRWKSmDBtvvHF5Xv2qNw2GNDi+urfpTkSByJGdIX7pvO997ysRqWvkVWeckNxsS13QFRnOPPPM4nTKiWjYm2u6kJtuumnRnfqYO3duqR/1gvg4p3KrTxv8+k7J7rvvXuyUs7Nzcisfu1Xmvfbaq5o+fXqpY+VSPnt5+N996puvRJRa96uwSRgPQujpkH+zo4Fzcd4vB9FqYl87NWsRFNb/EI5sPwV7JBpcY7TY0k5MnIwhYFIkgt0pqd6yB5r/rv8/Etqlw4kjLRWuUsiuxTj55JNLZWkZyIVUGBsi8/+nPvWpspckI9DCKQsnYNBaAi09h5aHcxyHUwaipffrUG5GE6QnLY4siqHT0KvzjI0e/c2p5E02G+NGl0hLzci12qIWDiKUllcryBMRRTRIdocWUBkgosWAv5G9XbjJx3Hphny6hUC3DJyzaWmb9c8xtNicnA4QmVCevoEeOf0HPvCB4lAcjp6kSTciBHXH8ckq2lJ/8gJ5KJe02Sqd+XXQtTpWDvIDuT2LbC699NKyXaCGENFFWegSyEjX8ggdeT5syuF8/A3xOxGY8HkIFMeJGBOFO1RaKEdFcQJGSHlaQQMnWiqGrLVTIa5RMqJgUFrHMKhmMBbs7tm6g40VKoqRMA4OTB5kppXC8gxX2YSUyklWh/uUJ/qA0pAW+ZUfOIijDte0dnGf6xxX+TiZ/r78oqtT16v06dyz0gBpeI5TMmBwP90zYs8g5LjWDPciAPXhb7/yQA4BDuecvKK75G9OQUblJ39z3Tnv2WYoMyJQn+yB3skb5QRp+R8ZuY7wIoIhr1/lcyDYqC/3g3JHfz3qWHqOqCu/yhXwt3SjjqUrcvOLUALqpB3BjgX0ogukEUGAo8W4EwKlUh5DEIYxPqGdChciG3QR6qsoimasGFtFCj2FfLHpiUIrsC4FoxLKCiulj+HbwXNaEffIu1fgAJyPQQn5hIEOEYxvUghLOT/DRQDCcte32267srekkN41ziEtrbmyaVm05vRVBycQfdChX84q2uBQ9KL/yijJQjfSZtggfXKC1lUeIgJjASIX+gH307V68cxNN91UdCbvsYCM8tAY+FvobNDMuE+duEYCctINAqG8LkVESQEkB0J79RBL4tkMEhD1OKd7F3VmfCFa8dEAudO5PNkrG/CLiIzPdILQAz2p+250zm90Kc1ZEJGOFuM7S+gPUOGMl9FhLkZA8frhQiwVxCGwG5Z1OHf55ZeXfvN1111X0qEslbr//vsXo1Vw4TcgneE2VdWKUtJpp51W+s3S6QVUHiLTXdFvteszaCGVCVlpHRiEfIWTjNVznA0xiH6koR8eaTBuZRRhhEMDHSEM4TCCVS6GrHXzDCM3WGZQTKTiYFhIi470NXXTOLkBLC0p4t15553/rBUDYwPS53xe1zHuGBgcDZRXGC4f5TzmmGNKlCePbsA+OJ2u0Zw5c4r89KeBEYWBsnKOk046qUE09OM5dYFU1IW5JHTgWfVAxtGCTSF8b7KCkBCQcRQNQyflJIO6ZfvIAFENZ9d1uF8XaN68eWWsqlMSasa4r3ZEAlojYwUcnVEwchWq5VYZQm5hvxbNPeYs6MdyLOeAYVK0wTCtovDTL0iPA7ZzdOyJdb2ZkH6zYes3U6SWw4DPSFi6dGnDAUHLrtV2ALmVSQVzAMZgsE5LSx8RcnprQm5G7roWmx5coxeHfLSADIUehZsMOsJChMvxGbPIKkap6UTeyi1qEKE4b5BLPgH3qBN6UQ4HSJdBI1Kkoh60ggHyiGJEHUJ/EKVIX3oRjYhalCfGeHTtRDagLHRBXwxYOhwZqYmglIuhI0G2giCF4xFFsQc6UlYkID1ycyj2ggAQAvKkG/c7pywaG/pg/uRTD8J7CP0g0igzEpUWUgX1Rbe6GdHVUH5OWQ/Z1bE0REXeNLE9BEG3yhHdY3VMHroRyXrGs+qlHeiW3Ror8byxkRNPPLE0mkh+NOi75c+UquVnCJyBUTCYeL++7777lnP1lnOsYChaGw5shFglRMuSGDwY7eccoq4gBGTNibXinba6/QwNh4bTbFwkwHY1ol596rrEvI9u0XeEgAiwpDBVpWpBOL/wUivnVZEWtZdgML4poaXQMgn1e51HYuIgwtAdEMUwb9GDFnfXXXct3yKNrsUgw5uMK6+8ssznMeFJ1CG6UzYNqS72aNB3hCCUQgpCvOgSiBA4qL6i0A5J9BJCegYk1BOS6jqMpT+ZWL7QxRFpsiMQJbAf4w0aF8Q/6ND1ivkSXh3zC11jZWO7o41w+44QlgeQEAJCDFoTfcfsMiT6GYggBi/Za69eZSYhJBKJBrIZTCQSDSQhJBKJBpIQEolEAz0bQzDxwqiuUU5vASRrZLfXbwQGDd5c0AW90JE3JsO9wXCv+xz+pj8DnJ4z+BnpBfztmvQ7fVUaeXhuuPoxGchkGfK6t58GWtka+epT3p3zP1nriPLSnXu70VU3iPqJkX55kos8BqvHC97GqRuTtJoh/4C/vY4czv56tvzZpAgr2FSSCUQWoJjgM9r3oZMFixcvLst16cFsTUbiFVE7mLlmtqGp2VZEmvnHyDxvCjgd2zvBzDlTlK34tKiJMZrZ1glMgZaHkenh6sdsUrPrIGZO9gss2T733HPLmgjObfbou9/97rIi1szMOqK8PgBMr94mxUzKXsLIv+nxSIcM1oyYT+O8eQLjBUvmzbkwPb4Otma+gnk9JmbZco1cJva1Q88oHzszXpMjKMAUVAJNdSBHU3xNj6YTbI40TXtttfqSztxDjxYCeR1q4hR2D7LwLp2BmXHnkK5p2e6ttwjtYNrvJz7xiTJ1djiY5GI6uElh49nCjQYM3Lv4sDH6MpGN8zfDNfciAq/oTK0eD8TUY/VKLnVuGrT8xxNsgo01Q2RkPoZZjXwSabCl4dCzCIESVAgDYrAUYn41pag8RksxKiVCKs5CWH87KJTA5vy7J+YHeNZ9fhkzh+EcnEoaDvmYoYWdyaIivKelCNc9p6V1HznIJC9yxjRoxiQf97rHIQ9hKPncr9VGfvKXj3vJyWGEhhySnJyZPCaPKJcVhPIWHWDpYG3XYi0AeF66yqhCtcom1HBK+VudaCKKKbhW+lnYZN6+tExXladyyJ9syhNp0SmdWNik2tVVTNOWp/KS3eGcQxSBGMhBV/SpfujUM/QgXXkiGK11hKTKQi768ry6NH2YbAxV2eXRHL6TlZzk8HzUhfSUD+hBfjNnzixRjnrRGvqf0wfYm7UB7ieXNRXKLU/lIE+krx7r4b5zHC2uK4fr6pnsbIMMdExe+rBwS/rWZpDf/gvkM1NS+SMdNsdW/U0X6sr9rkvH9fAJ+bgeepMXGSK6M1WbDbEJNq5u2Iq6E1WS2b3Ka3OcWLPRCj2bjmeBh/ANCVC2/xXGakUVFS2h1Y7bb799UZhdaAhs1xtK5DCM2445phKrWKsidUcYHMNWAWYSMmTp+5+Ret4KOgbD4C+44ILyfDiofCyFZZgUiy2FTmQ2HRqQiPA+NrgAzitdKzQZnUUjVilaRKMykaCpzs5xWrJYUWjhiTnmHJas4fTuoQsrPRkLuR0BlccBoz/KKPw/XGiPjJAWA+Bg0rbBDNlcM8/dUmGLsXQDzMpk8AyJzunFvSI8uiEfnTBO9aF8lqp7xlx5U2YZLd2ob9fpWEj+rne9q+zORF4OILRXZo6qvtWNPCz+IpN596ak14EQ6MYGOXQeIL9tyLoB51DmWDVLTrJbvWkXK92tALskk9mqdEBPyhqgA7tVsV1Oqix2+VZW9sGe6LMOdms3JcRGH6JDTnnQQQcVHSCcsDnkBWyYzdEtx7ZmQTcRKViMxq7p3NLqOtis9OzgJZ8DDzywRENsgh0pG1scDj2LEBiyitcCIgOF4hzYmXErgHnkrhNQq6dPjV05jf85gAIxAltQYcnYOoyRWQ5KmRQsTXPTrR6Tnv8xHyVzdmlY1WZdv2fIxOEpyJJhpOI+lWAba+DECMZ1zzF4TsFApKtS9cM4v1VvyqPclM9ZkARnVG4tApmloQL9kkGFclz/ixo4q78DysLArOxDInTqOc8wbobjl160RpbxImD9RwarFVAORr/nnnuWsnEwxm2jEEZLV4j2gAMOKE4gH2SgtZSXbe2UjeNyGH87TzccXNljWS+yJm9EIPRAV/5myP5XFuSpvqUV+iU/x1P/DFaLCZ7hwEhOnSsbYpcHXSJ1i93IM1KEQA5OybY4bax21MWSpqhKxKUe6ICtiSJEFOqbvdAR3UkDSVkarixk0GVDqEiNHMJ390aEQAd0zlbdq2UPx6d3EaSxBnkgPOc8x+bUK5v1GQD2yu7Yu7qNwVH2gdjdy/40RsovrfAH9qUO+J703dsOPRtD0BJRXhg9ITg0gR0qOUJ9f3cKDqIwKkwhbWrheUpVCSIOFSA/7Mw5gbLIo3INNCEFjsDIkA2j1vIyioC/yYdpPe+Qlwpg0AEGxSg4IANzTYvGYBECGVQgnZBLBcnX34zZeQbjea1AHQyG3uhR5ZExHCygQhFERAQMlcz+R6iIjnMrj2scWwTAwMlBfs9xaA6KvP0vX06jK0J30gvQLePkeFotafuVHyegJ3pGEEhJWMvhye9g+K7RJVk5KUfwrDC42Sbo1EGnHI1elMW9UcedQJk4AmdxiMYiikSs6pssUYf0RBaD4giHzcZ15Uc6ykZ2BMKOkC6bMqirbutQVwiBI7Nfv+pVWsrTbHPuVz560hiJKuhT4yEvaSBI9UMnAfVA3/zCveyTLOyI/8Qyd/oYDuP2Hgnjc4SoAIxvnXrsg6Cio0XgqP6Pow6GqkKlEc4ibcrjXGHIrtcR+bvmHsbt7zo7eiaeI5M0KVRoS17GoWKaDVCFUjRDRUoMiPFwEBER42EcZGgFZfSMdJW9G9AZA9xvv/1K+HzUUUeV86ImxkVeLQxj9QZC14mh0IFrjLsdlEmk1gocQ5isbFpJadMTw2a00meIwloGzJjpgiEiBP+TS5eDTA4OSd91QqAPzqFudfOEv5bDIw4y9AIcUd6iH2n73oeIiZPLgwxkQqyIw3Vl9YaCDsiKFDiyVphtkVfDV3dSQOZ0wFbUHf1GNBwk4FeXwJsS/qGe5BFkJcyXBtuVDkIQbWhUAnSuMWKPoot6A1KHsrE76Tf7GvRsDKEZCkyBugRaQeEO43GO8oWJGIzgCh2Ceq6VoOMJytF6cmp5281ZS8rJ9CGbK7kZXmExELtCIQEtQhBRKzAAelFmhiRyGA0YCIOMMFMrgTy1QghJN40BOc85nau3+t0AWYgsRBSHHHJIidgYrJZfPZKD0bpHRKJO/c34dZ9EcZxNpEY+QFTk0YKFjj2HCDgjvQql2Ygdi3XFegFyis7oColFlOY1rrzIIm/XRUyiTPWqrAhCfUX0RlaOyXbpWd3WgViQIV2xCT7gQBRIic155p//+Z+LXPzDrktsh14QUHRl+IZ8kBN51KfIBOjUXh4aXfdEZNIM6dGx9JWh3kDCuEUIlEphWk2F1IflYEJPjKdADIZDaAWwsNaD8jjKRAJzixTIpLXzjl8rqLLaOXUdoiCGrz9Pyco1HImoEK0TA6wPmnULcnNGLQJjIi8j9j8dKoMWUMsheuDUjJKhiTL0g7VMMdg1HDzH8LVODFS66kue9CZN5MNAOS5n150TpXEgOqIbDuRZh24NB3Q+9OV/cpJfVBD5sIt6XdAxgzcwSB42ZcwGgRtDGQ7sUvmVWTch5BGtaOWVB3G5jwy2OnedI0ff3tgDUhEpGVdiwyJKTluHcikzudxnbAI5aMkRpfIqG1twDRGGLpAlojXGQc6zzjqrRFbKF/UZ8DeyNnAoPV0bxOy+OjR8xj7I24pge/qhljoYK2fHbIQgpHBTJTIavxRLgZhXZTOoCI0o3N9aFcZGMSoLOJP+EOMEpAOcgfF5Rl4UxFEpXT7OMyTMCuSSh/4W5QvVKCn6yGSSp9aQYTvndaERavkHVKDWQWXZT58xiTDagWxCPC0EHUm/EyBT+iQv/UUeCIbuOK0Wj+6VQ/jul+EzbkaovKIg5XVNGRm5skkvWkXQuoUendeqRcTB2Mjjea1phM7SoFfPeSPDUckV+YmMPEvXzunXh8zAGZ2XhvoSeZEtiE9rro7p3DPqQ7RJPnaDZOimPjYToTc7QmrupQ8Org7IRB62wjbIrIFgB+6J62QgK/2wC/9zVOnTqbqkHxEFZ2dzdOQ+BKfcQDZvCMjgOj0rJ0JSJgSJQMmhrPLyLJ1Ik2zIiN2wbQPM5PbGhmzuJbuyqg86DSBPDQQf0u2Qfh3jvvxZ8s1ZKLQjzlNWGESg+R6IeyKCiBaj+Z7IM9KAdueg+Z5mxDOuyVu+8QwwGLv0+HDLeeed1yCq4RB5RdqdoN0zzgWcj/uaEfqC0CE05x//t8qvVdr16xBpN5/v5NlAXb464v56WvF8/f96mq3yhFZ51J+t5xEY6TrEPe2uQ912h0sDWt1Tvx7laE6zfk8AgSEQNuvNB+KqI/dDGAO0gvrmQlrsLWrQb9daJhL9CJGBqCTGdkQvdSQhjAFCPCEYUjAwZGBHyCZETiT6EbqcgBBaIQkhkUg08KdOZSKRmPJIQkgkEg0kISQSiQaSEBKJRANJCIlEooFxectgOqvZh2ZO+dt7TyvoJhvMADTBw2ywmDXYa5gFZ728mWjysJyWXs2cHA6mI5sua+acWW9WXyYSI2FcIgRksHjx4rKQwrpz35+bjDAd1rxwU4THC8jUhjG2ADPd2UxIk6DMTkNIprLGSsE6TMk99dRTy7MmoyQSnSC7DGOA6OCEE04opDDRML/f/Hpz7c2Db4bIQFTh0+BmTyYSnWBcugzWdHOSGTNmlJVZFm/Yvcd2XLoQDBm0fhZnWHAUu8W4Fq2uBRpaQQtKLHay2EPrKITmjBaHMHqzriyEcR7MGrRAZtq0aY1nbClmYQ+4VwsqXQte5BMLjSzUsekJuTibCMdqNWqyyMRCHyG4Mtkz4bjjjiur+swLVwYwc1G5yWBqaCw84aRWGNIDWZTfNSvvdAXkRxaweYlFO+SzEtSCMCvarKikV3+LGiyosuzVKrc6rNKbN29e2Uar+Voi0Q7jEiFYbcZJwsGszAIGbyk0p+CUWjmOr0thBZ2WjqNZgGF1pOvusyzU5hUc3XnLei2l1r9GGJzZslHTMoXx0jClWKiMYJy3pFm67vWc8BvxWH4sXXnZJQep+N9zuj4IQdfHdavIYm87/8sbhOye8ats0iSDcF5+0pE22ewaRH7OLA/PmAJtuSr5YnWfPIwDIJHYIQcB2jUHGVjIYnUfHddXsyUSY8G4EIIBL0uAtZBa//qe9FZfaWn33Xff0oLZM4/DxC7EnISj2afOhp3vfOc7i3MgkwCHsWx2n332Ka2rNDmbzVrtE2iDUOsKkEjM3XaPxRx2pp09e3Y1a9as4lT64jZ0PfbYY0vrTw7nOC5CQR72GLQ7kS3CbF6BbDjotttuWwb6pEkW56x65NRve9vbqoMPPriUg8OKJpQNRA2Wpu61114lDWSiRUek0vGcv51HCNb5kx0RIAdRgyWwynjKKadMygHbxPLBhI8hxN4G0app9UQTnITTWufOiRcvXlw+emGkPBwpEGvEOSOn9qs1Fk6fffbZZUcZDsahAtJGVPL3jJbVc0grwMl0W1wnA1LQap900kmFvBYsWFBC+ljP3wzdCuRlQ40zzjijbHVuAw/Ria6S1ZGgrNb2kwEshkIEZPHxkUMPPbR0OxKJicaEE0KMjsfQBUcWGgudORmHshGHroa+OifWn6/D/5wKqXB0kQCHQyy6J5yNc7lWh2c86zyn93zsTgP+F4YDcrCRhs0sjF/ow0vfbsNa6/pzAekiK2MTXvN5RovuVzpBPvLW8ksDSSAfUY/xjshHl0bk1A50qDvl2SCaRGKsmHBCYLwIgAPrR3NmLS5nZeT63hxFFBEDhpyHE7WDXXJikBCRCN059HDPjARp6ELYC1DIHqRg4LC+Ew3CEjVEBGC3HCTg1zOxh2C7XZREMZ7XJUIoSNAW5ZxdudrBuIMyG4wc7r5EohtMOCFoCY3ae0d+5JFHlk0hOQ5HNqqu72zgUXfh5JNPLhuyMv5ouVtBVMAxbf4pTPdGwXZdrd7PdwpRBlmMB8yfP786+uijy6/tpxABwhHJeJNhLz1753NqI/qioOOPP750M3ysxYChrpHnmiENeygon8FV+Th0I2yV1g7IRwRhlyYDmYlELzCh+yEYkGPEIgADdFpwfwuztbqcgiPHRBqRgTDbKL+IQavNQYXTHAaJgLBZlOENRDwTXQphP2IQjUjDGIFr0tE9kadWGRCVbgtHJJe/5eX1oDSck77IxWtD5GYQUlQjHeeBHOQJIA8E4xkDp+Qli/GMiIyQibLrQoFoguy6Ea2AJL16RVCINPZBDORrx8RoMOGEwIG0lt7bc5TE+ACpejNiUpK3IAgpkRgJE9pl0HJr+bTuY+nfJ0YGnjc+4W2F6CiR6AQTGiEYPBNmC+WFz0kK4wfdDxO6YiaowdFEYiRMKCEkJg6I19iGAU7zHUxqSiRGQhJCIpFoIGP2RCLRQBJCIpFoIAkhkUg00LdjCCYOmXxjMpD5Cq1m+SUSid6ibwnBlGaTa8xi9BVhU5MTicT4om+7DNYzmErsk9WtFgUlEoneo28JwToD8/qtEsyPpyYSE4McVEwkEg30LSFYCehIJBITh74jBNNtbZ/m7UIsJ04kEhODviMEC6BuvPHGskdAvllIJCYWfUcIdil697vfXf62wWkikZg49B0h2HkIKdgizI5AiURi4tB3hGCjUduKWb4b24klEomJQd8RQiA2T7HrT67QTiQmBn1LCDYYFS3cdtttZZPTRCIx/uhbQvANw80226yQQiKRmBj07eImg4pWPPq2okFG4wqJRGJ80beEQKw4jCdkpJBIjD9yT8VEItFA344hJBKJicdARQimMxtXsD8CsY0z+DaidQ/9Ch9tBUu4yW7iVXwFejjEmxX3K7dfu0b5pJw0ld85W6yPR3dK/vRKVvnTtXzoe7xg2rry2RSnG9hq3u5a5q3YXauVPUhXmXyKL3Tq8Kxy0a1vWEz1b4Ws8F5fRx0QfO9736s+8pGPlO8d+hbi+eefX77QPJ5GOlZceumlZQq27y+eccYZxSh9pXoknHfeedU999xTDPT2228vRszYffH59NNPr2666abiQC95yUvKtV7jnHPOKd+n9Bn773znO9VnPvOZsoOVL1mPF3zcd+nSpdXWW289dKYz+CjNsmXLqosuuqjYQ6tPBFo09/GPf7w4PcLx1XEfyf3qV79a7MpEOOSHYKcyBooOtQCIwJsHjuVDrCYu9TN8+NWhJfLZdh+Q9fcjjzxSpmb7kG0r+GQ+5xcNMGYtNAJAElpDb158pJaBjwfkHR96Iav/yTSe8CFcu2R1C47s61Q+1d9udy12YtMdUZpogQ0pn7pRD/QsYpjqGKgIgfP4VuF6661X/mdAG220UalIrZn//XI8v5xIKOiVpRDbOUYRR4TzDIqBIBiEw/H8LR3G4hrDcc7HaoWkWmW/jEtaznMaB+JyXd6+ds1pX/va15bPxvvoqlYXMXBuZWr+cjP4qjO5fRWbQ66yyirFmK+88spSXmloDXVFlJvckX98Pl/+HJrhP/DAA43ryhfyAz2JAuLL1GTS4voor0/tK/vXv/71IgdZQ7/uk7905Om+H/zgB+V65CVEd9CTMrtOVvlo2dVL7Ijl0/+Ifo899igyeV4+kUe7rhFnV0716Oveoiq6EgVIQx1K50tf+lLRGfKgA/UqTSRCv54NWaYqBmoMgcF9/vOfrzbYYIMS4t13333Vm970phL2Oc+oVTJHZxRajO23375ae+21ixNdcMEFJfxmlAxvnXXWqbbaaqtqyy23LB9E/fSnP119+ctfLp+ZZ7QcQHjpeQYkfY515JFHVptvvnmZTSkd4f3NN988JGVVbbLJJtUOO+xQDI/TyxuJkXHVVVctzixMff/731/SmD9//tCTf8Itt9xSDB2BcGjOzSmPP/74cn2NNdYoE7d23HHHsn/EF7/4xXIefP59+vTppTvBsT73uc9VZ5999tDVqpDMrFmzyn4TSIc+dMU4DaciEyLbZpttqne84x0l30WLFpVzdMPJkB5ymDt3bimTc2TWlSFvwMpVpE2Xrl9zzTWF7HTz5KN74AvVcNBBBxUy0T1BsAhCN2XOnDnDzkXh+Mqo7uiUc999993VSSedVIhIF4Kjk/+QQw6ptt1221JWciIyhI38yNPP3c+JwEBFCCpu5ZVXLk4arO6jscLM7373u6WCfWaeM+qnX3zxxcUpGHG0cpzUPWZC3n///cXREYcWK1rsfffdtziVPBAF4thwww1L/9kuTlpXBubvG264oTxjjGD33Xev1lprrSIHg7QfpFaHzByNrP73t+eF/Iii1b4PDNN5ZfVdRgaL5BAQQkGE66+/fskHCfqY62677VZ+lcW4BXltVqucjH2nnXYqZKqffNVVV5V0POujsBxHmTmLNEQz9GuTW7rT30ZK++23X3FwcnFy8HeQteeRLP1zOuM98iM34ltttdWqmTNnlk/UIxXErpWWxmc/+9nSLaHrK664ouQnLXUoymgXIYgAECxiU6/sQbnVkwbBOXLccccdJeJxqAP1p27Uib/lMdUHFQeq9CpYa6QyGRmHYTRxTeVySAblVygffXattMghQkVp+JsxBWLAybOcTSssfQ6pNeXgMagmLQbNcRgjEuCIfrVqWiutD0PzPEMjH0cX/vqVlrxagRwRwnpeOkhBq+zgzJxca6s1lS9n8ov4OLAIQ1SD1ITn5FNejiOi8b9DpCUSQXzrrrtuiYjISqcBfyMI19xDF+Tg9HSBUBCEUJ1eBJ50jgjkSTZ5qb+NN964EA1ioWN1Ec7uPiQrLZEM56WDbhxV+RxImo4d/kbI6pj+2Q+d0jP9yiNsaSpj0tAhdmfUfpsRxsnIOCuD03WokwEwCk4nMmAcDuekGf8zIkYFnICj6V5okbRqQlctcjhFKzjvWQ5LrtGinv9dd91Vxhei66SrIB8OaWyA019//fWl7LpYzsvbfSIc5KPcHE95EVZdlxwozrmHHjg3GbTyIKSnVzqQB/26hhjl5xlOGUTDSZEQxw+dInBl0aIjnNE4KYJSLt2MqDukU8+7GRqNsdbHZMCUiI84jRabcwtpDz300GratGnF6MYCDvDKV76y9LUPPPDA6rjjjiuHfrVuCydqBU7EaDmqUHu0YOwGyZRJ/zvy1+c2huA6p9K9mDVrVjVv3rxy3e/+++9fHJGTCOPJESThV2uutQ8gDedcI7/IIAZM6VeXzbk999yzmj17dtEvAuCM0b1TXmMN0dUw3rBkyZJCAAgUdO8OO+ywQmrGRUR58usGSN0hSkAMSEk0KG/RYTOkr1zGL8b7TUq/Y0oQAsfg/AzC6PnVV19d+pOMoN1AVSfQ6uieSMP4gwjBoQ+rOxOj+M3gdJzI16muu+66obPdA8EJuzmdsYTInxNxQC05wuDwnFeE4LruhO4GvYiqlEG3gzzmHxh74fx1+f3tnChkwYIFZcDP/8YbEAtZ6FNXxDURkwhFV0CrLD8DsUjjtNNOqz7xiU+UUX/kUO/6IVHdMwOm5JdWDPB2CmMzDnVibsK5555bBjORTquuB0JAeJdddlkZWJ7KGKhBxXZgiIxPf1DfWoskTNVCMHb9VIbGURgWA+DMDNXg16tf/epiLA4j0vqtDFQLqYVh9IyW48cgmD62kFQryLm1LDE+4Zx0OWIYeh3yd5/xBzLEuMRIkLfIQjk5MpKTl9Ccc0b+rmtp5S/MR0BembpGV5ybfBxZV0GZ43p0dZwzXuA+unQegdCB8rqHDN6o0I08hPvK5pCHVpruyUEmspIfKSiLPHQb6F+6ZPAMMkAgdE+v5HRvu3CfbGSka7okj8hF/csn6kzaBnFXX331oSf/CF0FYy/ITtlEN1MVubgp0fdgosOZKWePQcnRAGEgKRESUvFqcqoiCSHR19B6a7UNBjf370UBog4RnC7SaCHC0M0TPYmoRDVTFUkIib6G7oeum/Bfl6QOrbnuoS4FYhgtdHd0GXRbdCX9TlUkISQSiQamxFuGRCLRGZIQEolEA0kIiUSigSSERCLRQBJCIpFoYGDfMngnbbqtGYNmuHk9ZYabmXAWF5mVaNmr11LDwcxFs/zM5TdBxSsns/e81263FgFMZPEqTP6m1poSa81Ar0Aes/3M8AMrKuVpAo7Zfc2v2ZTDMw6z9szqI5vDtOJEohMMbIRgXYL1CBbVWOFnDj1u4wyxus/fI8F03VgtaG69X5NUOJj3035NjrEarg7OKX+OanUfGXoJ8/AtWw4gP/I5zLtvBjlj1WWUo9s1AInEpOsyWNtuByQrGqN1HS3MXEMOJsSIHiYSdmGyEjCRmEgMbJdB6ycKsMDItmZacHvx6SrYLUiUYAchYb2WVhdDxGDBjBluli3b6MOiGU5v6Wss4JGmZcOiDysELfCxJ6KdewIiA9Np3WslofB+5513LlGDpbsxq84sO+G7FXxvfOMbywIbRONZ+0PqrgTsWCQPy35PPPHEIueMGTPKeWVULvfrBshPNyV2XdKFiHIoY6zwVA5LnBOJTjCwEYJIgFPbpMNqOSsUwYq/2GKbg+ta2FWIowqfjRHoJljmyqk5jpV1nN5SYb+xstE0Vs5nHCI28AiIPjij/K0KdACntIqR8+JaZGBa7I033ljIibMiBPszIA35GBdAKohEdwAROMfhPe/X/7ouQTTOS8v+g56TDrnr5VAu5xOJTjGwhKDVi23EYv17O3Aojm/Pw3/5l38peyrq94syOIwBxNh70a//nZemjUR0QSz1rUOLLH9OiJg4YEB+zu+zzz7VEUccUZ4XbcgPYSEm25yJOuxR6D57PSIqUYx9ALXuSM4mpwYRLboJgiC/cogebFyK2KIc0qmXQ7kTiU4xJV47GmXnvFr8iYDoxZp7LT2IMmxuypm18qINhGFTUR8PsSGJLoE3JMPBWw/lGO7tRyIxFkwJQtDfRgZa2G6gJdflEOJz5E7h7YSWPoZntPyxFVik6fWgVXo2GxXiI62R1vR3Uw5jKroUNk9p9VYikWiFKUEIowVn8vpPSF7fX3AkcEROb+DQZqN+jSNo2UUNCMYgp7EJg5IiiLgWcA6xGIuwH0C3bzmQj+6JsRRjGolEJ0hCGAaIwOCjOQbeWnQKzmu84NRTTy19ffsYGi+Ivj0S0Mr77uMHP/jBauHChU/YAdpW5YjlmGOOKfsldkNIIKJBQmeeeWb5QE0i0Qkm3X4IWl+v5vwa7ONIWkrhuIE6Ibf/bRdusK55sLAOTmoWpFeTWmy/w0GYvnjx4jIeYJDPfo4cX6hvXEFe8jdWIGrQiosKjC2IBgxUmiVpADF2ZNb1MG6AZBAEKIeIQhmVww4/zfsEesMiDYQg3aOPPnroSiLRHrlBSg8RhBBTmr0NGGnq9HgBISAzcx28kTGtO5EYCdll6DEQgBY5XhMuT+B6bzcciUQnyAihxxDGC/91E5DD8iIF1WocQf5xJBIjIQkhkUg0kM1GIpFoIAkhkUg0kISQSCQaSEJIJBINDOygovfsJvhYzWetgGJY+bg8QQZrFshkHkIvYfqytwYWRSm7CUsxndnEJnkOt9SZbN5++DVJq3k5dyIBA0sINj2xp4DpwLYL4yxHHnnkiAuExhMc7vDDDy/Lpg866KChs72B6cdmYL7rXe8qe0Y6TDwCi6Qsv7YJSzuYFWnmIxKJpdLLU1eJ/sTAdhkQgAhBa2l6crdz/ccD3vXbNck6hF5DFBRlVHbTmJXf4W9kZKakCMUahma4btaiqc7I1L2JRDNWeO8fMPT3QMF6BGG0ENpkIMuHLSX2t0VJjN9GqByJ8ZsoZMs1LatdjRzOay2Fz5wstmVzzWpEU5Cds+2Z69KTrlmI1iRwRCsJ5SENobtnXfOMZcfWLNjBSXrISzpkt2DJvRxYy29tgjTIpAzksIuSLdH8Lx9ObTs1xGAZtf89p3viMBHq2muvLfeLAMgjChAViA6uvvrqsnuUXZesrfCs9Q5f+MIXSnqIhGyCRnk7F/tSWp9BH9IkpzL7X3rKEcvEyZDdkcHFwBICx7EwKBzBVmb2D7SdmNWFZ511VnF+hosMOP7ZZ59dHMaS4Ntuu60YLsc11ZjzXnPNNdX5559frnPiZcuWVTfddFNj5aH/zzjjjGqttdaqVlttteLIH/7wh4sjkIOTHXDAAcWx3vCGN5Q0YrNUuyZzYH1/cs2fP7+01pZHcz47HVlzwHk9d+655xYHtrMS4uN0ymlreemQPRZdcX5lUM4PfehDpSy6LdITtZCPQ19yySVlOXWQk66GnaNmz55d9MnBOTa96qLQ3etf//qi7wsvvLCs+jROo5zksd8kfSkH4pOubgu5sjsymBjYLgOjtJrRUmJ7KjoCnEpLtvfee1c77rhjaeWuuuqqEk04hwPf+c53FqNeunRpuZ+xaxG33Xbb6n3ve1918MEHl01YI8IYLRCAVY4HHnhgtfXWWxeHs4mqrdOOPfbYch7BcKoYF0AWxkaMFxx11FFlc1ZOH1B2BLLmmmuWg2M7JzL5wAc+UNKMJdaASKSHTMhgi7a3vvWthUDBgCTHp6vNN9+8nBsOdGLcRpRjzMQS7p122qkQkQhKVJMYTAwsIWghI3TXItWXJiMDJGBZMGfk0DY6ET1ojbXK+tGMWmtswM154byWFdH49SxnGss6AM6GiGJDWKF7fE9Ct0DIHTIhCyG77yp4BiGFLBw+oHzCfeV3RHeDnO5HEPKNVlqLrxyWVkuXHJZL0x14VsvuEHEMB92JiFjojuyiDgdCc7ieGEwMLCEMB87AgTgKZxBiG3yzv4HQmfP51dJxIkbuOnAciG4Gp3GPg4NJq/5iBpkMF0EY2xDORzpIR0tqbIITISZyCeGlI31jBGQPMpIGEhgJ5BLliEq6gbIiC3kqo//JUi+Xv5VVHrpPyiGyCjIzbuOeGCdxL50qT2JwMCkJoRn60nYsEhLrKhx33HHl8LfPr3E60QAi4axh9Fo6/eLos3MU/fEwcg7A6DlAp9A6C92F2roujjlz5pQwXsvOKbXUQWDSNvAochgJ5DFWYWxjtFBG5IVUOHeAPhwIQ/fFzk+WVc+bN6/oUvfnkEMOKeeQC2IyrtAPb38SnWNgBxXbQUguHPcb33bk8EJrrZkQXffBwCGj1dfWv+aI+r4GG7Xc+sf6wwhg2rRpjbcZ5j64T7ivC2KUnnM4DFAuWrSo7Gik308GToFoml9Fyl8eDqF3DIqKJhxCb7KQFyFogcnoLUM7aLFt26brgeCixQ8guugqcXbdKpHSrbfeWs2cObM4ckQk5CMDHZCPTqVnQ1jlkxZnpyv3+g1dKAsZjj/++PKMfCLySvQ3Jh0hRGuty2CgkTNq3UUJXrdp3SMs5oC2J9Piua5V1I3QzdBKIgz/b7XVVo1BPaGwa9Et4Xj67d46IB2ts63ZHO6VF9KJ7zZ4lpOIPDhfjIVwNI5EDiP5IgKyul+/nlORVV7tID9vJTg2x6zv5OxXvsokkkBwyu+88iIactCLsolQnCcjmdyPOMmA+MilSyWikob/nScfQkMOF110URn09MxI288l+gO5H8Iw8N0Er9+MogvnE50BiYqMvHL1OT2Do8go0f+YEmMIiYmFKE1EoBsiYhBxJAYDGSEMAwN0xgo22WSTEjYnOoPxiRiQ1G3RLUoMBpIQEolEA9llSCQSDSQhJBKJBpIQEolEA0kIiUSigSSERCLRwMC+ZTATzrRbs/pM6zVLb7vtthu6Onp41WjPgz333LOsf+gXWNdgOrADYkaj2Y1mFLaD2ZemHlthadWk2YbLe+/JRP9iYCMEDmL+vE09GLs1Br3gNrsi2VzFOoV+gnUDyMo6DAcnt1YCEXrnb3agCUHNOrD+wqzB6667rpTNeodEoh0GlhDqc/TjCHAK8/XjaHaS5uuOZgyXRqvnm69z1OZ76kdc7yZdaFVe6ycsgEIazcuN7d7ksHx6nXXWecJn4xOJOga2yyAy0PJFl0Ex7NqjFbSaT8QAFuDYKMVOSGbN6WpYYWiFH6cyxVYalh9bwGOFoV2F9tprr7IgSXoWBFn8Y6m0RUZWAIpKRCjm6HverkdvectbSp6LFy+uLr/88rIoSiQjTy21GY8cVkvvnBWQG264YQnl4Stf+UpJ1zUtvgVVr3nNa8pzZOD09S6DVYcc/MorryyrEU0Tlp5FRgGRxM0331zdcsstZZnycDszJxIDGyFYaciROIVVjWuvvXY5b+MRBMGhrDK08k5rbKWjczYrtU8ix7ZgCUlwUEt9OW/Aqj9Ox+GE2dI1ZsEx7a2oS+GaVYXStbRaOvYMcK8t0TzHqckgbc8I660yJDcnthwZmSEMy6rtwUAufX15cWbpWz5sRWWspIzl1lYjxmpKhNZqIxXnEJ8yJRLDYWAJwVJdjmVpsOW1DrBs2Nx5y4ntSfC6172utOAcDilYHqzV3GOPPcqGqAYiORSHtZQ3oCUVKdh7cP311y8tu+ekYYsz6YkA7EHI4UUsIobYeclyYI67ww47VLvsskshLBEJx5WmPRs5KBLRNZAex+e4W2yxRbXrrrsWwrEbEZJBXBzeXooOhIKwEAL55LPeeusVvYA0DSgqV5CQaCmRGA6T7rUjAhC+czCbpZ5++umli2DFHefgQFpXTow4ONc+++xTbbnllsVpApyveX9BDsbxteK6FieccEJ1zDHHVJdddlnpRthnMBb1aJWlF3sM6Fo4nJev9GMVIKJAIBzfgKGdnD/5yU+Wv0cLsopULr300kIqG220UW5SkhgRk44QYtty3QgtMUfwWk5XgWMKz/XDtca6EjYqsRU556tvPebe5hCbIyMJm6JIV/rIxDJf0YQWve7kscGIv/3G3w5p+wUtuPEQZCKqEFFIXxehE8RWb1EmIKvuim9VkFf6CCeRGA6TjhA4hVF1TqJF1CIL9zmbENt7ey21QUUfKDHYpguADDjmcJAWJ9MdEWVEq2+HIs4rIhjN2n8kpUXnsMYdgkiQBscO4mgHYxGiIGMnEaFII3aNIrOxiiSExEiYdITAWfWfhcq+b+D9u3EFk4w4hv62twWf+tSnqo9+9KNlhB6JcHBhPCdEJBwx4G9kwNld8w0DjnfKKaeUQ5fB+IKByrgXUYQjc27nHPWoI855xpsQrbtvNnzsYx8rbymE/AYOmyOVZtizwXclREExhhGQvnTNWWh+JZlINGPS7YfAUQ0OihACnBMZGFTTArsuiojQXWsqctCPRw5aU4OKnJEzuVf04HnRgPf9SMY4BXB4g366ExzQq0rjFV4D+l/LHPIYNIyBP68XySBv6YtSDFqSCfnI22GcY7gBQd0FbyTIICqok1m+dkx0g9wgZZLDIKi9IX25au7cuWVeA1JKJFph0nUZEn8O0Ui8MRHVNHcpEok6MkKY5FC9uiEmPem+IAbdikSiFZIQpgDiLQsgBUci0QpJCIlEooEcQ0gkEg0kISQSiQaSEBKJRAOTZgzBJCErB01AMrHHQJoRdcXztwlABtNMIhpvmBVoMhNZTIQyUai+R0EzyGhClMMUZjDJyIQq8lpa7dVhp1ufyVOZ5UsXE1HmZsjfZCllMukqJm8pU6667F9Mmq8/m1147LHHlhl+XrFZ5GRWHqM0S5BhmoloVuJ4w0QgqxW93rMK0qzF+PpzK3AeMwpt7GKDlFh3QF4EceihhxZnsi6hEyAjC7g4IVKYiDI3w3wH5VAeG7/EXhCmfsdMzUT/YdJ0GbSyDC62HjPlFyz8sXjJDkom5kwE5B2y+Nsv+RATR/VbD8z87Yj768+ILObNm1f2dugU9mVYsmRJiZgQ4mhgOvSNN95YLVy4sEzVHg3IH+WplynRv5g0EQJntxjI4iatkNbRugO7G5nH75oW1/oBrZWVj1pPRmptA9IQajNcC6NM5rEm4d577y2Lh7zH10oLdzmIFt0z0uJ48re4Sb6cSRfGUmZdFXsvWA1pxyXhv+uWSseiJTK4XzTgefLrIpCfjCIH042lozty5513lgjI/gvSk67ndSmU74YbbijrF0Qeuklk5ohaa2Vxv4NsrokgyC9N5RVhyeOhhx4qIb41Gc4hGqsqkWyszSArfUiPPshEn3QpT8SoDOSPMtFjoj8xaQiB8TFuqxaF6oyOo9nrwHZmFg4xTAbPqC1VRgoIgFML8aNva48D54X6lkkzdM5lTMK4ACfUel5xxRXFOfzPoaSJdDg6B+D0wmOtvP+F0BxSujZyIU+ArPLn9JGPvzne29/+9nKOY8rrnHPOKRu0ICxdEtEPQlh33XXLdQSojBw1+u0IbdGiRYUU3EMP5KQDstGBMiHQKDeC22abbUoa0rz22mtLvrabQ2p0ZOEVOZDQmWeeWc4jAXlatOVZ6SgPMpBf6DnRf5g0hMDIbIXGcTgS4+OI+uKM0vLi3XbbrfxyBK26FpUjcp7YKJWRX3jhhdW0adPKtmS2M7NdGUNn+LYp45AccO+996523HHHcl1ozjnth0gOzoCYOENEI1pIeVhgpGXVQoOowNhHnQw8i1wQDXnkawwBsXFa+0keeOCBRT5Rg/vky0HJhgB8W8LmsMooYpC+bd/IvOaaa5b9ILTm/kYAiMHGrzak9QyZObcxCdGB54844oiybZzoAdlusMEGRcdIQvn/6Z/+qWw2a0s7ZXAok4MelDPKneg/TJoxBGGv1hgxODiTX47HEBkz54xNSoXh+vMOrZ7WvL5DEYcWbWj17aEgbS2nSITxe95zWk17GCAVDmEwTZgu3wjX/XIC54KokEAd5A+5HZ6JLkUzyILAkA+ZER4iQwIcTuvsnLyUm8OKCMinpV+6dGkhA5GTrpR8yCTc19K7xuERgjTs9iwSQgrKe/XVV5dIw0pKXRRkSF5p0CPik7/nyaM8ft3TXO5Ef2HK1Q5SsKWY/jpDt8uQ1j9a5UDdkRkzh9VqAlLQRxaSx3Zs7hvO4D3DYTmPX/+PBvLhbEF+nbS28kIYZBYRKC/iCvIA5UMcogERh/Q5N10pk3zozFiCw/0ikhh3UXbEKz3XEoOJSU8I4TCcmWM4tNRCXQNhNiC15bnWjYMFDCpyHs6rZdWXD+dxv+84CJ/f8573VEcddVQJlTfbbLM/I5U65MvZYvOU0RJCJ6iX2UEmuzztvPPO1SGHHFI2n3XMnj277N3IqY1t6JLMmTOndEUOP/zwsvGsZ3WzdFk8H88quy6J7lJdb4nBxqQZQ2gHzqFF9BpO6yx81bJpZX2fwbXp06cXJ3dNqKzP7h7Oa2MRfXYhuld/Wk2tIae+5pprSnfBdfeaayCEl04zDErayNUAoPDbWEInLSliqo8haL0RlC6NgUkQ+htD8IZFpKPMohfyadU5ta6PMF/+ugT6/8hOBEBmYxPIkU6k57p8jEcgBNeRhvNxTWRgE1d56G4Yl3nzm99cyDUxmJj0hMB5OR4nMVGJQ4fBMmzn7ZqsK+G+IAStvYE7rR8n8xk0DidKEGHoH0frq58tXWMT+uyutYKQXPjtGeMT7cYI6ohWPnZP9jwZlCXGPLTwCMu5CNuF/KIQ55BBhPeI0D1kQGDkUEakRh5pGgB0Hcl5I2EPSmm6z+GayMDAofTpjZ7pAdHJIzGYmHLLn7VmWl2ttPkGyEHYHzBQaEv1BQsWlI+lTAWIdnxjAunpQgDi8VpVxOB1IgJITH5MuUFFI+NGyk866aTSEsb3GKcyDC76JqQugVmRDhuyIooZM2aUaCMxNTDlIgQDhV6Ved0mjBaG1/u8xhSsRfA+3jv9qQDjG7oH3h6InkC3R9fCK0TjFfnmYGogd0xKJBIN5CyRRCLRQBJCIpFoIAkhkUg0MFBjCCYWmQBjsMuR77sTid5ioCIEcwdMrb3ooovKfgSJRKK3GChC8HrQ0lzTd7/5zW8OnU0kEr3CQBGCKcM+6262oUkziUSitxi4QUVrDxyJRKL3GChCML/eSsJOFgUlEonuMVCEYKWdRTbm3tvcxO4/+XnzRKJ3GChCEBlYaCNSsP7f3Hvz8BOJRG8wUIRgPb8tyyzAsf/ALrvsUuYjJBKJ3mCgCEE0YCuzGEuIjU8SiURvMFCEYOcgrxyRQC7HTSR6j4EiBHv4GUQUIbTbpiyRSIweA0UIBhLt/WcNQ+wnmEgkeoeBIgSvG23sadPPtddee+hsIpHoFQZytaOtz3x2LJFI9Ba5hVoikWhgoLoMiURifJGEkEgkGkhCSCQSDSQhJBKJBvpuUNGn1e+///7qG9/4RlmnsOmmm5ZpyiYjJRKJ8UXfeRl+euyxx6qvfe1r1Z133lk+oe7/RCIx/ug7QrBNmk+f++6iryX7xFgSQiIxMcg4PJFINNC3hGDxUi5gSiQmFn1LCCuttFLZMs1Xmi1qym5DIjH+6FtCsN26twunnXZadc8995TPuCcSifFF3xKCyMD+B9OnT69e8YpXlL0UE4nE+KJvCcGuyo8++mh547DqqquWpc+JRGJ80beE8PDDD5flzoggJyUlEhOD9LREItFA3xGCrdYfeuihsruyzVS9bcgNVROJiUHfEYLXiz7kahDxRS96UbXKKqvkfIREYoLQd4ubbLNuurJIwTRmA4r57YVEYmLQd4Tg2wveLhBLV8HkpEQiMTHIPRUTiUQD+ZYhkUg0kISQSCQaSEJIJBINLJcxBAOHZiF6m2Alo5mIL3/5y3O9QiKxnLFcCMFbhAcffLC65JJLqjvuuKNMTz7uuOOqNddcc+iORCKxPLBcugxPe9rTyqSjvffeu5oxY8bQ2UQisbyxXAhBF8Gko5e97GXl462JRKI/kIOKiUSigSSERCLRQBJCIpFooK8IwZZp3kDYHCU3VU0kJh59RQhWOvpS07e//e0yPyGRSEws+ooQfKnp3nvvrebOnVs+45ZIJCYWfUUI5kiZxShS8JtIJCYWy4UQOL4NUH71q1/92fcWzE947nOfW22xxRbVC17wgqGziURiorBcCOHxxx+vfvazn1XLli2rbrvttqGzfzz/nOc8p5o1a1a1xhprDJ1NJBITheWyloHjiw4eeOCB6kc/+lHpImy++ebViiuuWP62S5Lpzbn9eiIxsVhuqx0NICIFrxkRgM1Uc7u0RGL5IrdQSyQSDWRMnkgkGkhCSCQSDSQhJBKJBpIQEolEA0kIiUSigSSERCLRQBJCIpFoIAkhkUg0kISQSCQaSEJIJBINJCEkEokGkhASiUQDSQiJRKKBJIREItFAEkIikWggCSGRSDSQhJBIJBpIQkgkEg0kISQSiQaSEBKJRANJCIlEooEkhEQi0UASQiKRaKCr7zL4RPtdd91VPqri24srrbTS0JVEIjEZ0FWE8OMf/7iaP39+dfnll1ff+ta3hs4mEonJgq4IYeWVV67e9ra3lc+w3XfffUNnE4nEZEFXhOADrLoKvs34m9/8ZuhsIpGYLOiKEJ70pCdVK6ywQvlNJBKTD10Rgs+zP+MZzyikkEgkJh+6IgSfa1999dWrZz7zmdWDDz5YLVmypHzSPZFITA50RQigu/D4449X3laKFkQNiURicqArb37ssceqn//859XDDz9cPf/5z6+23nrrasUVVxy6mkgkBh1dEYLI4Je//GWJCp7+9KcPnU0kEpMFXRGCbgJS0G3IrkIiMfnQdZfhpz/9aXnL8KxnPWvobCKRmCzoihCMHdx6662lu+BtQyKRmFzoanGT8YNly5ZVL3zhC6sXv/jFZSpzIpGYPOiKEH77299WP/nJT6rnPe952WVIJCYhuiKERCIxuZGvChKJRANJCIlEooEndBm8WvzFL35RZiQ+9alPrV760peW31zhmEhMfjwhQnjkkUequ+++u1qwYEF18cUXl1eNJiMlEonJjycQgpWMG2ywQbXqqqsWcvjhD39Y3i4kEonJjycQwlOe8pTyWtHko9///vdluzQ7JCUSicmPtoOK1irkeoVEYmqhrcfbDCVXNCYSUwttCeFVr3pV9exnP7tauHBhde+995ZvMiQSicmNtoTgVaNVjb/73e9yDCGRmCJoSwj3339/GVCcOXNmtdZaa+XOSInEFEBbQtBF+PWvf527LCcSUwhtCcFkJEeSQSIxdfAEQjBeIDJ49NFHy/+5s3IiMVVQVf8fc+KGKmMIEgkAAAAASUVORK5CYII=;" vertex="1" parent="1">
          <mxGeometry x="-1330" y="1425" width="429.28" height="530" as="geometry" />
        </mxCell>
        <mxCell id="JH1jl1z9PuXV7L6DOCS8-30" value="" style="endArrow=classic;html=1;rounded=0;entryX=0.5;entryY=0;entryDx=0;entryDy=0;exitX=0.25;exitY=1;exitDx=0;exitDy=0;" edge="1" parent="1" source="JH1jl1z9PuXV7L6DOCS8-52" target="JH1jl1z9PuXV7L6DOCS8-28">
          <mxGeometry width="50" height="50" relative="1" as="geometry">
            <mxPoint x="-1610" y="1320" as="sourcePoint" />
            <mxPoint x="-884" y="1155" as="targetPoint" />
          </mxGeometry>
        </mxCell>
        <mxCell id="JH1jl1z9PuXV7L6DOCS8-31" value="" style="endArrow=classic;html=1;rounded=0;entryX=0.5;entryY=0;entryDx=0;entryDy=0;exitX=0.75;exitY=1;exitDx=0;exitDy=0;" edge="1" parent="1" source="JH1jl1z9PuXV7L6DOCS8-52" target="JH1jl1z9PuXV7L6DOCS8-29">
          <mxGeometry width="50" height="50" relative="1" as="geometry">
            <mxPoint x="-1150" y="1290" as="sourcePoint" />
            <mxPoint x="-898.6399999999999" y="1420" as="targetPoint" />
          </mxGeometry>
        </mxCell>
        <mxCell id="JH1jl1z9PuXV7L6DOCS8-32" value="" style="shape=image;imageAspect=0;aspect=fixed;verticalLabelPosition=bottom;verticalAlign=top;image=data:image/png,iVBORw0KGgoAAAANSUhEUgAAAQEAAACsCAMAAABMx+lLAAAAAXNSR0IArs4c6QAAAARnQU1BAACxjwv8YQUAAAD8UExURdTU1NDOzgAAAJRTAAAuLlSSsQAudLPOztCxdC4AAAAALnWxztDOsXUuAFSSzi50sQBTkrOSdC4uALN0Uy5TktDOklQAAJSSUwAAU1RTALN0LpTOztCSUwAuU9CxknUuU3UuLi4uU5SxzpR0U7OxdFRTLlR0kpRTLlR0sf///7ZmAAA6Oma22wA6kNv////bkDoAAAAAOpDb////25A6AGaQ22a2/zqQ2wBmtgAAZrb//9u2kDo6ANuQZjpmtv//tmYAALa2ZmZmANuQOv+2Ztu2ZmaQtpBmAAA6Zv/btpA6ZpA6Ojo6Zrbb/7aQZtvbkGZmOrZmOrbbtjoAOrsrmIAAAAAJcEhZcwAADsMAAA7DAcdvqGQAAAuMSURBVHhe7ZwJd922EYVtNvVe221sx41dJ02XVEqtvdbSxFLyXtPY6Zb2//+Xzr0zAAiQjwTfIlIW7jl+CzgDzHwEwAdAxzeKbty81qqqQqAQKAQKgUKgENgcgZ9Voo9+7j5Vt25reafu3L133z5ejjZI4MEvmHf18DoTeISXxyAgLxPVJRB4lBD45a+qexgaH9+tqie3bz59duuTu89/TYtPq8faB+Ra3cb7bECbHwVIQEeBDAfRHUmqev7Cj4ynz/D9ExSJx0MS+BSX5N3ZOJ9N6BLmgScxgZfVb168+uwFM3317N59IfAYPUEuv5QsUS5fHt189fl9b2M+9F+3Nj0K5HbyXoZRgHv+2y8kW9XDp5KhFMME/5D1nbt6v2s29NmINk6ANzeaBx78Tga53FafHQm8rG79HrccBNAXYOltzAdla9fGCXyc9oGXT27jCns4ZATk7Q94XmofwCj4TEcBZD78vG5dwjwgyes8UL+x6BfQ8xdGgN8lR2bNa+5dbJzPJrRBAhr/R3/0zwIl8OBL/aH44Eud4B0ByRIGJIBr9/4UbJzPJrRJAldDhUAhUAgUAiDAifoaqxC4cWNrJFWVfRhVhUAhUAgUAoVAIeAIbOPB+NWf3afq9Q5Ke7S7t39gH5cRCRweobn9v2jRCDICGkdVvRmJQFUda9nlKxA4xssJCMjLpcgRkJa3q9MzLbx0JQTkTkQE/vp1tY+h8c1eVb3d2Tq/eP3t3ul3tJhVJ9oH5Frdxvv0KhDYmpNAWsPfvpbx8f0ObKRzzqVjagBny7fZVDwKUJmOAmlRtCsNIDY3Ms4v8P1bFCEqEpjhkrw7G+fTr1of+DuGXVoDa64Ed50ALy3fZlPJPPA2JjCvfjh79/6Mmb672D+QAE7QE+Qy7hrK5cvx1rsfD7yN+dC/W/V5QJzTGlizYNg/iAhoAMu22VR9FLA1IRBGgTRV/eOf0rbqzbm0JsUwwT9EsItOKarZ0CdDNQL7zFDlatCRIV/e1AkggBXabCoigNYiAluH/5IBJ4h9SyQgsfwb+EFA46xFYz4o61EYBUSf1rCYwAptNhUR+Aa11AnM3+7gCnsbZATk7T8SjvUB9Mj32iMh8+HnbtXmATyF0hpYs8A5PcPlnXdHtT6wdJtNJfOAJK/zQB0y+gV0KkNTm8R3aY8R8Jp7Fxvn069AQBpqqUG/KwbKEVihzaaMgNb1lTx5fK0oPfxJfyge/qSTrSMgLcKABHANP+mcjfPpV40A7nKjBnRtrQolP/z3whNYvs2mHIExRAKjqxAoBAqBQgAEZDq91ioEyigoBAqBQqAQmAKB7aytadMg436tRkC3VNrX5f2BegLnFwMWtjT2OwMZOjxykUhIbnUb1EOgZwtydrL7v4PVCcwWt9AUjWcD+kFEQF5qW2BQN4Ft7jq0NTcnytmJ37FqKJ/A4VESVJfUOE0jTwwpzaaTwGxxV1MCXconsLs3YBCo8SURiO4NNqLgi3FhG1jS+/FOIw4Xn4gUn7A559UqRwAx2a2VT9pAcN0+2ZZ3V2oJgECfC6wpRuJDGkJgdy+McIw+DKjzi+Otw/dn1gcwBfCmzBHBHEygbTGeIQbnpcWpjACqDOm4Brwrd25dqRqLYZ1Au0sQEvchDSQgaWGTEo2QMQ5INMswChCIBsNmRGrD0MwLpU0ZAV6P0hEFV1bqmrXKGFmPS5A3AYpGODl9QBzZybk9y619V49uMZ9Y465yG6p1r1YZAcbl07EGgqsOeWu2nkSfixcjsZDk9VyDdeoicH6hNfkaVDznZRDscgjELs+VfY1A1FYqJaABhXS0geDq0mGzFj3f+l1MPhLapkF1EXDPAnH0vRBCHSTAyhCIsdJo5Jt1ucirKSXA57uYh3RQb3D16aA1MzbrXheVj4S2Q+YBSQ4THO80Ycxf78ylcmTP5Jk4p52ZzoRGF+OQs7Hz0uJUJKB3UmnDxzXgXZmOlTpjLex2CULiPqRhBKQ+jCy66IyIhPXJI+9vhAOeMWgPhgiAwvRwzJacV6tIgChF3sc14BtkOlrqjLWwx8ULBGoh4aWmHgIbFQm4fp0lb5zkOERTI9AzVcQKxmkaA5TCG70PLKf+tSH+pICK+xhXs5GuKIE1qhAYl4D9l1CjqvSBQqAQKAQKgWkQsAVengYZ92tlAos3waCuA4VAINmz6NZi4+5QFqmFgK6Jc9XdbNeBQiCw3OqoobURmJ9+Fy8euBvSokXlNXUdKHgCftWfo0zjjNhMLQS2T2y3y2kFAp1yBPyqP0eZxqsQkHHGVajClmkH+w/6l69u/2HGD1bOiQl7E+jrKOM9ahRwHzMO3hHAUte3RkPYdZ0X2IGAM8H2BxaBwb0Zs24QtahJAB0AVYWYlCfGH0catsXISMthgf2pwx8PwvlBoyA+UFAZgZg3vvWeF+iBgDOhL7fBgntLzAvUIMDq4J8Q0CkYH7nFEMjIp8OjWmbwaylgBPFGvhFgNb41TbHeHHys1IxdmZnwA03D5iztkkra1SDAO0aSMQH24rAbHxHwY1O7o989DwUai3k4GQFUVWst47xAy7wJfa0POMO2mNvVIIABLMIf9buYrDZLqoMAOxz8FhXEU6wSOCec0Jq8tm7+188LjICZEDNqDu6tMbcrJaCRcNjGmfp+2ELAXWOLqKGlgNVqiE5KwJ7vvlaRuCXNQaisbuxN5CeHfgjurTG3KyVge/6I2G3Hax7Jbjwa03J8somvdn7QKNCZkJU7kYAh961lnRdoQs5EtwRhmpxnJJW0KyXgpgx5R+fSLXZ5tkh90W48cbOcn+zhh4Gn5wd4HEUF0YGCigQ0VO3K2ecFlpCZHB5JKQYcQnHujC2ppFWNeWBd8l1zsUjA+nWe2o21dFBFNW2MQPRAbBcIhKGaoQXGHGE20wzXpghsp12+RToTrkHo6/GPrQHaWB/I0NoIrKRCYFwCtmU/qkofKAQKgUKgEJgGAa4tcjXIuF+TIGCr/jzBuBUCNyOGaxIEBq+OPjQCbtWfJRqvcyBMgYBb9WeJxh8agSXOC/DCfVCU6XasHhe4w4x8TYAAV/2eAL71nxdIuT+B0HFhswOsF2wjLNAECHBTMyIg0scDLnHfzidFY9ipA67SlJbsA3oZ1/I0AQKMN4yCrPMCkOKgkMzjPnAFCWgqgYC89p8X+DOKue7o+uOCq0jAfgzUQ5fswlh2BPgUcMboAywHi/pxwRUkYON54HmBlPsTiPpxwVUk4Lr7sPMCXHAnEPFxwdUjMPgXcUNaOKieusYmMOjZ3W682nHB+H1gDVrpuOCDILCaCoFxCdiW/agqfaAQKAQKgUJgGgQG/ZAfZNyvSRCwVX+eaHx5/x/RRuUJDF8dcb80UxEBeUkWEFMg4Fb9WbLNpKXWQSSQwpsCAbfqz5Iaf2AEEFPYJ8w5LyCBPhdYU9r58aed+DBBAlz1+3Twrfe8ICbQ7hKExLGXPPz/I9q0jACPAKJ0RPp44CkAZj4rNWMdCj0uQd4EKKyGoAkQYFyhS2ecF2gSfS5eYmKzB5yNlNf4BDSgkI689p4X8K3fxRQTCGaq8QnYjwFGrekgSN/tQzoI3f1yUOteF5WY1EbB5OYBvZMSGHqvTFVZ5wVa2O0ShMR5qjbNmdB1ykHnBVrY4+IFAt52egRcv86SN05yHKKpEQiDN0PBOE1jgFJ448+ES6n8f0RrVCEwLgHbsh9VpQ8UAoVAIVAITIOALfDyNMi4X5MgkOxZdIvG5bxgyLqgnBcEkcDkVsciv+rPkRp/YAQQU9j0K+cF8q2cF4j08YBL5bxAh3w5L9BSFz3f+l1MMYFgphqfgP0YYNSaDoL03T6kg9DdLwe17nVRiUltFExuHtA7KYGh98pUVc4LJM62zf9yXqDyxkmOQzQ1AmHwZigYp2kMUApv/JlwKZXzgjWqEAAB6y7XVtedQFX9H3fage8xwSi8AAAAAElFTkSuQmCC;base64,iVBORw0KGgoAAAANSUhEUgAAATIAAABkCAMAAAAyuEypAAAAAXNSR0IArs4c6QAAAARnQU1BAACxjwv8YQUAAAD8UExURdTU1NDOzgAAAJRTAAAuLlSSsQAudLPOztCxdC4AAAAALnWxztDOsXUuAFSSzi50sQBTkrOSdC4uALN0Uy5TktDOklQAAJSSUwAAU1RTALN0LpTOztCSUwAuU9CxknUuU3UuLi4uU5SxzpR0U7OxdFRTLlR0kpRTLlR0sf///7ZmAAA6Oma22wA6kNv////bkDoAAAAAOpDb////25A6AGaQ22a2/zqQ2wBmtgAAZrb//9u2kDo6ANuQZjpmtv//tmYAALa2ZmZmANuQOv+2Ztu2ZmaQtpBmAAA6Zv/btpA6ZpA6Ojo6Zrbb/7aQZtvbkGZmOrZmOrbbtjoAZtn2hV8AAAAJcEhZcwAADsMAAA7DAcdvqGQAAAc8SURBVHhe7ZwNV9s2FIZB6/gesBUoK4zuu0u6AiEMAmtJ2mRbofvq9v//y+57ryTLdmxHxrNjjt5ziGPpSrr38ZXsyD1dCPLXYpCPlArIPBWQeSsg81ZA5q2AzFsBmbeaQPaRIj362HxTS8tSnquV1bV1/bVhNYBs4xMGpTYDsllFyLbwsQ1k9NE2NYhsK4Hs08/UGmbr41WldpYXd/eWnqzuf84WT9W2ZBnVuTa2TZ1qbmIiYpmYNENJK0RB7R/Yybq7h/MnKKIWm4zsKaroaGxMm1rV4Fq2E0d2qL44OHp2wGiO9tbWCdk2co2qDwkLyulka/Hoy3Vro9tw+9rU1MSkhOFsiSYmsuqrrwmPaHOXkFAxTPAHTCurklGODbepV40h4/SJrWUb39BCRYljcTCyQ7X0LZIKyJBtsLQ2ug3K6lNjyB4ns+xwZxk1POkgjYwO3+ExRLIME/OZTExIt+HvtanBtYxoyVrmpg4yD9o/0Mj4nKAwJq4zR7IxbWpVA8gk4Eff2zumINt4Lj8JNp7LbdAgIywwYGSoW/shsjFtalUTyFqugMxbAZm3AjJvBWTeAjK+bQXNroDMWwsLnYaklP7SLgVk3grIvBWQeSsg81ZA5q2AzFsGWRfPGy9+NN/Uy2OUFujktHemv5YRI+ufY7jeT1LUBmlk4rhSFw0hU+pSylqgCNklPgZARh+1yCCjkbvq6loK518JZHStY8h+fqV6mK2vT5W6Oe4MRy/fnF69ZYuxGkiWUZ1rY9sUKkLWmTCyZA+/vKIp++sxbCj9J5T64sB1+TErUHxiYnSZmOQi6YQ8QjBmsg5HOH+DIoTByMaooqOxMW2K5WTZb1gJkj1wz4quj4uMq8qPWYESa9lNHNlEvbu+vbtmNLej3hl5PECuUTXyAuV0ctm5fX9mbXQbbp8vdy2jxskeuGfi1juLIRMHyo5ZgdyJye4Rsmhikm/q9z/IWdHFkNyjYpjgDy6fYJ6QHBtuM4McZD1GIjI9yGSlkwsXGRy4x5gVKIYM7sWQdfp/0qJBF9G6xsjI+b9wgYFMAnPc121QVqBoYvK1SvaQjeweY1agGLLXGNZFNrk5Rg1PAEgjo8Pf5L/OMkySO5kkkG7D3/PlrGW4Vyd74J6J5tU1qo9vz50sKz1mBUqsZURL1jL3MiLzoCtaXsRHnJOD7DLXmSPZmDbFipDRQFN6kHPhxjLI7jFmBdLIZPAXdEO3bqC0/0F+EvQ/yC3JICMXYcDIUIeHd2Nj2hTLQYY8SvWA2SZdoeTdPyOLrPyYFcgga0KMrH0KyLwVkHkrIPNWQOYtIKObTpCPAjJvhYnpqYDMWwGZtwIybwVk3poPZN2ZXmjNieYC2XCUu2/TP08QTRXUKn9kwxG28igv8h2fIXEssrFsNWWpVcj6vIMcl7CoEln/3NkHlg05o8TplIL6lY9scvXWeRHAOvmXM6KQiAeyk9PourQeWXcwyZgzVSIbwxSvIvXeNU18HM2m+iX3FavnzrG7TaZSUaNykdGyrFeuAfnHDHQs7HQUCV19KmcDiIwGHFWsNCWNjIfAR//uWmdRl1FQv/oUO9ixeup0TN/6789MRX3KRYYU49Dx1okjs7Gg2IkEC7hd27p0MgaqWGlaGhlT4N7NCYtXuBgyyBb0z6XAVNSnPGSR012TWLbYQUaSpwQdrpRxpVM6RRqZ9MuvMo21vPBykcXrqcAugLqiPuUhY68YgEVmY8FJFAmmJ0l8l2A4Kqd0igTZ0DyU8b/+YSScmfEsi9VL57qZrqhPecj020PyxyCLYkEUUSSO/zFkTukUCbLooQz2jIQbppBF9ShwJ2TRQNUqBxn7TF7jRqWRRbEgiiiS2ILiTEyndIoYmRlF8+ERhiOMgGQWGNRXrJ5H1su/qahPOcjAigT/DbIoFjjtRAL/OxNByMt/l5d/tzQtRiYM0Kvceul4QYW45/Kg/GiBwdx6FPAkwKKhK2pTDjJEro92LbOxaGTWYfiPOCAseJf8sOWWpsXICn4szaHy1rL/W0BWNHnnUE0ja6ECMm8FZN5qFpn+v4DbpZBl3grIvBWQeSsg81ZA5q35QMa/GduiuUBmt8ymK7Wxm7PTW4Puhyzxm9ozFIus4Kd5S5DJ9mKBZ8nsKIlMb5mxEltfqZ2werfGpioTWeLCTw1lnBnqTDLIzJYZNHUcR2XGqVj3QuaoTCgG2QN5j2mRlQ7F2GbHpJHxlhk+Wv4e0yArHYq1zY5JI+OmsLInrPjrkng9Fczfe0xe/sm90qGwYJsdk0YGzhiQe5B+Wvke007M0qFY28yYBNnwobzHdJb/cqFEtpkxCbJoJDTlfriP1DhRPQrc5HXw1aAZkJULJbI1JykxMm3yAN5jGmSlQ7G22TExMmkIU7mv0rGl7zHt03/MVZ9QrK2xSImRuencDmUhq0NAln0/nVs1jayFCsi8FZB5C8hoeQ7yUUDmKaX+AyqiWO/X/vF3AAAAAElFTkSuQmCC;base64,iVBORw0KGgoAAAANSUhEUgAAATIAAAB8CAMAAADdPcxfAAAAAXNSR0IArs4c6QAAAARnQU1BAACxjwv8YQUAAAEdUExURdTU1NDOzgAAAJRTAAAuLlSSsQAudLPOztCxdC4AAAAALnWxztDOsXUuAFSSzi50sQBTkrOSdC4uALN0Uy5TktDOklQAAJSSUwAAU1RTALN0LpTOztCSUwAuU9CxknUuU3UuLi4uU5SxzpR0U7OxdFRTLlR0kpRTLlR0sf///7ZmAAA6Oma22wA6kNv////bkDoAAAAAOpDb////25A6AGaQ22a2/zqQ2wBmtgAAZrb//9u2kDo6ANuQZjpmtv//tmYAALa2ZmZmANuQOv+2Ztu2ZmaQtpBmAAA6Zv/btpA6ZpA6Ojo6Zrbb/7aQZtvbkGZmOrZmOrbbtpCQOrb/2zo6Ojo6kNv/tmYAZpDbtjoAOgBmZjoAZmY6AGYAOhT+1PUAAAAJcEhZcwAADsMAAA7DAcdvqGQAAAkzSURBVHhe7ZyLf9M2EMfBY0BLB2w8RzvYmzWMpk26NO2ABJJtFPZi7wfb//9n7H53OklO09hyQxQx/T4fYls+ydLXd7KjCz2VFa7TWSEqiowsUBlZsDKyYGVkwcrIgpWRBSsGsjcK0pk3da84e07KZ+r8yuoFsxtZEZCtvcWgiosZWV0Rskv4uAxk9JGaIiK7NIHs7XeKVUTrlZWiuHru9LXrZ2+s3HyXLW4Vl8XL6JxvY+ssUvECEyOWwKQIJZ0nCsXNdRus167j+AaKqMZFRnYLp2irNlpnoYo4l10tI9so3lu/fWed0dy+vnqBkF2Gr9HpDcKCcjq4dPr2+xesjanD9RemWIFJDsPe4gITXvXBh4RHdPEaIaFimOAfMJ1fEY/ybLjOYhUNGbtPaS5b+4gmKnIci4ORbRRnP4ZTARm8DZbWxtRB2eIUDdmVSS/buHoOZzjoIIOMNp/gNUS8DIF5RwITMnV4f2GKOJcRLZnLfNeB50E31w0yPiYojInP6ZZstM5CFQGZDPjMp/aJKcjW7spXgrW78hhUZIQFBowM51Y/czZaZ6GKgSxxZWTBysiClZEFKyMLFpDxYyurvjKyYJ06tRlJRWF20lJGFqyMLFgZWbAysmBlZMHKyIKlyFp437j3ue4V97dQWqH29k7H7DYRI+vu4nI7X0hRCjLIpONF0YuErCj2pCwBOWR7+OgDGX0sRIqMrtwq9g+kcPk1gYzudQnZlw+KHUTrw+2ieLS1ORjef7y9/4QtRkVfvIzO+Ta2TqUcss0xI5ts4asHFLJfb8GG3H9Mri8dOGh+zTmoHJi4ugQmdZHUph5hMBqsgyGOH6MIw2BkI5yirdponWp5XvYNZoLJFrjlgu6Pj4xPNb/mHDQxlz0qIxsXTw8Onx0wmsPhTod63Iev0Wn4BcrpYG/z8HnH2pg6XH+2/LmMKk+2wC0Tt51OCZl0oOk15yA/MLl7hMwFJvWt+PY76qyoN6DuUTFM8A9dbiNOSJ4N16khD9kOIxFpCxKsdNDzkaEDJ7jmHFRChu6VkG12v6dJg26i7Rojo87/gBsMZDIwr/umDsoq5AKT79VkC8cjO8E156ASsoe4rI9s/GgLZzgAIIOMNj9S/42XIUieSZBApg7vz5Y3l+FZPdkCt0w09w9weutw1/OyxtecgybmMqIlc5l/G+F50D5NL9JHHFMHuct8Trdko3Wq5ZDRhaa0IMfCjaXITnDNOcggk4vfowe67QZKuy/kK0H3hTySFBl1EQaMDOfw8q42WqdaHjL40ZEWEG3SFEqe/jS0yJpfcw5SZDHEyNJTRhasjCxYGVmwMrJgARk9dLJClJEFKwdmoDKyYGVkwcrIgpWRBWs5kLVqJbSWRM2RjWSxg9TdbTZii2wwXNC6zVw0E5lZ/RwMpyzeecM8MTJHPwXNRDbiNcdJZGNeshp5y90Npci6uydva4GajWz/Z+CZimwOUmTt7ZTisgrZL4g5Qca5Qhobr9ruyYyNBWY6x/soh7fAThFggfn4oFVkI67ep8bY1lTiaOXbA6R+q5FVgexgTB1lZNihD+yxlwHTiPa6zzu836IzGBuMuyaliFHPmOgMMrkjyNLwnlZi32v9igtiBd21GltVyDZbpr8y39CRQ9bdxVhln7cwEgAseUIcH8cGmWkP7VNDthIa6z57jLtRajW6KpG1t/fQX/OAxPAsMjsHAZnkqGjcnJNkcShzJmi6DDIBrshcJYrX9m+//0F3jC7jWo2uSmQUfX8SMoOHYmQ6Mo4/dUV5N9E6x0qQMREfmVZq/9UZ7XV3e7gmaWl+HFSNbDD8m71MaBAYi8xGi45U3xbMsKuiSZDxRagNg8xVorhv9ehlRl9nqu7AolSNDE8wGsVIpn/6kK4Dnjf9M1JM4WPaClQ4KG3HHHfTxMgUsyLzKo3uvSSffvoPLuy1Gls1kBEJMMKzXzpNrxM9Hp3/koE5qI9x42UD9hDOH0tMkKnvWGSuUnubNoMhd8JvNbJmInvFYmTmtiSk2MiW6e2hpqJ7WXrKyIKVkQUrLjLzt4DTUvayYGVkwcrIgpWRBSsjC9ZyIOPvlqmoETIa4exE3Ii+V7dfVn15tMjMklkimoqsy/+b43hVIRv822n1A5Cl9dV8KrLx/hNexDpuhaoqjoiW/Jx/thSZLpkloqnIWn1ZPG6KrKYU2bIst9bUNGQ0tfCajGQsxQeYkqYqcUD/8P/TeNVRy3XJkdcbJbY1kzktD6nIXoM8JlyMEXGHHTJNVSoy2JbKdWHb5Twxbkx7uAVH8pAGmSyZJZ3HZEZMawKZPemQ2dBFueY1pYZkQOEZZCRYJmSQSRsuXWKqcIuJ5DH59nIfJ5DZVKVFJnknLeeKJPPOQLW9pCRHcFkGmcBXZF4VOkgkj4kJiUTxUUbmUpUWGZLnVGTKFZnZUjxpCXQ0DynImAidtsi0Sjp5TEHE81E5ZHgwJWQyPFuu0eNynqV48vmxBJl5KXOBqVXSyWPy3C3jlk5iUm/RM8ymKhWZgevKdfp3OU9NSk7NQzIy04hFlmIek4PNbOntoUeDojcHvAhgmpFUpSCTaQc/PjDlsOeXDJfz1KQkzvCt8MTI1HcsMluFTtHmtc9j0vxj9mqIkaX1ZQmaMzL7+6k6ArJlenuoqfkiawW9Csj0n5zm7GVBysiClZEFC9dOUNnLgpWRBSsjC1ZGFqyMLFjLgYy/W9ZVkPEr0FIgM0tm9cTG9i+X1ZdLIxJz/RNZTbQUyIK+mrMxZ1jCVEJGH1g5aaRlQKZLZrUkxs0HTJIlpnDoRsuALGi5VYz/78i493XzmDJUWZAMS31KPGI1FDtJI5Mls5p5TLO+JsjqVVGBFJaa8RubxJGVkzLy9KQyTFpH85hi7EVndRUVW6KMvUwaaqIlQMYjsOOXhAKWKskPjuYx/eHWrKJiS0bNF2SbJoqPzHTdjV9HMi2PaYxlU6+KVRmZqxSq+Mh4znbjd/E0LY9pjI11rSpW1pKRJTyXBeUx7RtcCVnN1CcsJdPIlvhopOjI1BHs+GflMa3XlJHVS33C0uZkU0amoVZL1phpnUjpIjvyKjBLzrj5gFXNocef/hup9koG/9ISKjsz/5n+hkoUWUxlZMECMuO6WXWVkQWqKP4DpH/goTkDCusAAAAASUVORK5CYII=;base64,iVBORw0KGgoAAAANSUhEUgAAAVsAAAB8CAMAAADwz+PlAAAAAXNSR0IArs4c6QAAAARnQU1BAACxjwv8YQUAAAD8UExURdTU1NDOzgAAAJRTAAAuLlSSsQAudLPOztCxdC4AAAAALnWxztDOsXUuAFSSzi50sQBTkrOSdC4uALN0Uy5TktDOklQAAJSSUwAAU1RTALN0LpTOztCSUwAuU9CxknUuU3UuLi4uU5SxzpR0U7OxdFRTLlR0kpRTLlR0sf///7ZmAAA6Oma22wA6kNv////bkDoAAAAAOpDb////25A6AGaQ22a2/zqQ2wBmtgAAZrb//9u2kDo6ANuQZjpmtv//tmYAALa2ZmZmANuQOv+2Ztu2ZmaQtpBmAAA6Zv/btpA6ZpA6Ojo6Zrbb/7aQZtvbkGZmOrZmOrbbtraQOiJF8H4AAAAJcEhZcwAADsMAAA7DAcdvqGQAAAe8SURBVHhe7Z0Je9NGEIZhS4GEFGg5S1LoTWOam+YqEENMS6AX7f//L51vZne9ErEtLI1Xlud9ntgraXelfT0aOdJCLhiKXDRUcM7camFu9TC3ephbPcytHuZWj9a4/cQRlz4NJXf5iqwfy9Wl5Wu+2ELa4nblMzbqrpvbxiG3N/ByE27ppQu0ze2NktvPv3DLSBS3lpy7feXinbuX7y3d/5JrPHA3JW5pW1ontslNy3IC1EhOoORAXCVd7v5qzBN37mL5HlZRi+vs9gE20XuoE9pkp2359nbR7Zr7avXho1V2+PDu8jVyexPRS5vXyB/W08KNiw+/vhbr+DbcPiutygkUghx/w5yAOP3mW/IoXL9D7mg1quAHPq8uSYwmdbhNftrllgOykG9XvqNkSqEYvbHbNXf5e4Qp3CJ+UTPW8W2wLi/tcnurHLdrt69gC5/vwLultx/wLU3iFjnhkeQE4NtwOStty7ekVfJtGoyIZXB/1bvlZbLHPnlbeKc6oU122uJWzFz6MX5PELcrj+WXtZXHcvEPbskfKrBbbFv+aVgntMlOa9x2EHOrh7nVw9zqYW71gFu+LhsKmFs9LlxYz4RzvtBRzK0e5lYPc6uHudXD3OphbvUIbnv4Ovbk51ByG5tYO4Gt7Z1dX5wGdrv3FLvb+UVWdQrvVkbo3H4mt84dyLouMXR7gJdDuKWXmRDc0p577uhYVnaIkluKnoLbX5+5HSSK59vOvdhcP+lvvNw+esU1Tt2hxC1tS+vENhMZul0fsNtyD6+fUbb4bRN16IQa0MkkB3A8/T5nSTEn4DAlJ9BYiC06dIw65ImTPpZfYhXGy25PsYneQ53QZjJJ3P6OJFTugXt29EGmbnnT9PucJaV8+6LoduDeHJ+9PWaHZ/2dXRraIaKXNiPSsJ4WDtbP3u3GOr4Ntx9Pmm+pcbkH7pkE7+wW3MoBTLvPWZLmBB4HuR3mBBqE++NPGpWwf0LjoNWogh+MbQunKJHU4TYVSNzusDsh9CB5ghb2U7c4gBr7nCUFtxhHwe363l+U2Cgs4hjYLY3yb4QM3IqBZJy+DdZNYJgT+EMt9zDabY19zpKC2+c4vtTt4MUmtvC5B7xbevuHBurjFufnWzk/gW/D5fEk+RbfUMo9cM+k/egYmzfPniZxO/U+Z0kp35JWybdpYCCWwRGlQBkMlmkkPDbeFt6pTmgzmaFb2tE5PciyCGaC2xr7nCXerRzlE/q+E48Xa/feyy9re+/lQhzc0lhQgd1iG36tCnVCm8kkbhGZH/SAE126wpo3//aj2+n3OUuC2xyw2w5jbvUwt3qYWz3MrR5wS5daQwVzq4flBC3MrR7mVg9zq4e51aMdbnuVHivPG/XcwkkvuZVeZJKx6Pakv883ZUfWr7efXExwKzdOR950bsjt6RGebY7sp6tuxx92M25Z60l/5Cdobj+kqtutbUoJC+wWT024HAs95w5lzP4pBD+xYAHIJGQKW09HJ5ToFjvhpzJUVWM/uajoVjIixhAKPSqcYvR4dilraHQcgqd40vNuF2MejHuI5d1KxMqryn5yUeVahgkeOPRBoQAVHE/0gzWoToOHAGwiehuvxw7Zu5W23KHOfnJRLW55ThAkJwWMhseM0xOL8qwYz8L9QOnc9aM/H++WpYlbnf3koqpbP4xSIR0zn6+Ip+GYN/6rELcSosFtoftYqLefXFRzK2fmhwUeM6rQucpDxZhjHdrS8+fwuYhbZFaCW+nsJxdVr2U49gEtxAKuMb1wjTnpyw8vpNeYvadi7lzYLSwBMaWyn1xUdMsXNS6HArLeATb3DmgV1iBHHvKZm3w3YhMjYLfhzPZRqLGfXExwqwq79Smhi+R2G5NmB8ketx3G3OphbvXI69b/8Y6OYnGrh7nVw9zqYW71MLd6tMMt7gh0j1a45Vu4W4s2P0GV6FYejo25kWVuP5bglrWOvWljbj+W4JZv4ZrbRgluced7AecnqOLdSsTK6yLNT1DFu5U5B+xWnvnytIRYgHKOW/rxdSVFz/v8BFW8W5YmbhdqfoIq4lZCNLj1ukqF1G1n5ieoIm4Xdn6CKuw2/M4gphZpfoIq7Dac2T4KbX5CM7Bbm5+gAtzGpNlB8l/Luou51cPc6pHXrX+Q31EsbvUwt3qYWz3MrR7mVo92uOV7XI3QXE/1aYVbvoXbyPwE3xNuojU334HvGDO0JfxXqhVohdvm5ifwnR/+x0XN9McU3NLLmI4LtMEtaxh706aqCxHKNRvprwxv4Y+uCm1wy7dwG3EhN4PN7dBtc/MTZNiw1kx/HlYa2s2VW4kweY3TEmLhY+Yn+FhN4rZefwEoje3mym1z8xNkqySGJvoLUNVhu9hmIi1wywcsLmrOT0iH3kR/Aao+bBc+scnkd+uP1LvwR10qpC74PEacxTphfkLsSRZq9xcpuo31JpHfLX8l9S74JS4NC+wC46Kg5KHBRaxDW3h+gu8pybf1+ovQimG7Ocq3GBWQg68zPyH0lLit1R/3xUBpbDdHbsMZ5qMmTEuIherzE+K5mrit0x+aC1gR282R23Ai1yf2xJ70mBu3PrwaYNhT5cFPR+WPLv+1rHnin4eqBf4mGlM8sfjvkFWji27bgrnVA2597BuNY261cO5/3r0w+/Dw8bQAAAAASUVORK5CYII=;base64,iVBORw0KGgoAAAANSUhEUgAAAbMAAAB8CAMAAADU+q5gAAAAAXNSR0IArs4c6QAAAARnQU1BAACxjwv8YQUAAAD8UExURdTU1NDOzgAAAJRTAAAuLlSSsQAudLPOztCxdC4AAAAALnWxztDOsXUuAFSSzi50sQBTkrOSdC4uALN0Uy5TktDOklQAAJSSUwAAU1RTALN0LpTOztCSUwAuU9CxknUuU3UuLi4uU5SxzpR0U7OxdFRTLlR0kpRTLlR0sf///7ZmAAA6Oma22wA6kNv////bkDoAAAAAOpDb////25A6AGaQ22a2/zqQ2wBmtgAAZrb//9u2kDo6ANuQZjpmtv//tmYAALa2ZmZmANuQOv+2Ztu2ZmaQtpBmAAA6Zv/btpA6ZpA6Ojo6Zrbb/7aQZtvbkGZmOrZmOrbbtjoAOrsrmIAAAAAJcEhZcwAADsMAAA7DAcdvqGQAAAt9SURBVHhe7Z0Ld9vGEYVtNPW7ttvYjhu7Tt+plEZP15LVxFJCtomdvtL+///SuXdmdwGQBLCkbGCo/c4xCQIzs7NzsQsI2JxcKzjkesEVVVU080bRzB9FM38UzfxRNPNH0cwfLjX7SSV89NOwVd24qfs7uXX7zl3bdI5Hze79jEpV94tmbhDNHuDjITSTj6uGZ80etDT7+S+qO5gwP75dVY9uXn/85MYnt5/+khafVg91nMmxuk308YTjuREl17lRJknhlshQPX0W58vHT/D7E+wSj/vU7FMcku9gE3xc4fl69qip2fPqV89efPaM2rx4cueuaPYQo00OPxddsF9+PLj+4td3o4350N8NbudGGTIcL2luxLj6zW9FH+X+Y9FEdsME/6DTrds6pmo29PGFX804gBrXs3u/k4uVDJ2oBzV7Xt34PYYVNMN4g2W0MR/s84NfzT5uj7Pnj27iCOc9YJrJ1x/w14COM8yNn+ncCMyH227wfD0TufR6Vh88GHvg6TPTjL9FFerEY+FbbIKPKzxqphX/6I/xvlE1u/e5Phy597neDAbNRBcYUDMcu/OnZBN8XOFSsytO0cwfRTN/FM38UTTzBzTjvVfBEUUzf1y7tjMSVWUbhSyKZv4omvmjaOaPopk/imb+KJr5I2i2i9v+L/4ctqov97C3h/2DwyPbXAdqdvwSzR3+RXcVBmCaaeWq6tVImlXVie4r9JM0O8HHKTSTjw9C0Exa3q1en+nOQi8tzeRsb2j216+qQ0yYXx9U1Zu9nfOLL785eP0tLWbVqY4zOVa3iT69JM125tSsHeFvX8ms+fc92MgEMJfBrwmcrd/mNtCcG9F9nRulRsK+lATVDPPl+QV+f4NdqCM1m+GQfAeb4NNPbZx9h8m4HYGRKzlB6prx0PptbgOt69mbpmbz6vuzt+/OqM3bi8MjKdkpRpscxsjAfvlxsvP2h6NoYz7076Z+PRPndgRGFuEOjxqaaQLrtrkN1OdG1kc0S3OjFKf6xz+lWsqrc6mP7IYJ/qFm+5iqhJoNfQZQ0+yQmighgs6X8uNVXTMksEGb20BDM9SnodnO8b/kwiGncawNNZPq/RunODTTytbqZz7Y10OaG3mytCOs1myDNreBhmZfo991zeZv9nCEcxAwzeTrP1JAG2eYp97pPAXMh9vd1K5nuGNtR2BkkfP1GQ7vvX1ZG2drt7kNtK5nIpdez+onMsYeeC2XGC0SfkuFWDMeC99iE3z6SZpJQ0si6G8VjgTNNmhzGzDNtPdfyH11rAP2Hv+oD0eOf9Qbs6CZ1AgG1AzH8Bgj2ASffmqaYSQtRMCEp6Gw5/v/XkTN1m9zGwiajQE1K2RTNPNH0cwfRTN/FM38Ac3k1qvgiqKZP8rc6I2imT+KZv4omvmjaOaPaWi2O2iZl5Fl3MFlxfngbKSZviNd/tpqQEWiZucXGa9RaBzfnA3g+GVIRXIKbyZiHLwH7CEFmAbdmvWsjZmd7v/v6BI0m61uYhEazzKq2NBMPuyVLuIcv6y9k1+JK812+RpxWX3mPFtnp/E1/wIZmg2rnKHGofB5MCfrDuOcXyw/4ZagPZ4EXZrNVqfZ34MMzfYPMqZGNd5cM8bZOs0apz/e3qOzmC3trb90F9804iQaKy+7T1mf4LWcoBmqaMNHtrSF5Lt7uivfYa+VHJr1ucCaMJWYk2mGL9jXurHLKSMEZESNJLtCj5t1GIcOzfYP0kmokz8u4Sc7x+/O7KzDpYzn6xz5z9EngL7P0LPgpbsXMM14skcBQgvRl2uKwt4wMhqaLXdJQIWYk2mmcfQzdIO9wK7UHY2EAHY1sCZCk6PQqZlkjtUzSFE2kbZ2kpv81spp9ew8DYWoeWHvEkwzGjQEEJIvo4Z2LRpT63FJRBPU3iLoZwxr3ZBfcyzzit3RSPCjw0IdRmHAOJOMOVdwpRNXIoYu62qtU+uK7dSCNr2WY5qxklEAayH56qXL2lXj0Hq3S4SpWE7yeY5swya6GLrBISi+NNBWNBKM2eZCHUahQ7PzC+167LLC/4SFPeA8hMrZYTlF8VXTLHktQzXTCiUBtIXkGwRgu1ZOfvW7GDEV2nIzxhHNYjd25C8XHLBA6M6CZqEJbdI2PzAdmoX7Rsm4MRUg8dQDdNbU1fJpIRa8lqCa4RIhsDoWQQIn3ygAmjNjs+51UWIqtOX1zOJwd+yGfJzM5WitOxoJW+xxo0f0G4MuzWTOYG8kY8on/ZlLH5A982XfeJWe6UXb+sALAe9BzEt3L0DNdLToCQKn0EL0ZdlsbzDWnd0uCRY/5ETNQhxqkLohzt9BlNSdpJkqFJoITY5Cl2bIW0BHpRt2Gy3fSF6+MYngBpqd1VlewfXhRE/n4L4UahbO1ugUWogtatm4N57a3NnjEkHJaznJR4ij4yZ1o7bmVrtjjTMo22jXYQy6NXu/ULMw2w0iGrdUyQGaZTU6OcbWrHGF6CMZc8Ssh8id1ej0GH2crUf/c338J2mkOaT4KsI5TjW70hTN/DGuZvY/NS9kUcaZP4pm/iia+aNo5o+imT+moRkf6A0ly7iDy4rzwbkkzfjwP5eomb3NGgaNy/rG1eAxNteu9LCZZvnPiXOeNzY0kw97vIw48d1OJ940y8k294VS0GxY5Qw1Xu+5PjWzLjFOxsPi0d6WLTIFzeJbsSGo8eaaMc52a4Z3fFKntA6Jy1m0fK0lgPEINrrUCJqhERs+FhheYSVhWd/YZqBmGUsA4xGYda4BNM14skcBgpdebiQq48dYNEYte10SyA16XIH1jYD3IDYroEb9SwDTES1IB6ZZzc0EEPRWEocYP8bS0nFi63FJRBMkaRH0M6U4rHOxieQ4AgPHGZZTcP7ADjnJNXktkHaw2S1u960BNM1YySiAeXF2qi1WLOsbE8M044zDGg1dAqhrHbvXAKpmWqEkgHpZGPxifItl5eRXv4shJjXNuBnjiGb5nSPTXN8omGbMld0asAQw/hbqnVxANePfW+IAt+SVJp8oAGKZsVn3uihiosdoyy5ZHO7O6lxoQujs2/tkmGZZSwDDkd41gNRMR4u4iSXu0cr6xl4GXs8wkQ9dApiOyAY6ugpqFs7Wsr5xMD2avVeoWZjtBhGNW6rkAM2yGp0cY2vWuEL0kYw5YtZD5M5qdHqMPs7Wo6xvHIkNNLvSFM38Ma5mtmCvkEUZZ/4omvmjaOaPopk/imb+mIZmfKA3lCzjDqYWZzCT0MzeZg2DxhNa3zg0nwHSrsi0zSQ0y39OnPO8sVEJ+bDHy4gT3+100q3Z0HxyNUuZtpmCZsMqZ6jxes/1WQkrL+NkPCxe9bZscD5LNVsVtZ7pAlPQLL4VG4Iab64Z41yCZoPz2S7NkJudrrKFN5AoQ1hJOPH1jSmfnd2Tmb5GsPZjlNB4ypjvTk/YMKIGeKid6QIT0Iwne+wOfjla36gRTDMxrrVfi2KNJ82wRuH4h6P2OFuW6SIT0Ix5NwQQ9FYSh3j2214zZoX7XBLRBCWxCPoZwzLYOusbNY5NkCE8vVKU2HjMmC0BdY/IoYVMF5mAZswvdkfOMaTKeaW2WHGq6xsZx4pLY7TEjRQlNh4z1j2CeQbiIYYNIdqMr5kmlgSQz6WLFSe5vrGeT0uzFEW3JEimZtGqxfia8e8b6zBTZbJx8kkCoAtmbNa9LoqY1GYcXiUsDnezNCxn/vrGZj6IDDv+SlFS48EsxlnUrJ3pEkbXTM89SRB9lUuvq/WNzXwQQ4Nxby1KaDxkzA3cg2jUyGKmyxhds5C1y/WNzXx2T+UoD2r7MUpsvJaFHOOA0syNxUyXMbpmYXYZRDRuqZIDKpHVaAfNfDZIailT1SzO7ENIxqu6MwCpbFajHbTyuWzNVsUb/x5kLaa2vpH5rKlZdqZONbvSFM38Ac1saBbcUDTzRlX9HwB8f/WrlzufAAAAAElFTkSuQmCC;base64,iVBORw0KGgoAAAANSUhEUgAAATIAAAB8CAMAAADdPcxfAAAAAXNSR0IArs4c6QAAAARnQU1BAACxjwv8YQUAAAD8UExURdTU1NDOzgAAAJRTAAAuLlSSsQAudLPOztCxdC4AAAAALnWxztDOsXUuAFSSzi50sQBTkrOSdC4uALN0Uy5TktDOklQAAJSSUwAAU1RTALN0LpTOztCSUwAuU9CxknUuU3UuLi4uU5SxzpR0U7OxdFRTLlR0kpRTLlR0sf///7ZmAAA6Oma22wA6kNv////bkDoAAAAAOpDb////25A6AGaQ22a2/zqQ2wBmtgAAZrb//9u2kDo6ANuQZjpmtv//tmYAALa2ZmZmANuQOv+2Ztu2ZmaQtpBmAAA6Zv/btpA6ZpA6Ojo6Zrbb/7aQZtvbkGZmOrZmOrbbtjoAOrsrmIAAAAAJcEhZcwAADsMAAA7DAcdvqGQAAAnQSURBVHhe7ZwLl9u2EYVtNvW7ttvYjhu7TtM2TVep96Xtvpp4N12ljZ30kfb//5feOzMAQQiUBIlLUntwz7EEYgbA4CMAUoDtW0X5ul2Uo6oqyDJVkGWrIMtWQZatgixbBVm2hkD2swr66OcuVd25q/kLde/+g4eWHFgDIHv0CwFVPS7IVhWQPeHHUyLDx7ZpQGRPImS//FX1gLP14/tV9ezu7ecv7nxy/+WvxePT6qmOMthCH1+mTw03MdljnZiYodA9UKhevvKT9fkLXn/CLJR4LMg+pQnfzseV6VUDrmXPmsheV7959eazV4LmzYsHD4HsKccazK+Bhfm4eHL7zW8feh8rI+V701ATEwNGRks9MTmqPv8d8KgePwcSZNOFf4jp3n0dUYGPlOlXgyGT4dNYyx79HgsVBo7HIcheV3f+wEFFZBxt9PQ+VoZ5/WkwZB/Ho+z1s7u0yKSjDBm+vuBriI4yTszPdGJSVkbSvWnAtQy0dC0Lhw5HHvXylSGTa0ARTGJz3/BxZXrVAMi0wx/90T8xFdmjL/UnwaMv9THokAELHQQZbQ/+VPu4Mr1qCGRbroIsWwVZtgqybBVk2SIyeWwVra6CLFu3bu0MpKqyxHapIMtWQZatgixbBVm2CrJsFWTZcsgmfN/46s8uVb3dZe4S7e0fHFpyHQmy6RGbO/iLZm2DDJkGXlXHAyGrqhPN2wLVyE74cUpk+OhFDhlanlRn55o5fkXIcK8byP76dXXA2frNflW92925uHz77f7Z38TjqjrVUQZb6OPLLFWNbGcmyOIavvsaU/bvu/TB8J9h6GsA5+u32YGaE5Ot68REiNAeImJn3GS9uOT1t8xiNwTZFU34dj6uzHIFo+wfXAniGqTmCvcnRCam9dvsQNFa9q6JbFZ9f/7+w7mgeX95cIiITznWYOa4YD4uTnbe/3DofayMlF+scC1D4bgGqRncDg4byDSAddvsQOHElPCArJ6YiK368Z8IVnV8gfCQTRf+Ych7nCdQ4CNlVlCA7ECQqFwNOllxcRwiYwAbtNmBGsgYXgPZzvRfWDRwE31oggzB/5s3mMi0Y0H4VoZ5S1RPTLlXcQ3tyDZoswM1kH3DZkNks3e7tMgEoAwZvv6D+G2UcZJ80ElCWRlJL1awlvFZHdcgNYPm2TnNu++PglG2dpsdKFrLQEvXsvA2cuRRZ1heNEZeI0AJWWzuGz6uzHLVyNBQoga9Vm4ih2yDNjuQIdPGv8ID3YfB3OlP+pNg+pM+khwyhEgHQUYbX96djyuzXAEyjqO5GjjbtCrmfP/fS49s/TY7kEM2hATZ9qkgy1ZBlq2CLFsFWbaIDA+dohwVZNkqEzNTBVm2CrJsFWTZKsiyNQ5kk5UOtEaiXpC1EPHILi6Pdya2Szc9CpxdJmtIGwZQjEx3pjrerFuG7OrsfJuR6T5Yqo8z3StbQ0uQTY8AIAkhRGYplTesH9TaSiIDs8Q4uzZke/vH249sZ8Ivbg8zVJ4S2rYySPJbAkbi9IoThlfSp2YBFb0axloOGSqB3ynWBEngQ/fVz84bmSmDBRU2eO1qQXaFm8ckF5CLy5Od6Ydzu6ETUNNhAfMVwq6RxQUo5+WNkqsyZHSHI+6DpFCTzlQUCDPTBgkqbPD61YIMkfAxZgl2yaITMXLNdd1gYq4A5L28UbJVhkwzZaoZGXFmdpiZNkjhoMEe1D7KONghhCSnjK5rOjV4hEYGiNojmysAea/aWMuQsef4DOjUgylCNm/QoOoGe1D7Wqa9VclfzJHoZG4x8hSyqAAUIKuNTorsQsZfhAx0WcE8stigyJC2BntQGhmfmI3Rzh5LdNJ1UvJTzoc/VwAKJub83FFk7iYFdPb+Z2MmRjZvcMhcgz0oiUzfy/gI2Jm93Z0hPEYmQV1c4koO1HUVhiP9fCIsQDW8aJRclSDTQRpAwB/+FQt9IAaZaYMEFTZ4/ZpDxpjsgc00okKXNQffx4iRbw2IkZPkhFFLQl4U4gLQvLGWIHOjI6QzPUIel4AY2bxBgwoavH7FyDIlUa8rQWbzsiHNS1haDX1qaGSpNQ4DEkNGloBIrYY+NfgoS0qWhwTLdkOP2hDZRmpHNmoVZNkaFpn9X8DbpTLKslWQZasgy1ZBlq2CLFvjQLbRG3Hf2gzZZl31yLhlJj+0ocZmt8tkQ2nDAFqGTH6htMbXETL+zr5ByBDnxWUbmQay7B0rh0y3p1MQQmSWUnlDf9tkXqsg0+3BlLpBJltmNwwZ45qcyuaqHHvIbt5EDyj91j+3+bjJ4D2YEM82OWTSxvaeY8byo0z/NdiMkc1IhjvUzWNMveHegzthiw8XDZmdD7iTSVSlM5ULXJCZNkijy5vqUqsg29u3QHXVkbT1cw5Z7LFIhkxRy1QzMnLopEO7zkwbPLL+tBSZjnzrkh2gIU7dskfQEbLaA0WZsUCGjGWtfiZdnTKYgsy0QRpd3lSXWmliUhKknW3M3Cmn60Udfe3B3MWHi4rMIDeRyYLVzEwbFBnSi5vqUnnIbNsdsfqJGUVfe/DLALZIkdnhR0hnu84xYzWRYQYgMFnhZXrwoeWPMTVo77H8cFGQ2eLXoLNd55ixImSAYX+xwh9Q+gTAKS7zWHq4KMjc6Ajp3OhzzI0kyFKHkq3Hla2GPjU0suT7wY0+x9xIuvyn5F9tYrUaetQ4kY1aBVm2hkVmJ4PbpTLKslWQZasgy1ZBlq2CLFvjQCa/FrtRh1W1aBTIuGVmP/vlR7emIJepP8lThliy++b/X7N2rUC2bhDO7v/UgkaBjL+zO0ImP9n99ku7cpEFTY4BmW5PpyCEyCyl8oZom8z2iFN1NZVE1rbnJs7+PowBmWyZdYNMd99uPjLdn+zkHFP7JcgmJ3DhNF16AotiUotV5iUmcx4XMjtG6OIcU6syZHCR5YgJOBJXywks9+KnPxzGo0waNedxIdNAtZsMMnVc2WrwyERalc1OdlF8OdSUD9PqDKtHNj1qFPeSBs05MI4AmQTUoFMPpiAzbdCOuHNM5ri+iQvpSUJgi80D9cg0B5pHFtB3VYwAmUXSRIZFhWNjHllscL2Uc0yrSr+ayAxL8gR2NWTea3hkdvgR0ln3HNOdo3irmOVq0QlsNK+9Gs4jWsv0XiMs100JlM+uoFPtBrn3do7pqjKrPCGQkivMXTryQyY2K/EnsG759wNJJY065xEhc2GGdNY8x/Q9Vqt/QRFkC09g9SXDKvNi/YEPP6jBkaUOJTUvYWk1iHy+IdOLrjQaZH4dCbXeOWZdlfSua2S+vuGX/5Q4UcL3cK9WQ0P6352vh0yXS6g5lJHtpuw4kY1aBVm2iMxGYtGqKsgyVVX/B9uo2zvnMw9uAAAAAElFTkSuQmCC;" vertex="1" parent="1">
          <mxGeometry x="-1210" y="50" width="257" height="172" as="geometry" />
        </mxCell>
        <mxCell id="JH1jl1z9PuXV7L6DOCS8-34" value="" style="shape=image;imageAspect=0;aspect=fixed;verticalLabelPosition=bottom;verticalAlign=top;image=data:image/png,iVBORw0KGgoAAAANSUhEUgAAAVsAAAB8CAMAAADwz+PlAAAAAXNSR0IArs4c6QAAAARnQU1BAACxjwv8YQUAAAD8UExURdTU1NDOzgAAAJRTAAAuLlSSsQAudLPOztCxdC4AAAAALnWxztDOsXUuAFSSzi50sQBTkrOSdC4uALN0Uy5TktDOklQAAJSSUwAAU1RTALN0LpTOztCSUwAuU9CxknUuU3UuLi4uU5SxzpR0U7OxdFRTLlR0kpRTLlR0sf///7ZmAAA6Oma22wA6kNv////bkDoAAAAAOpDb////25A6AGaQ22a2/zqQ2wBmtgAAZrb//9u2kDo6ANuQZjpmtv//tmYAALa2ZmZmANuQOv+2Ztu2ZmaQtpBmAAA6Zv/btpA6ZpA6Ojo6Zrbb/7aQZtvbkGZmOrZmOrbbtraQOiJF8H4AAAAJcEhZcwAADsMAAA7DAcdvqGQAAAe8SURBVHhe7Z0Je9NGEIZhS4GEFGg5S1LoTWOam+YqEENMS6AX7f//L51vZne9ErEtLI1Xlud9ntgraXelfT0aOdJCLhiKXDRUcM7camFu9TC3ephbPcytHuZWj9a4/cQRlz4NJXf5iqwfy9Wl5Wu+2ELa4nblMzbqrpvbxiG3N/ByE27ppQu0ze2NktvPv3DLSBS3lpy7feXinbuX7y3d/5JrPHA3JW5pW1ontslNy3IC1EhOoORAXCVd7v5qzBN37mL5HlZRi+vs9gE20XuoE9pkp2359nbR7Zr7avXho1V2+PDu8jVyexPRS5vXyB/W08KNiw+/vhbr+DbcPiutygkUghx/w5yAOP3mW/IoXL9D7mg1quAHPq8uSYwmdbhNftrllgOykG9XvqNkSqEYvbHbNXf5e4Qp3CJ+UTPW8W2wLi/tcnurHLdrt69gC5/vwLultx/wLU3iFjnhkeQE4NtwOStty7ekVfJtGoyIZXB/1bvlZbLHPnlbeKc6oU122uJWzFz6MX5PELcrj+WXtZXHcvEPbskfKrBbbFv+aVgntMlOa9x2EHOrh7nVw9zqYW71gFu+LhsKmFs9LlxYz4RzvtBRzK0e5lYPc6uHudXD3OphbvUIbnv4Ovbk51ByG5tYO4Gt7Z1dX5wGdrv3FLvb+UVWdQrvVkbo3H4mt84dyLouMXR7gJdDuKWXmRDc0p577uhYVnaIkluKnoLbX5+5HSSK59vOvdhcP+lvvNw+esU1Tt2hxC1tS+vENhMZul0fsNtyD6+fUbb4bRN16IQa0MkkB3A8/T5nSTEn4DAlJ9BYiC06dIw65ImTPpZfYhXGy25PsYneQ53QZjJJ3P6OJFTugXt29EGmbnnT9PucJaV8+6LoduDeHJ+9PWaHZ/2dXRraIaKXNiPSsJ4WDtbP3u3GOr4Ntx9Pmm+pcbkH7pkE7+wW3MoBTLvPWZLmBB4HuR3mBBqE++NPGpWwf0LjoNWogh+MbQunKJHU4TYVSNzusDsh9CB5ghb2U7c4gBr7nCUFtxhHwe363l+U2Cgs4hjYLY3yb4QM3IqBZJy+DdZNYJgT+EMt9zDabY19zpKC2+c4vtTt4MUmtvC5B7xbevuHBurjFufnWzk/gW/D5fEk+RbfUMo9cM+k/egYmzfPniZxO/U+Z0kp35JWybdpYCCWwRGlQBkMlmkkPDbeFt6pTmgzmaFb2tE5PciyCGaC2xr7nCXerRzlE/q+E48Xa/feyy9re+/lQhzc0lhQgd1iG36tCnVCm8kkbhGZH/SAE126wpo3//aj2+n3OUuC2xyw2w5jbvUwt3qYWz3MrR5wS5daQwVzq4flBC3MrR7mVg9zq4e51aMdbnuVHivPG/XcwkkvuZVeZJKx6Pakv883ZUfWr7efXExwKzdOR950bsjt6RGebY7sp6tuxx92M25Z60l/5Cdobj+kqtutbUoJC+wWT024HAs95w5lzP4pBD+xYAHIJGQKW09HJ5ToFjvhpzJUVWM/uajoVjIixhAKPSqcYvR4dilraHQcgqd40vNuF2MejHuI5d1KxMqryn5yUeVahgkeOPRBoQAVHE/0gzWoToOHAGwiehuvxw7Zu5W23KHOfnJRLW55ThAkJwWMhseM0xOL8qwYz8L9QOnc9aM/H++WpYlbnf3koqpbP4xSIR0zn6+Ip+GYN/6rELcSosFtoftYqLefXFRzK2fmhwUeM6rQucpDxZhjHdrS8+fwuYhbZFaCW+nsJxdVr2U49gEtxAKuMb1wjTnpyw8vpNeYvadi7lzYLSwBMaWyn1xUdMsXNS6HArLeATb3DmgV1iBHHvKZm3w3YhMjYLfhzPZRqLGfXExwqwq79Smhi+R2G5NmB8ketx3G3OphbvXI69b/8Y6OYnGrh7nVw9zqYW71MLd6tMMt7gh0j1a45Vu4W4s2P0GV6FYejo25kWVuP5bglrWOvWljbj+W4JZv4ZrbRgluced7AecnqOLdSsTK6yLNT1DFu5U5B+xWnvnytIRYgHKOW/rxdSVFz/v8BFW8W5YmbhdqfoIq4lZCNLj1ukqF1G1n5ieoIm4Xdn6CKuw2/M4gphZpfoIq7Dac2T4KbX5CM7Bbm5+gAtzGpNlB8l/Luou51cPc6pHXrX+Q31EsbvUwt3qYWz3MrR7mVo92uOV7XI3QXE/1aYVbvoXbyPwE3xNuojU334HvGDO0JfxXqhVohdvm5ifwnR/+x0XN9McU3NLLmI4LtMEtaxh706aqCxHKNRvprwxv4Y+uCm1wy7dwG3EhN4PN7dBtc/MTZNiw1kx/HlYa2s2VW4kweY3TEmLhY+Yn+FhN4rZefwEoje3mym1z8xNkqySGJvoLUNVhu9hmIi1wywcsLmrOT0iH3kR/Aao+bBc+scnkd+uP1LvwR10qpC74PEacxTphfkLsSRZq9xcpuo31JpHfLX8l9S74JS4NC+wC46Kg5KHBRaxDW3h+gu8pybf1+ovQimG7Ocq3GBWQg68zPyH0lLit1R/3xUBpbDdHbsMZ5qMmTEuIherzE+K5mrit0x+aC1gR282R23Ai1yf2xJ70mBu3PrwaYNhT5cFPR+WPLv+1rHnin4eqBf4mGlM8sfjvkFWji27bgrnVA2597BuNY261cO5/3r0w+/Dw8bQAAAAASUVORK5CYII=;" vertex="1" parent="1">
          <mxGeometry x="-1568" y="860" width="347" height="124" as="geometry" />
        </mxCell>
        <mxCell id="JH1jl1z9PuXV7L6DOCS8-35" value="" style="endArrow=classic;html=1;rounded=0;exitX=0.5;exitY=1;exitDx=0;exitDy=0;entryX=0.5;entryY=0;entryDx=0;entryDy=0;" edge="1" parent="1" source="JH1jl1z9PuXV7L6DOCS8-17" target="JH1jl1z9PuXV7L6DOCS8-34">
          <mxGeometry width="50" height="50" relative="1" as="geometry">
            <mxPoint x="-730" y="540" as="sourcePoint" />
            <mxPoint x="-1040" y="860" as="targetPoint" />
          </mxGeometry>
        </mxCell>
        <mxCell id="JH1jl1z9PuXV7L6DOCS8-36" value="" style="endArrow=classic;html=1;rounded=0;entryX=0.379;entryY=0.995;entryDx=0;entryDy=0;entryPerimeter=0;" edge="1" parent="1" source="JH1jl1z9PuXV7L6DOCS8-32" target="JH1jl1z9PuXV7L6DOCS8-42">
          <mxGeometry width="50" height="50" relative="1" as="geometry">
            <mxPoint x="-370" as="sourcePoint" />
            <mxPoint x="-700" y="-80" as="targetPoint" />
            <Array as="points">
              <mxPoint x="-1080" />
              <mxPoint x="-890" />
            </Array>
          </mxGeometry>
        </mxCell>
        <mxCell id="JH1jl1z9PuXV7L6DOCS8-37" value="" style="shape=image;imageAspect=0;aspect=fixed;verticalLabelPosition=bottom;verticalAlign=top;image=data:image/png,iVBORw0KGgoAAAANSUhEUgAAATIAAAB8CAMAAADdPcxfAAAAAXNSR0IArs4c6QAAAARnQU1BAACxjwv8YQUAAAEdUExURdTU1NDOzgAAAJRTAAAuLlSSsQAudLPOztCxdC4AAAAALnWxztDOsXUuAFSSzi50sQBTkrOSdC4uALN0Uy5TktDOklQAAJSSUwAAU1RTALN0LpTOztCSUwAuU9CxknUuU3UuLi4uU5SxzpR0U7OxdFRTLlR0kpRTLlR0sf///7ZmAAA6Oma22wA6kNv////bkDoAAAAAOpDb////25A6AGaQ22a2/zqQ2wBmtgAAZrb//9u2kDo6ANuQZjpmtv//tmYAALa2ZmZmANuQOv+2Ztu2ZmaQtpBmAAA6Zv/btpA6ZpA6Ojo6Zrbb/7aQZtvbkGZmOrZmOrbbtpCQOrb/2zo6Ojo6kNv/tmYAZpDbtjoAOgBmZjoAZmY6AGYAOhT+1PUAAAAJcEhZcwAADsMAAA7DAcdvqGQAAAkzSURBVHhe7ZyLf9M2EMfBY0BLB2w8RzvYmzWMpk26NO2ABJJtFPZi7wfb//9n7H53OklO09hyQxQx/T4fYls+ydLXd7KjCz2VFa7TWSEqiowsUBlZsDKyYGVkwcrIgpWRBSsGsjcK0pk3da84e07KZ+r8yuoFsxtZEZCtvcWgiosZWV0Rskv4uAxk9JGaIiK7NIHs7XeKVUTrlZWiuHru9LXrZ2+s3HyXLW4Vl8XL6JxvY+ssUvECEyOWwKQIJZ0nCsXNdRus167j+AaKqMZFRnYLp2irNlpnoYo4l10tI9so3lu/fWed0dy+vnqBkF2Gr9HpDcKCcjq4dPr2+xesjanD9RemWIFJDsPe4gITXvXBh4RHdPEaIaFimOAfMJ1fEY/ybLjOYhUNGbtPaS5b+4gmKnIci4ORbRRnP4ZTARm8DZbWxtRB2eIUDdmVSS/buHoOZzjoIIOMNp/gNUS8DIF5RwITMnV4f2GKOJcRLZnLfNeB50E31w0yPiYojInP6ZZstM5CFQGZDPjMp/aJKcjW7spXgrW78hhUZIQFBowM51Y/czZaZ6GKgSxxZWTBysiClZEFKyMLFpDxYyurvjKyYJ06tRlJRWF20lJGFqyMLFgZWbAysmBlZMHKyIKlyFp437j3ue4V97dQWqH29k7H7DYRI+vu4nI7X0hRCjLIpONF0YuErCj2pCwBOWR7+OgDGX0sRIqMrtwq9g+kcPk1gYzudQnZlw+KHUTrw+2ieLS1ORjef7y9/4QtRkVfvIzO+Ta2TqUcss0xI5ts4asHFLJfb8GG3H9Mri8dOGh+zTmoHJi4ugQmdZHUph5hMBqsgyGOH6MIw2BkI5yirdponWp5XvYNZoLJFrjlgu6Pj4xPNb/mHDQxlz0qIxsXTw8Onx0wmsPhTod63Iev0Wn4BcrpYG/z8HnH2pg6XH+2/LmMKk+2wC0Tt51OCZl0oOk15yA/MLl7hMwFJvWt+PY76qyoN6DuUTFM8A9dbiNOSJ4N16khD9kOIxFpCxKsdNDzkaEDJ7jmHFRChu6VkG12v6dJg26i7Rojo87/gBsMZDIwr/umDsoq5AKT79VkC8cjO8E156ASsoe4rI9s/GgLZzgAIIOMNj9S/42XIUieSZBApg7vz5Y3l+FZPdkCt0w09w9weutw1/OyxtecgybmMqIlc5l/G+F50D5NL9JHHFMHuct8Trdko3Wq5ZDRhaa0IMfCjaXITnDNOcggk4vfowe67QZKuy/kK0H3hTySFBl1EQaMDOfw8q42WqdaHjL40ZEWEG3SFEqe/jS0yJpfcw5SZDHEyNJTRhasjCxYGVmwMrJgARk9dLJClJEFKwdmoDKyYGVkwcrIgpWRBWs5kLVqJbSWRM2RjWSxg9TdbTZii2wwXNC6zVw0E5lZ/RwMpyzeecM8MTJHPwXNRDbiNcdJZGNeshp5y90Npci6uydva4GajWz/Z+CZimwOUmTt7ZTisgrZL4g5Qca5Qhobr9ruyYyNBWY6x/soh7fAThFggfn4oFVkI67ep8bY1lTiaOXbA6R+q5FVgexgTB1lZNihD+yxlwHTiPa6zzu836IzGBuMuyaliFHPmOgMMrkjyNLwnlZi32v9igtiBd21GltVyDZbpr8y39CRQ9bdxVhln7cwEgAseUIcH8cGmWkP7VNDthIa6z57jLtRajW6KpG1t/fQX/OAxPAsMjsHAZnkqGjcnJNkcShzJmi6DDIBrshcJYrX9m+//0F3jC7jWo2uSmQUfX8SMoOHYmQ6Mo4/dUV5N9E6x0qQMREfmVZq/9UZ7XV3e7gmaWl+HFSNbDD8m71MaBAYi8xGi45U3xbMsKuiSZDxRagNg8xVorhv9ehlRl9nqu7AolSNDE8wGsVIpn/6kK4Dnjf9M1JM4WPaClQ4KG3HHHfTxMgUsyLzKo3uvSSffvoPLuy1Gls1kBEJMMKzXzpNrxM9Hp3/koE5qI9x42UD9hDOH0tMkKnvWGSuUnubNoMhd8JvNbJmInvFYmTmtiSk2MiW6e2hpqJ7WXrKyIKVkQUrLjLzt4DTUvayYGVkwcrIgpWRBSsjC9ZyIOPvlqmoETIa4exE3Ii+V7dfVn15tMjMklkimoqsy/+b43hVIRv822n1A5Cl9dV8KrLx/hNexDpuhaoqjoiW/Jx/thSZLpkloqnIWn1ZPG6KrKYU2bIst9bUNGQ0tfCajGQsxQeYkqYqcUD/8P/TeNVRy3XJkdcbJbY1kzktD6nIXoM8JlyMEXGHHTJNVSoy2JbKdWHb5Twxbkx7uAVH8pAGmSyZJZ3HZEZMawKZPemQ2dBFueY1pYZkQOEZZCRYJmSQSRsuXWKqcIuJ5DH59nIfJ5DZVKVFJnknLeeKJPPOQLW9pCRHcFkGmcBXZF4VOkgkj4kJiUTxUUbmUpUWGZLnVGTKFZnZUjxpCXQ0DynImAidtsi0Sjp5TEHE81E5ZHgwJWQyPFuu0eNynqV48vmxBJl5KXOBqVXSyWPy3C3jlk5iUm/RM8ymKhWZgevKdfp3OU9NSk7NQzIy04hFlmIek4PNbOntoUeDojcHvAhgmpFUpSCTaQc/PjDlsOeXDJfz1KQkzvCt8MTI1HcsMluFTtHmtc9j0vxj9mqIkaX1ZQmaMzL7+6k6ArJlenuoqfkiawW9Csj0n5zm7GVBysiClZEFC9dOUNnLgpWRBSsjC1ZGFqyMLFjLgYy/W9ZVkPEr0FIgM0tm9cTG9i+X1ZdLIxJz/RNZTbQUyIK+mrMxZ1jCVEJGH1g5aaRlQKZLZrUkxs0HTJIlpnDoRsuALGi5VYz/78i493XzmDJUWZAMS31KPGI1FDtJI5Mls5p5TLO+JsjqVVGBFJaa8RubxJGVkzLy9KQyTFpH85hi7EVndRUVW6KMvUwaaqIlQMYjsOOXhAKWKskPjuYx/eHWrKJiS0bNF2SbJoqPzHTdjV9HMi2PaYxlU6+KVRmZqxSq+Mh4znbjd/E0LY9pjI11rSpW1pKRJTyXBeUx7RtcCVnN1CcsJdPIlvhopOjI1BHs+GflMa3XlJHVS33C0uZkU0amoVZL1phpnUjpIjvyKjBLzrj5gFXNocef/hup9koG/9ISKjsz/5n+hkoUWUxlZMECMuO6WXWVkQWqKP4DpH/goTkDCusAAAAASUVORK5CYII=;" vertex="1" parent="1">
          <mxGeometry x="-308.07" y="70" width="296.13" height="120" as="geometry" />
        </mxCell>
        <mxCell id="JH1jl1z9PuXV7L6DOCS8-40" value="" style="endArrow=classic;html=1;rounded=0;exitX=0.5;exitY=0;exitDx=0;exitDy=0;" edge="1" parent="1" source="JH1jl1z9PuXV7L6DOCS8-11" target="JH1jl1z9PuXV7L6DOCS8-37">
          <mxGeometry width="50" height="50" relative="1" as="geometry">
            <mxPoint x="-80" y="530" as="sourcePoint" />
            <mxPoint x="-30" y="480" as="targetPoint" />
          </mxGeometry>
        </mxCell>
        <mxCell id="JH1jl1z9PuXV7L6DOCS8-42" value="" style="shape=image;imageAspect=0;aspect=fixed;verticalLabelPosition=bottom;verticalAlign=top;image=data:image/png,iVBORw0KGgoAAAANSUhEUgAAAzwAAACVCAMAAACq0w9nAAAAAXNSR0IArs4c6QAAAARnQU1BAACxjwv8YQUAAAEjUExURdTU1NDOzgAAANCxdC4AAAAAU5TOzpRTAAAALi5TkrPOzgBTkrN0Li50sQAudNDOsXUuAHV0U7N0U1SSzrPOklQAAHWxztDOkrOSdC4uAFSSsZR0LtCSUwAuU9CxknUuUwAuLi4uU5SxzpR0U5RTLv////+2ZgA6kNv//7ZmAAA6Oma22///27ZmOjoAADo6Zrbb///bkAAAOpDb/7aQZjo6ADpmkABmtpA6AGa2////tmY6ADqQ2zpmttu2kNuQZmYAALa2ZgAAZmZmANuQOrbbtpBmOrb//9u2ZmaQtgA6Ztv/27b/tv/btpA6OpA6Ztu2ttvb/2Y6OtvbkLbb22ZmOpC227aQOmaQ22aQkDoAOjo6kDo6Otv/tmYAZjoAZpBmAK7InOUAAAAJcEhZcwAADsMAAA7DAcdvqGQAABawSURBVHhe7V0Jm9xGmQ4iQAgs5lz2yC57MONMGIaMHZix44BjJpgYnOwJu2Gv//8r9nu/o6pUUknd6pZKrfne55luqa7vfFXVslR+w+FwTMWXHA7H/mgaJ4/DMQlOHodjIpw8DsdEOHkcjolw8jgcE+HkcTgmwsmzPnz5zeYrX8XB1xrCW19/G0ff4CrHmuDkWR++SZT5MxwweZrmW287eVYJJ8/q8ODbX/kOCKPzzXeb5ntOnlXCybM6fPnNb33/B2/9OR0xZX74AyPPX/xl89ZfSRvHGuDkWR2+SWu2r/G6DZR58NcNEQlH9FOo0R9DjlXAybM2/BCzzju8btPfPDTpgDzvNH/z1b/9kZNnPXDyrA3MG5plvqfk+Tus1EAeWr81f/8P0sixBjh51gadbmy+sUI6evCPb2IJ51gLnDwrA+YXBv26aZPnna+//eDbcg/bsQo4eVYG+bUj67aMPMwpWs05VgInz8og99m+RHPMNzLyPPix/gByrAROHodjIpw8DsdEOHkcjolw8jgcE+HkcTgmAuThW6AOh2NfOHkcjol4442z5dE0erAQlpa3OE7NwE0ExMmzDTh5KsDJsw04eSrAybMNOHkqwMmzDTh5KsDJsw04eSrAyUM4bx6+q4eniqkOrWX6URKgdtyMPBe4a/3eT+zItLr86VXT/Ox9Pu7D9dWjx3q4F9R3lx/8vGke/aI8fgcTBYq8lmkJSkGYal0FmIE3fLY7KpNn/wRIsRLyXN5yXjVP2hmmxeWIHEaepx/y8M1uY3Bm1CTP/qm5HHYmT9akbfpyFg4lQFmLlShviOR5hg8Sn+rA2XP5wUd6ejxYrB/RXPfLq0LuZjjEOcO5teMVbPno7I7TJE9/ApS1WInyhow8z9o6XF81WMkBv6L120fvnj19/vDjqxe/5jZ3zY1cm6kOTrA2Z7/8uZyXwb57+hzyMM6jx5e3Lz75TdP8As5oiXr5W5rYqVwmQRWIskefvksav/iELl7oNSyznVtJt8ufNs2rDygIqQI2PISFtqrADsbVQDQwGhdNIt1pTUG59js1Agims72JhXrKjeZCTwK0VVyz8ob2sg2ZL2sbUleL3/sJNLEVD9nbNC8+bl68ZKM4l+9QRd/WhihHbV7yCAWw7851uqb2T1QBeKMt6vf4ZGfyVxQIT1mvG4wxJNNyC3iSdNMikpYoEIYX8uhZUIA+h42rgZQ80BPqR5PoqJt/wXR2dLTQTrnRXOhLgIw8rMUqlTdkv3logWYZxrgk8uNCyzn7+vmjx6TcDSYFanBOOYRyOnl29vqzx6HNefPq5evP9ybPw/f5EpSJOvunf6a5CDnN80YQaJerV+9fXlDtiMwOebSb6E6yESJVIA4PYbGtKLCDcTXQIo8qHE2iI8k/NQKIpmcujqczokwe1WLNyhvSZRurGhUUXH5AazLig+DJU8pqKkUj/CG9rmlthZZJm8E7dEDmO/MQ9XySi3r9Lzgz56AtWCtto19HZMbcAmI30R1HqQI2fFQshm5EUC20yKMKR5NyI4BoeubieDojCgkQVVyz8oYWeaBqVNCA0jyjSe1/JYuTXEaZtlHCoawE9h0uODi5owGirzJRvEwaJ8+IzOORZwfjauAQ8nRcbKczopAAUcU1K29okedXyIqgIOH8Z//GN0Pktw2g5KGvf4eGKCd9aQr9XNZbwPlHiBuNVwb7jho9+gP9PL8iiXT88P3LP5IXM1FYJiXTchCYeXxEZpk80B3Tf6qADQ9hsa1038G4GiiQR02io5t3ZZUTwhtNz1wcT2dEXwK0VFyz8obsNw+Jlx8GIDYyiMGaAS9eKnn4nDKIM53r7JvayNxBESxDYk0uYJC9PQrkMw+UkRsG0oLkUy8jD5cUZVpuAdlVjsGZxggK0PAZeViBHYyrgQJ5GGRSDCQbwV2C6R0X2+mM6CRAruKalTcoeUSZ9z4lmaKWkIf/AZhL+VGDhDyUQ2jCuYy6R/8R2+A2Ij+sUIb47uz1b6iHjH/bfPqh3O7LRNF16dF/Pidv4ObFMxFIKyeWkCTKsMwieTDoq09o+FQBGz4jDyuwg3E1UCBP9KmaKUZwl2B65uJ4OiM6CZCruGblDUaehaG+i5CQz4aOvA5mVmBu9Bm4ZpNGA3IK8XDyKJw8i8LJMx1OniPDyVMBayHPzFha3uI4NQM3ERAnzzbg5KkAkIfvQTkcjn3h5HE4JsKXbVuAL9sqwMmzDTh5KsDJsw04eSrAybMNOHkqwMmzDTh5KuDekedimWcGl4aTpwIOIA9eVDq76H+zZSxFq5Hn6fPyQx8X8rR7EZe3RasGqpbBipOxNxeG9e1GYpXXvCHy8LsR8m5CH+5urr94fBB5+EUN8VM8vLzFy0H4ZIwk9I4Isbor27MB8pyLdU+f90dlCpIYTcS9JM8FP5l316P1Ob9oc3dzZm9gd7AjeajVU34V4xYjPn1Oo3EaXv8J3UXMUWCxurztzQORNECeAVWOqOUBmI88FqPJ2Is8pUicGHnuDsmX3cnDclTW9dVNGvgjpqXF6vqqd9VWClnAgCpH1PIAzEqeoVwYxz0kT+sajXePoT0WctgihEDhwTc34vVdyEoqvmFbrVcPEvKQu4KsC7w/GuQeMS0tVizRFBexpKoadHFDaxRuYJpbiTVAGdYxyE0dJK0KfogjLYUueSRWqS3YjipqpvqbrtSMi/OgWYxiBx1YvngZzNV8XUo8oLt1aS7k0IDomOVIGDDIHfyu+lGmaGlFFMlzfRWvXvAQllMIyuXnL+3ywBEiT53DXeecUSimxnewz3pJcRsJeeiqFq6UPAuFvWmOTx4RZIqHkJlBFEduETQPJdoAVtHR5WePE+tDVfRD6LcYOuTBH2LVsiXRLOgvJVbcCVqYeayDDqxfMsR/UR1ktz1An1TGudCB6DsaiQCq48FNP5bLHxUxQB6oyjSXO1RkltkjFgKwWizXa4HaTLaGXijNEcmDpVogKi8P6OolnQp9p0DJ06d4EjI9jZpbiTXAvgBJSHmApCr4IfRbDL3k4cNgC9e1NGON+cQ+ukGzGDHQIQzMXyi5/PxjakQjpx6AtJALKG1DA0LgEbgjGqo3Uy0ZFw9/C+4E/bgHmFQTozMPmcBzMe+Po7OCWCg3xOBNGGQel6tBq1cPlDxoQGI0EMEbsitXK4YHQmMl8TDFSyGLmocgagO94gE2SKxK/NAN/tzokEdjldkSNQv6s5r20Q2axSh20CSwL+r0p//+H5qJMCm1PRByAaVtiL5jkUAbAa3noESSitjHBc0qokge++3BHtWEIVzg/hpbyJM79NdqDVxCntirAyWPuid4wfzFM7Q68igQeRLcoHgpZFHzEERtEOvCIJ0q+KEb/Lmh5BGPqSaIVWZL0Czqz2raR2xuiDGyDtRQbrLy1/UXj++eXd4+gdm5B+S81w+s72gk6FNx8fCPyImoH10gusoujCJ5ZAnFJoSJAYDGbCGrDquVZmprmKpbvXK0yXN2YUHXLuIWTYVjQOVxzIPiMUbtkEXN8waxLg6SVKE1N+8Gf26IgeK34Dg6zWwJmiVOgJr20Q2axSh2sBP5onXsxZOzu5s7qsk9IKPx2DlY30QJNEfDdiToU0EnSJJEP6JT38BLokwemlLZNNKQeXROP9nIJljHRrOn+HfhHRrKZEHgFS/fMNBeUtxGRh7+Fx4als7R4fKWs9xy4AhgeRr6RHESwKpKMoSQBc1DiTbQusvP6OefDZJUBT90gz83xKFyFeKfKBarti1Bs6g/qxk+QnNzvsUodNCBbfyzu/f+l9Yirz6EFzIPxFzogPUdj0QAnXBWBP1IDC/kaqJMHlZPbxjKjQMYqjci8YX15w2biYbqayZd84xdbr16kJFHRhZnxF7HJo8EBt+qeFSVDYohC/aGEmlgdaRotD5WBT/EfktBycPacYjYozho2RI1C/qLeeHDmnOWEkKMYgcZ2MbnS55c/XIPJA7OIfqOR8KAE+aa6UddjpceEzFEnhlhsV4KLK/2zZk5cXSHtlL3+DhcX14T1cU9Ik93Pb8hHNuheuNsNhyur60jKuI+zTxbxrENxO//ObGTvk/lv3nrfzpZ/t2qKpw828CpGbiJgDh5tgEnTwU4ebYBJ08FVCPPG4tiaXmL49QM3ERAqpFHDxaCzzwrg8880+HkOTKcPBXg5NkGnDwV4OTZBpw8FeDk2QacPBVwGHmGny8a2NitHnlmfmarB4tIdPJUQE4eeRFhVwyTZ2Bjt2rkGXpmS54ELmPA2oEqlsj/A34JXbklvtl/5N/FsRy61LVlWN+xSCyn5yBy8py/+HVb8dJ7ATu8LzCwsZv4jp+fh7j4+jCeTWeMum8vhFgNPVk9D3lYYu9j+YbdyVPWMXPoZDh59kBOnosbTWTDAeQZgMaaPMAb6kXy4OuI7/EYLFb2KmQGkTgQsgGVRrQViYWhS3LLqVFiYebQyahNnpJHci+vkTy0xuAM1pCHjbT4LSfou8NOZj0FeOmptRyMsea3rhYjT+E59lLIAgZUGtE2eTWyi5LcQ8gTXmObBCfPHsjIw3s3kF6BPKo11h68NMFLs5zjaiUVIVitncw6BfxibtjYDUhijYEWI4/knpI6v0LErfb2uFSkVeEakWzapxI5G0blGtitkKKKyOP3XNpqF5E51ESxSqSRfPEKkqs5LIm6wzsUzgANyK4e0fJEZapNPdTjxPnRJg8bAe9m5JGf2TjkLAjlOOrsZNZTgE6tFzCSWC8584iA0a329rpUxKp4jQj9zCRxm3Ypyg2gOh7MFNFcRwn16kPmUBOFYQ/foXAGiL67e0TKE5UzD/V0mR9t8rB32dNta5jw/HZ6lzzcB5Df+mErqligd7ikhyDGWnarIBcQ1Pi04ZGg5Ikjw8BOyPR0r0tFWoXWsumF9dPa4JJBuagXlLf4kx5dZA4F0Ek9ql8sfMIOhTNAA0JgpViXIY9weapy5qGeLvOjTR4sSQi2n1ywJgY/6KhWRvIw/9GvVKAMYWisIQwhW4o84lwjdSlke10qYlVyjYiR5A81aEwu2gholQJPREWIONJL06WDzKFBu6PsUDgDRN/dPcLlqcq5h7pd5keLPBofzIdBF9WasxpFmZVxqy92PkboKeBhU8s01lYig2n87OyYEHni/EDqUsgCQXqstbowSKcKF4LQT8PNX6Ny0VJQ3uIvFrXRdmjUjsY6fIfCGcD67uERLk9Vzj3U7TI/WuThVSQidSMLZyyART2c7ryTWbcA4+rggow85hVICV/HhMrjNGJhHK5gTDtke10q0iq05uahn0ikYyoYlYuGAjopbPEXXJah7dAoyk7ka+IOhTOA9d3DI1yeqpx7qNtlfrTIw2tf+caEmmykxQsCPgs6cjkfoY5swBQadjJrF4TtvAwZeZLN+gjiwKOC5Wk2tVk+66aHlr9cMC43gLtSMIIi8CCnyW7kCaKOs0PhDGB99/CIlCcq5x7qdpkf7d88xwItD/SogJw8TEA4BZiLPBIAfCupsytE9P++lwqtCtcI62cSpWBcrgEnnFmmCHURp+xGnigK1zHkmnxROY8sF8m2uolWC0D03d0jUp6ozHYkHurpMjvmIU/rnlQfxHfLgeXZGmo5BImSngeAfx4QhslzOjg1fXsxC3ku2mu0HtQgT/ILYiFEiQdf0G0OK7HQyVMB88w8o6hBnpoYfKpascMWf/ySRy82SZ5Bj6wATp5tYJPkWTucPNuAk6cCqpFHt75aCEvLWxynZuAmAlKNPHqwEHzmWRl85pkOJ8+R4eSpACfPNuDkqQAnzzbg5KkAJ8824OSpgHtHnoUffyIsItHJUwH3jTz6gk0vxh5As+fLejBQxRIr79s2/mjd0teUQ/WFwtHpy18RGZXJg8dq+eELfqq6efi7W/5u8Jj6MRFiNfRw6DzkYYmDz7btTp6yjk6eCqhLngt+VAuZlST1DG8khFiFF2zaEJEDIRvQaURdkVgYuiS3nAz7PlVdkpBrvRbylPTtoKXwfSQPv8kkWIg84QWbNkZDNqDTiLoi0cmTwckzHey7dBpYiDySe3g1jETrpLChfdt2lqDlicaZxB6ljop99Q0O0B5yzIrSOR8sj5rkub6y112WIo++p89Zs8V9205nH7Q99WXdUBLcjsb8RwovtttchrrkQbTkSocvfYVO/HdcKHni0AhXJ2R6KnfkUGYl1gA/UpOQ8gBJFVrLVgDWT2vZUsaQXNQLpu7bBuwmgculmWi88D5oe+rLbtcNyqQ1aulPKDafnoNYw8wD05eZecTJeGEec38pZLyWYSqHIGqDZFcCGyRW6V1wnMfg84daNCYXbQS0FIFroiLkHuml6d2BGLi7BC5PNc4ldrscFfvqixkXpcHtqKU/icd8eg6iJnl4AwcCTF+EPJIsvCpBuEohi/NECKI2iHVhkE5VxX3b9pDA5anGC++Dtq++1188hhOj21FLf6LwfHoOoiZ57G4bTF+EPCKE/S0B6A9ZXG3nDWJdHCSpQmtuHvqZWSgYlYuGAjqZsm/bHhK4PNU4l9jtclTsqy+t27DBVNJDlBaF59NzEFXJQ3Mw+4JMX4I87HRNGfwkLe4W1t0MTBto3Vr3bdtDgpTX2wdtX31Jp/8jB8QeqOU/Upp7VkBV8nBOyD1JvmEgPpiNPBIYfNOqGfHBAnpT+7btLkHKE41ziT1djom99dUnk0IP1OIv9lwelcmzFFheMrsthCCRs+EQ8PRMGCbP6eDU9O3FPSJP8gtiIUSJB18abQ4rsdDJUwH3aeapiHXs27aifdBOTd9eOHm2gVMzcBMBcfJsA06eCqhGHt36aiEsLW9xnJqBmwhINfLowULwmWdl8JlnOpw8R4aTpwKcPNuAk6cCnDzbgJOnApw824CTpwLuHXnme1yrhEUkOnkq4L6RR1+w6cXYA2j2fFkPBqpYYuV929YHJ890iO/kUWp51J4PKWfsmWotSDZyC00mIMRq6OHQecjDEgefbdudPGUdnTwVUJc8yCv+381jUgfyxCzXoqG8H4PFKrxg04ZIGCDPwGsSA1WASCwMXZJbJo8/Vb0i1CcPsYfmnoXIE16waaOUxAEDDBmoApK3u7ooyXXynARWQB7ZPWgZ8kjuXfAy0CaFnt3C8s3LrAHKsHrESlMHSavwphY/9pzsO6YSmR+jcg0YbdK+bScDJ890tMiDd3CXIY++8U4fmBBCEtsMQJnNLSCJf8WEEm2A7KWj1e7bdjpw8kxHizxIIVzP+YVgySeqs4JQlJTsDY2VDS5X/04S66nckUOZlViDU9i37TTg5JmOFnmWm3kkQ/HaO9ZPpSTm1RfztEueQAMbJFbpXXCcRzrwhxowJhdtBLSeA0ejImS79FJCdcAGYpF3gJOWxKnp24t79ZtHEo8XZEjFMnksP8vkCYN0qiru23ZCODV9e7EC8ix3t83kcSZTxubc0NP4+6NLHquLgyRVaM3NQz/TGQWjctFQQCdT9m07ITh5piNJ5uX+nUeu+JSSyF+suEq7haH8FPdtOyE4eaZDycNLeuSPHlJmYB2MRAkFkTyxZG+wPElVfNMvD2RscbcwiOLiUCINrI7yOAySVEF31tX6mUQpGJdrwElrFzXqok5ImyVw8lRAVfIsB5Z3yNQ1DUEi8+MQ8A8mgpNnRbhH5Gn/U8oSiBJLOb8zbA4rsdDJUwH3aeapiHXs27YiOHmm476RZ3Y4eSrAybMNOHkqAOTR1YLD4dgPTh6HYxKa5v8BMZ3qCk0DTpoAAAAOZVhJZk1NACoAAAAIAAAAAAAAANJTkwAAAABJRU5ErkJggg==;" vertex="1" parent="1">
          <mxGeometry x="-1210" y="-227" width="851.91" height="154" as="geometry" />
        </mxCell>
        <mxCell id="JH1jl1z9PuXV7L6DOCS8-43" value="" style="endArrow=classic;html=1;rounded=0;exitX=0.25;exitY=0;exitDx=0;exitDy=0;" edge="1" parent="1" source="JH1jl1z9PuXV7L6DOCS8-42">
          <mxGeometry width="50" height="50" relative="1" as="geometry">
            <mxPoint x="-850" y="-240" as="sourcePoint" />
            <mxPoint x="-1140" y="-460" as="targetPoint" />
          </mxGeometry>
        </mxCell>
        <mxCell id="JH1jl1z9PuXV7L6DOCS8-44" value="" style="endArrow=classic;html=1;rounded=0;exitX=0.5;exitY=0;exitDx=0;exitDy=0;entryX=0.463;entryY=0.996;entryDx=0;entryDy=0;entryPerimeter=0;" edge="1" parent="1" source="JH1jl1z9PuXV7L6DOCS8-16" target="JH1jl1z9PuXV7L6DOCS8-32">
          <mxGeometry width="50" height="50" relative="1" as="geometry">
            <mxPoint x="-770" y="250" as="sourcePoint" />
            <mxPoint x="-720" y="200" as="targetPoint" />
          </mxGeometry>
        </mxCell>
        <mxCell id="JH1jl1z9PuXV7L6DOCS8-45" value="" style="endArrow=classic;html=1;rounded=0;exitX=0.25;exitY=0;exitDx=0;exitDy=0;entryX=1;entryY=0.5;entryDx=0;entryDy=0;" edge="1" parent="1" source="JH1jl1z9PuXV7L6DOCS8-32" target="JH1jl1z9PuXV7L6DOCS8-14">
          <mxGeometry width="50" height="50" relative="1" as="geometry">
            <mxPoint x="-1170" y="-50" as="sourcePoint" />
            <mxPoint x="-1120" y="-100" as="targetPoint" />
            <Array as="points">
              <mxPoint x="-1146" />
              <mxPoint x="-1260" />
              <mxPoint x="-1260" y="-150" />
            </Array>
          </mxGeometry>
        </mxCell>
        <mxCell id="JH1jl1z9PuXV7L6DOCS8-47" value="" style="shape=image;imageAspect=0;aspect=fixed;verticalLabelPosition=bottom;verticalAlign=top;image=data:image/png,iVBORw0KGgoAAAANSUhEUgAAAQkAAABkCAMAAACiqzVmAAAAAXNSR0IArs4c6QAAAARnQU1BAACxjwv8YQUAAADwUExURdTU1NDOzgAAANDOsXUuAC50sZRTAAAudLPOzpRTLi4AAC4uU5SxztCxdAAALnWxzgBTkpR0Uy5TklSSsbN0U9DOklQAAJSSUwAAU1RTALN0LrOSdC4uAFSSzgAuLpTOznVTLtCxktCSU3UuLgAuU3UuU7OxdJSxsVRTLlR0klR0sf//////25A6AAA6kNv////bkDoAAAAAZrb///+2ZgAAOpDb/wBmtv//tmYAADqQ27ZmAGa2/9uQOpCQOrb/25A6Zjo6Ora2Zjo6kNv/tmYAZpDbtjoAOgBmZgA6OjoAZgA6ZmY6AGZmAJBmAJA6OvsyPwwAAAAJcEhZcwAADsMAAA7DAcdvqGQAAAanSURBVHhe7ZsJW9tGEIZjuQRCGq4UQtNQCm162SYGXGwju03vu/3//6bfN7OzOiwfaixbwH7PA5J2V7M7r2ZX9g48CvJqBEFRFEioAglTIGEKJEyBhCmQMFVMovleRG00Hstxc0tLn2xH0dP35bxIz7Z3dt3p6rQOEq5wT1oU6Z6S2JCTxynHxdHm/oG7rInWQyJ67k4/wDQ52GocHm2+2D7+UNq8jPY0JlC3w3auTeOjV3pdkVZHgjqRc86Oj59zoticOTzC4fhFdHzKyhMh8ZJVOFob8EObU7FQhVazTpxkSDSan+Acz1c8Pjva2QWJPUYGGpzDW5bjYqNx9umub3MefXZ69vo+kMgskM19hD6cU50cwlOUshF/6P2zbX3+qTYz3zfvrHWsEyIGQJ7EebT5OUOAJBgbbOfbOHosq0TrIHH+9Ausf9tuPaAcCRy+5JtWY4Kz47XODur8YMtbq0KrXTH1MctaKB8urNSRkGu0F++lzo5oo8HhVpoKtA4Szf1XeHl8hZeHfNhMkYC3bCIkWLfzddKm+YRvHLaqRhWTuEMKJEyBhCmQMAUSJpKQZT0okPB69KgVBAUSpkDCFEiYAglTIGEqRaLduXjjTovVvYzmtKivEhLwIoqurvUip943NzzMI9Hu9N1ZTy0Nhrd6fQfkScTRCL/HaVed/5kzr4KilOPjKCKUu0hiXODYu5C4+pb1d5BEEtdQD9MEsRHzE6h6Ym7HKOYsGqUrdV4honifKxtffceZpCScvTEnjFjqXo6cmRrJkeheJg+PI5YVYTImQILOtd9epyuVAgykY+KaxVJg9uh/K/4eJb2razNTH3kSGCUmN57dYMhHRUenkqB8pQunGP5mSLCEBd4eG7bf/sBo66ea1kW5mICrEutRNI0EeMmFr1RP5TpLAjZZkNjDctz98aefwUewm4GayJEYDHWdEBLiGVRMAr/5ivSVrj0iPkcCq/AvQsLsdX+9Gd+2OyM2hcRMfeRI2LsjFf7TSYhzvtJBZFWOxGD4GwqSwnbnNh61xv2xW50TRnWQkWh3uO7JQilQejiZjA6424MbvEwqx7pi4leOBF8aKPD2WuPf/0Aw/fkX2zsz9ZGRkGHLy46uuRO8KtVdqYNXfPB8f7LUV0qtOJUngTZs4u11L3EYDKXOzNRGCYmHrkDCFEiYAglTIGEiiSAqxIQpkDAFEqZAwhRImAIJ06pIZBIE7st9Gcn9/+O+xZWQkL2lKXsnJdMX+hU/o9kk+G3VbxAXaoUkZuY7SqYveld/u80YanIbYpIEQct39kQFuxcrITE731EyfRH33QadaFESQJE2vyYSc/Id5dIXg+FIW8b9OLr4R82IF5wFqJBzZ0ZkGztiUsutdx45Nt7Dn8ryJI7EnHwHikqkLxgQ4mwsPqgZFjDw2v/e6Ln1QjkSrM/1HsO+9oQi/GQ6Wqo8CXSmu2xF+Q4Ob+H0hcSX3CvP2Fy6eNPuuEbikfVCORK4LOpdDKZIVKNcTKCvonwHR7pw+kKoyoiBCFIzYple2rmZoZKYyPeO1xCUkEh3tFw5EnPyHTLSRdMX+krk1UwSZoZyJBBDud5lnqRjAhUV5UkcCXt3oK8k/nIkFkxfuMWX60qOhL810wulJBiYud7FZo5E6mEsU0Zidr5DR4pVHcP01VPSF5L50ChTEmqGXvBWv2J6M5DY188T2d4lVmXhdSSqy5MYCXoAych05cSJT2lY9Mqlry5OX+gyKUcloWbkeabfot4MpBPK9WXlchvXjT7tOBKpjpashMRDVyBhCiRMgYQpkDAFEiaSCKJCTJgCCVMgYQokTIGEKZAwzSchXxyXLL+BWSMZCbfxlN1AEc0jUSor5LYW7gGJgk2ScZmsUMH91ey7lNcSSJTJCt0xEvEtnrNcx9wwIgnuFHHjiFtLaJHN2pTICpnbNKrFZnLtKiQBp2UmcyNuTM98/kU9oaN+quNi8axQioQV1zom6CMGKBd+diQJncmsDZCx8fyskN3kSFBWtG4VkuAKiMcqT1ZI+PyLDHsya7NwVihFwoprR0LHo2GdJyEzIYkJLTeRRGvRrFCahCuuGwnnhAxLhokzjV9cSWV6diTh7kgs+k8tWRJSXDcSrZgD6l5y5FwxNeUCJ2OsmEn+RT2azNrwpQEK87JCaRKT/zKzXnkSknHRl13cxznd4fJwyz+z8fkX8GAbn52BlAQqhJFVTPmnFkkvgRljworV5NqVkEgkLj84BRKmQMJUROJhKpAwkYSs50GBhFMU/Qek+l3I38hRtAAAAA5lWElmTU0AKgAAAAgAAAAAAAAA0lOTAAAAAElFTkSuQmCC;" vertex="1" parent="1">
          <mxGeometry x="-290" y="500" width="265" height="100" as="geometry" />
        </mxCell>
        <mxCell id="JH1jl1z9PuXV7L6DOCS8-48" value="" style="endArrow=none;html=1;rounded=0;entryX=0.5;entryY=1;entryDx=0;entryDy=0;exitX=0.5;exitY=0;exitDx=0;exitDy=0;" edge="1" parent="1" source="JH1jl1z9PuXV7L6DOCS8-47" target="JH1jl1z9PuXV7L6DOCS8-11">
          <mxGeometry width="50" height="50" relative="1" as="geometry">
            <mxPoint x="-510" y="760" as="sourcePoint" />
            <mxPoint x="-460" y="710" as="targetPoint" />
          </mxGeometry>
        </mxCell>
        <mxCell id="JH1jl1z9PuXV7L6DOCS8-50" value="" style="shape=image;imageAspect=0;aspect=fixed;verticalLabelPosition=bottom;verticalAlign=top;image=data:image/png,iVBORw0KGgoAAAANSUhEUgAAAQkAAACWCAMAAAD68Y10AAAAAXNSR0IArs4c6QAAAARnQU1BAACxjwv8YQUAAADzUExURdTU1NDOzgAAANDOsXUuAC50sZRTAAAudLPOzpRTLi4AAC4uU5SxztCxdAAALnWxzgBTkpR0Uy5TklSSsbN0U9DOklQAAJSSUwAAU1RTALN0LrOSdC4uAFSSzgAuLpTOznVTLtCxktCSU3UuLgAuU3UuU7OxdJSxsVRTLlR0klR0sf//////25A6AAA6kNv//7ZmANuQOjqQ2wAAZrb//wBmtv+2Zv//tmYAAP/bkDoAAGa2/wAAOpDb/5A6Zjo6Ora2Zjo6kNv/tmYAZjoAOgA6OjoAZgA6ZmY6ANv/25CQOjqQkLbbkJDbtrb/27b/tmZmZlhKu2YAAAAJcEhZcwAADsMAAA7DAcdvqGQAAAjZSURBVHhe7ZsJW9tGEIaDaC7SkKs5moamoU0vDNgQDIYkbXrf7f//NZ3vm53RyhZGIbGR5fmeB628Gu3xanaFd7yXQq6VkKgogoQqSJiChClImIKEKUiYZkxi9YMCurxyhenVa5p7fa0obnzI8zrdXFu/lU7np4sgkTJv06JOHSVxmSdXso6zo6t37qaPLdHFkCjupdOPZJjcvbZy/8HVh2uPPqbN4+K2+oRcW4ddsln55Il+npHmRwLa4DlGx6f3MFBszNx/IMmjh8Wjp7i4QRKPcUlSsxF+YvOUJcxC85knNiokVlY/k3N5vuzxswfrt4TEbXiGGGxKb5EvHy6vPPv8lttsFl88ffa8CyQqE+TqHXF96Zxq4770VHJhhD/0/uaaPv/MZur75p11EfMEBQcYJ7FZXP0SLgAS8A3YuU2ih7yZ6CJIbN74Sua/tTQfQImEJF/jTas+gdHxXEcHtHn3mpc2C813xtTHzLmQ/1xYbiLBz2LP3vOapWKjzpFmmhnoIkis3nkiL49v5OXBfzYzEtJbmJAErq1/W9qsXscbB1az0YxJLJCChClImIKEKUiYQILTeihIuC5d2gqJgoQpSJiChClImIKEaYxEb3tnd6uf/hrI7RdfRmLAN+reBAnNP7WrXSSR9aZCYv8F02kKEqZukjAKEyT6BzJQdnaHaaj0ZcwcIM1sF1vNSUjHD4942JNP8jc6PukkCUyML19Nkkj5mlEeRL1tcYrcdrHV3CeQ4YfeNggFiV2+PMMn5MApIkjI4fAIEJZsdGA+wIuTGX4YHcss0e8kiVCQMAUJU5AwBQkTSISg8AlTkDAFCVOQMAUJU5AwjZF423hHAy3K9zMjod85T4l3yHfO82vhSGTtrZCQ9PDoXTrTJRJbAyzpnleLSsIoVEgMubidhgkWaU4s4ZIWL3NBD5m4uNU/6HN5B+s5qaS2qxEJ+IRFOBDu6L1+kRKNeXwn14bCZAgKwwLxEELrS97g9KBqu1SZMdHhGhKj4zRlYg2XgZ8tS5DTe/09bpATLPFq//GXbKyktutMnwAhdMgjHAMGgjzZ2R29+eFH8RG4CwYGBwuWOHXAdIdESssIh9gUeOKajH56NZB37wkGh/ac46TDJNirRMK6jKS3vdeXifNgIFe49p+KwFnHRkdKPcIxlFT8PyVi8PMvMlX++hvYDHTGlANJ6IyxcDNmau9pJMQBLMIh0wX6qonki8XhEceLUNBwciKBuWXPS2i5jEQoSJiChClImIKEKUiYQCIEhU+YgoQpSJiChClImIKEaZKEfQs9p5rs+HjHKjK9v5IyElyX3ju7cP9dYr3ehkSrwkpOoo/Vht723tkkdCliqpqSkLQ1YSUjwZUmas4kWhNWSiTo0yoWjsUn5viOFg3liMrfLzfY+1LeTlvN8WAQSbQlrJRIpMVYCIWjDTrgZeJgMzSUA5UkJOuMvS+V29VM7vZgkPtEG8JKTkJqUEkvNHDBpyHiijZDORSnOT5HtKI8iNRSPlgGpJlsO0pGPXYZJFoTVqr1Cfohu1vuaPHrpU+gFX6o3ftSvV1y+Zj9MqGiQ20IK9XOE1qLiNnlQ6XqSWSWcsLcidsld4xESks7uXZRYaVEQp5C6jwK97HC6hqRyCwlh7kTt0vu5OiASjv7oMlcw0pGQvwTDZCpC4XzzTas7GhhO6B6Epkl2qoNHLudV/BMKzOmyO0uMqxkJFCTDlr2Ah+QYsbQeA9rh2iHizT0Q2lpl0TV25GLGcGDQZZmdlI0+qqJ5IvFnMJKJYllV5AwBQlTkDAFCVOQMIFECAqfMAUJU5AwBQlTkDAFCdOpJPQL37iyFZ2uyUjgOy6/8pqWlQR7OHqT9bKeBGVLvd1SIuHrda7lJaEd18VELjsdDAsurlYDPHIJC0pcke6WbJ5I6+oZiQIxhnSSBXgkp9M+waVE6WBGAh6APvPED/jrOAmw2H+Rjw5mnSwjCSyhBwmK/V720TGUDva25VXByDWjGZwjhcskiRSl6pjMJyzU4/GU/h5fnnUkEJjpHot8dCy3goQpSJiChClImIKECSRCUPiEKUiYgoQpSJiChKm1JPhVb54aJzFlSbuhRsfFzu/NwiJToifpx8lzlJGwyE8zEvj95CnL21z1ahggmmKG37/6Lz/PUlqOBr/zL7onEh75aUTC9wfVaDJyUqsz1r3I038NfJYEmVbqJ+dQIuHtb0Ki3B9Uo/dDgstizUns/0HT3vafzWqvk5NIBMrNORwB1h42PK3a5T5tRn4fflIsz4XLW9yaU78zKEWPOC1OlCHir5DLX4inkrismJnbz7YH+3+xacOXf5MEGmElS35KrG7pgJwgqmV2lM0TNtR0+VKK8y027L/vvBE5tcyovE99giRY7VjgSP5YoPoEzGrKSMeShJc0XqVqsP+Prskf8Ebch8eFD+UOIq+bIw+/fzc7LcRIABwaZ2vbutyPG3DmO28gbSZUGvl96SpJsCM4yw4i3uUk6spIV8VD0jSuJeGYmzMXki7hDukmavcdS6mhZXv1dl7n5WSnl5wEWGStybbYiKf6zhuo9InMqI6Ettkh4KCOKRe0AZJVV4YeMp/QknAcN6fEENVKQ5Fw+BBhdQeR1U2YgrG0ozISdDxrTZoTuNsm23kDlQ6VGXkvppLgrVWfqC+DeXUkxs0pGPb3/5WalQRNqGwHkddNIpKd24lyErhkrUkPHu3Kd95Qvj8oM8p6MYUEK6+SqCsjIaj3iao5BcPR8X9yRO3agqTUXUm8bnmyvFSxcxIe+SlbozMTysl33kACFacyA43tw8F9U0mwH5zptIXInyyDqER1JMbNKRhKo+Qza7cdS9UdRF63zN8i1JzstBDzCcxObC6KZ8PxitExVNl5Q3EuQ4/dyO+bSkKKSpt7pE3SG+ZPlJGeo9aCVqWSeBwzp4iMiLR274ykQKaJ1S0DPQ1xs6Py0dEWuS/MRlr8RCUtJDE2ft+7kvO4RyW10SdmLR/bFS0jiXoFCRNIwFlCQcJUFP8DkcCWabssojIAAAAOZVhJZk1NACoAAAAIAAAAAAAAANJTkwAAAABJRU5ErkJggg==;" vertex="1" parent="1">
          <mxGeometry x="-1170" y="510" width="265" height="150" as="geometry" />
        </mxCell>
        <mxCell id="JH1jl1z9PuXV7L6DOCS8-51" value="" style="endArrow=none;html=1;rounded=0;entryX=0.834;entryY=0.988;entryDx=0;entryDy=0;exitX=0.5;exitY=0;exitDx=0;exitDy=0;entryPerimeter=0;" edge="1" parent="1" source="JH1jl1z9PuXV7L6DOCS8-50" target="JH1jl1z9PuXV7L6DOCS8-16">
          <mxGeometry width="50" height="50" relative="1" as="geometry">
            <mxPoint x="-1050" y="490" as="sourcePoint" />
            <mxPoint x="-900" y="512.5" as="targetPoint" />
          </mxGeometry>
        </mxCell>
        <mxCell id="JH1jl1z9PuXV7L6DOCS8-52" value="APIS TODO" style="rounded=0;whiteSpace=wrap;html=1;" vertex="1" parent="1">
          <mxGeometry x="-1482.5" y="1169" width="120" height="60" as="geometry" />
        </mxCell>
        <mxCell id="JH1jl1z9PuXV7L6DOCS8-53" value="OBJETOS PARA O AUTH TODO" style="rounded=0;whiteSpace=wrap;html=1;" vertex="1" parent="1">
          <mxGeometry x="-1210" y="-540" width="120" height="60" as="geometry" />
        </mxCell>
      </root>
    </mxGraphModel>
  </diagram>
</mxfile>
